ply
format ascii 1.0
comment Created in Blender version 4.0.2
element vertex 100
property float x
property float y
property float z
element face 52
property list uchar uint vertex_indices
end_header
1 1 1.125
1 1 0.125
1 -1 1.125
1 -1 0.125
-1 1 0.125
-1 -1 0.125
1 -1 2.125
3 1 1.125
3 -1 1.125
3 1 2.125
3 -1 2.125
-1 0.99999994 3.125
0.99999994 1 3.125
0.99999994 1 2.125
0.99999994 1 4.125
-1.0000001 3 3.125
0.9999999 3 3.125
-1.0000001 3 4.125
0.9999999 3 4.125
-0.99999994 -1.0000001 5.125
-1.0000001 0.99999994 5.125
-1.0000001 0.99999994 4.125
-1.0000001 0.99999994 6.125
-0.99999994 -1.0000001 6.125
-3 -1.0000002 5.125
-3 0.99999976 5.125
-3 -1.0000002 6.125
-3 0.99999976 6.125
1.0000001 -0.9999999 7.125
-0.9999999 -1.0000001 7.125
-0.9999999 -1.0000001 8.125
1.0000001 -0.9999999 8.125
1.0000004 -2.9999998 7.125
-0.9999996 -3.0000002 7.125
1.0000004 -2.9999998 8.125
-0.9999996 -3.0000002 8.125
0.9999998 1.0000001 9.125
1.0000001 -0.9999998 9.125
1.0000001 -0.9999998 10.125
0.9999998 1.0000001 10.125
2.9999998 1.0000005 9.125
3.0000002 -0.99999946 9.125
2.9999998 1.0000005 10.125
3.0000002 -0.99999946 10.125
-1.0000002 0.99999976 11.125
0.99999976 1.0000002 11.125
0.99999976 1.0000002 12.125
-1.0000002 0.99999976 12.125
-1.0000007 2.9999998 11.125
0.99999934 3.0000002 11.125
-1.0000007 2.9999998 12.125
0.99999934 3.0000002 12.125
-0.99999976 -1.0000002 13.125
-1.0000002 0.99999976 13.125
-0.99999976 -1.0000002 14.125
-2.9999998 -1.0000008 13.125
-3.0000002 0.9999992 13.125
-2.9999998 -1.0000008 14.125
-3.0000002 0.9999992 14.125
1.0000004 -0.9999997 15.125
-0.9999997 -1.0000004 15.125
-1.0000004 0.9999997 14.125
1.0000004 -0.9999997 16.125
1.000001 -2.9999998 15.125
-0.9999991 -3.0000002 15.125
1.000001 -2.9999998 16.125
-0.9999991 -3.0000002 16.125
0.99999964 1.0000004 17.125
1.0000004 -0.99999964 17.125
-0.99999964 -1.0000004 16.125
1.0000004 -0.99999964 18.125
2.9999998 1.0000011 17.125
3.0000002 -0.9999989 17.125
2.9999998 1.0000011 18.125
3.0000002 -0.9999989 18.125
-1.0000004 0.9999996 19.125
0.9999996 1.0000004 19.125
0.9999996 1.0000004 18.125
0.9999996 1.0000004 20.125
-1.0000012 2.9999995 19.125
0.9999988 3.0000005 19.125
-1.0000012 2.9999995 20.125
0.9999988 3.0000005 20.125
-0.9999996 -1.0000005 21.125
-1.0000005 0.9999996 21.125
-1.0000005 0.9999996 20.125
-0.9999996 -1.0000005 22.125
-2.9999995 -1.0000013 21.125
-3.0000005 0.9999987 21.125
-2.9999995 -1.0000013 22.125
-3.0000005 0.9999987 22.125
1.0000005 -0.9999995 23.125
-0.9999995 -1.0000005 23.125
-1.0000005 0.9999995 22.125
-1.0000005 0.9999995 24.125
0.9999995 1.0000005 24.125
1.0000014 -2.9999995 23.125
-0.99999857 -3.0000005 23.125
1.0000014 -2.9999995 24.125
-0.99999857 -3.0000005 24.125
4 1 0 2 3
4 13 6 10 9
12 83 84 85 81 79 75 61 54 60 64 66 69
4 8 7 9 10
4 2 0 7 8
4 21 14 18 17
4 16 15 17 18
4 12 11 15 16
12 46 67 68 62 65 63 59 38 39 45 49 51
12 75 76 77 73 71 67 46 47 53 56 58 61
12 6 28 29 23 26 24 19 5 3 2 8 10
4 23 22 27 26
4 25 24 26 27
4 20 19 24 25
10 95 98 96 91 70 77 76 80 82 78
4 31 30 35 34
4 33 32 34 35
4 29 28 32 33
12 14 36 37 31 34 32 28 6 13 12 16 18
12 30 52 53 47 50 48 44 22 23 29 33 35
4 39 38 43 42
4 95 94 99 98
4 41 40 42 43
4 37 36 40 41
4 47 46 51 50
4 49 48 50 51
4 45 44 48 49
8 13 9 7 0 1 4 11 12
12 39 42 40 36 14 21 20 25 27 22 44 45
4 54 61 58 57
12 70 91 92 86 89 87 83 69 62 68 72 74
4 56 55 57 58
4 53 52 55 56
4 62 69 66 65
4 64 63 65 66
4 60 59 63 64
8 5 19 20 21 17 15 11 4
4 77 70 74 73
4 72 71 73 74
4 68 67 71 72
4 85 78 82 81
4 80 79 81 82
4 76 75 79 80
4 86 93 90 89
12 38 59 60 54 57 55 52 30 31 37 41 43
4 88 87 89 90
4 84 83 87 88
6 92 97 99 94 93 86
4 97 96 98 99
4 92 91 96 97
4 4 1 3 5
8 93 94 95 78 85 84 88 90
