ply
format ascii 1.0
comment Created in Blender version 4.0.2
element vertex 228
property float x
property float y
property float z
element face 116
property list uchar uint vertex_indices
end_header
1 1 1.125
1 1 0.125
1 -1 1.125
1 -1 0.125
-1 1 0.125
-1 -1 0.125
1 -1 2.125
1 1 2.125
3 1 1.125
3 -1 1.125
3 1 2.125
3 -1 2.125
-1 0.99999994 3.125
0.99999994 1 3.125
0.99999994 1 4.125
-1.0000001 3 3.125
0.9999999 3 3.125
-1.0000001 3 4.125
0.9999999 3 4.125
-0.99999994 -1.0000001 5.125
-1.0000001 0.99999994 5.125
-1.0000001 0.99999994 4.125
-1.0000001 0.99999994 6.125
-0.99999994 -1.0000001 6.125
-3 -1.0000002 5.125
-3 0.99999976 5.125
-3 -1.0000002 6.125
-3 0.99999976 6.125
1.0000001 -0.9999999 7.125
-0.9999999 -1.0000001 7.125
-0.9999999 -1.0000001 8.125
1.0000001 -0.9999999 8.125
1.0000004 -2.9999998 7.125
-0.9999996 -3.0000002 7.125
1.0000004 -2.9999998 8.125
-0.9999996 -3.0000002 8.125
0.9999998 1.0000001 9.125
1.0000001 -0.9999998 9.125
1.0000001 -0.9999998 10.125
0.9999998 1.0000001 10.125
2.9999998 1.0000005 9.125
3.0000002 -0.99999946 9.125
2.9999998 1.0000005 10.125
3.0000002 -0.99999946 10.125
-1.0000002 0.99999976 11.125
0.99999976 1.0000002 11.125
-1.0000007 2.9999998 11.125
0.99999934 3.0000002 11.125
-1.0000007 2.9999998 12.125
0.99999934 3.0000002 12.125
-0.99999976 -1.0000002 13.125
-1.0000002 0.99999976 13.125
-1.0000002 0.99999976 12.125
0.99999976 1.0000002 12.125
-0.99999976 -1.0000002 14.125
-2.9999998 -1.0000008 13.125
-3.0000002 0.9999992 13.125
-2.9999998 -1.0000008 14.125
-3.0000002 0.9999992 14.125
1.0000004 -0.9999997 15.125
-0.9999997 -1.0000004 15.125
-1.0000004 0.9999997 14.125
-0.9999997 -1.0000004 16.125
1.0000004 -0.9999997 16.125
1.000001 -2.9999998 15.125
-0.9999991 -3.0000002 15.125
1.000001 -2.9999998 16.125
-0.9999991 -3.0000002 16.125
0.99999964 1.0000004 17.125
1.0000004 -0.99999964 17.125
2.9999998 1.0000011 17.125
3.0000002 -0.9999989 17.125
2.9999998 1.0000011 18.125
3.0000002 -0.9999989 18.125
-1.0000004 0.9999996 19.125
0.9999996 1.0000004 19.125
0.9999996 1.0000004 18.125
1.0000004 -0.9999996 18.125
0.9999996 1.0000004 20.125
-1.0000004 0.9999996 20.125
-1.0000012 2.9999995 19.125
0.9999988 3.0000005 19.125
-1.0000012 2.9999995 20.125
0.9999988 3.0000005 20.125
-0.9999996 -1.0000005 21.125
-1.0000005 0.9999996 21.125
-0.9999996 -1.0000005 22.125
-2.9999995 -1.0000013 21.125
-3.0000005 0.9999987 21.125
-2.9999995 -1.0000013 22.125
-3.0000005 0.9999987 22.125
1.0000005 -0.9999995 23.125
-0.9999995 -1.0000005 23.125
-1.0000005 0.9999995 22.125
-0.9999995 -1.0000005 24.125
1.0000005 -0.9999995 24.125
1.0000014 -2.9999995 23.125
-0.99999857 -3.0000005 23.125
1.0000014 -2.9999995 24.125
-0.99999857 -3.0000005 24.125
0.99999946 1.0000005 25.125
1.0000005 -0.99999946 25.125
1.0000005 -0.99999946 26.125
2.9999995 1.0000015 25.125
3.0000005 -0.99999845 25.125
2.9999995 1.0000015 26.125
3.0000005 -0.99999845 26.125
-1.0000006 0.9999994 27.125
0.9999994 1.0000006 27.125
0.9999994 1.0000006 26.125
0.9999994 1.0000006 28.125
-1.0000017 2.9999995 27.125
0.9999983 3.0000005 27.125
-1.0000017 2.9999995 28.125
0.9999983 3.0000005 28.125
-0.9999994 -1.0000006 29.125
-1.0000006 0.9999994 29.125
-1.0000006 0.9999994 28.125
-0.9999994 -1.0000006 30.125
-2.9999993 -1.0000018 29.125
-3.0000007 0.99999815 29.125
-2.9999993 -1.0000018 30.125
-3.0000007 0.99999815 30.125
1.0000007 -0.99999934 31.125
-0.99999934 -1.0000007 31.125
-1.0000007 0.99999934 30.125
-0.99999934 -1.0000007 32.125
1.0000007 -0.99999934 32.125
1.000002 -2.9999993 31.125
-0.99999803 -3.0000007 31.125
1.000002 -2.9999993 32.125
-0.99999803 -3.0000007 32.125
0.9999993 1.0000007 33.125
1.0000007 -0.9999993 33.125
0.9999993 1.0000007 34.125
2.9999993 1.0000021 33.125
3.0000007 -0.9999979 33.125
2.9999993 1.0000021 34.125
3.0000007 -0.9999979 34.125
-1.0000007 0.9999993 35.125
0.9999993 1.0000007 35.125
1.0000007 -0.9999993 34.125
0.9999993 1.0000007 36.125
-1.0000023 2.9999993 35.125
0.9999978 3.0000007 35.125
-1.0000023 2.9999993 36.125
0.9999978 3.0000007 36.125
-0.9999992 -1.0000008 37.125
-1.0000008 0.9999992 37.125
-1.0000008 0.9999992 36.125
-0.9999992 -1.0000008 38.125
-2.9999993 -1.0000024 37.125
-3.0000007 0.9999976 37.125
-2.9999993 -1.0000024 38.125
-3.0000007 0.9999976 38.125
1.0000008 -0.99999917 39.125
-0.99999917 -1.0000008 39.125
-1.0000008 0.99999917 38.125
-0.99999917 -1.0000008 40.125
1.0000008 -0.99999917 40.125
1.0000025 -2.9999993 39.125
-0.9999975 -3.0000007 39.125
1.0000025 -2.9999993 40.125
-0.9999975 -3.0000007 40.125
0.9999991 1.0000008 41.125
1.0000008 -0.9999991 41.125
2.999999 1.0000026 41.125
3.000001 -0.9999974 41.125
2.999999 1.0000026 42.125
3.000001 -0.9999974 42.125
-1.000001 0.9999991 43.125
0.9999991 1.000001 43.125
0.9999991 1.000001 42.125
1.000001 -0.9999991 42.125
-1.0000027 2.999999 43.125
0.99999726 3.000001 43.125
-1.0000027 2.999999 44.125
0.99999726 3.000001 44.125
-0.99999905 -1.000001 45.125
-1.000001 0.99999905 45.125
-1.000001 0.99999905 44.125
0.99999905 1.000001 44.125
-1.000001 0.99999905 46.125
-0.99999905 -1.000001 46.125
-2.999999 -1.0000029 45.125
-3.000001 0.99999714 45.125
-2.999999 -1.0000029 46.125
-3.000001 0.99999714 46.125
1.000001 -0.999999 47.125
-0.999999 -1.000001 47.125
-0.999999 -1.000001 48.125
1.000001 -0.999999 48.125
1.000003 -2.999999 47.125
-0.99999696 -3.000001 47.125
1.000003 -2.999999 48.125
-0.99999696 -3.000001 48.125
0.9999989 1.0000011 49.125
1.0000011 -0.9999989 49.125
0.9999989 1.0000011 50.125
2.999999 1.0000031 49.125
3.000001 -0.99999684 49.125
2.999999 1.0000031 50.125
3.000001 -0.99999684 50.125
-1.0000011 0.9999989 51.125
0.9999989 1.0000011 51.125
1.0000011 -0.9999989 50.125
-1.0000033 2.9999988 51.125
0.9999967 3.0000012 51.125
-1.0000033 2.9999988 52.125
0.9999967 3.0000012 52.125
-0.99999887 -1.0000012 53.125
-1.0000012 0.99999887 53.125
-1.0000012 0.99999887 52.125
0.99999887 1.0000012 52.125
-1.0000012 0.99999887 54.125
-2.9999988 -1.0000035 53.125
-3.0000012 0.9999966 53.125
-2.9999988 -1.0000035 54.125
-3.0000012 0.9999966 54.125
1.0000012 -0.9999988 55.125
-0.9999988 -1.0000012 55.125
-0.9999988 -1.0000012 54.125
-1.0000012 0.9999988 56.125
0.9999988 1.0000012 56.125
1.0000036 -2.9999988 55.125
-0.9999965 -3.0000012 55.125
1.0000036 -2.9999988 56.125
-0.9999965 -3.0000012 56.125
12 102 123 124 118 121 119 115 94 95 101 104 106
12 196 197 191 194 192 188 173 172 171 175 177 181
4 1 0 2 3
4 7 6 11 10
4 9 8 10 11
4 2 0 8 9
4 21 14 18 17
4 16 15 17 18
4 13 12 15 16
12 62 84 85 79 82 80 74 61 54 60 65 67
8 7 10 8 0 1 4 12 13
4 23 22 27 26
4 25 24 26 27
4 20 19 24 25
12 170 171 172 168 166 164 142 149 148 152 154 157
4 31 30 35 34
4 33 32 34 35
4 29 28 32 33
12 100 101 95 98 96 91 77 76 75 81 83 78
8 214 222 223 213 212 211 216 218
4 39 38 43 42
6 220 225 227 222 214 221
4 41 40 42 43
4 37 36 40 41
4 52 53 49 48
4 47 46 48 49
4 45 44 46 47
12 205 219 220 221 217 215 210 190 191 197 200 202
4 54 61 58 57
4 56 55 57 58
4 51 50 55 56
4 63 62 67 66
4 65 64 66 67
4 60 59 64 65
12 30 50 51 52 48 46 44 22 23 29 33 35
4 76 77 73 72
4 71 70 72 73
4 69 68 70 71
12 126 147 148 149 145 143 139 125 118 124 129 131
12 38 39 45 47 49 53 68 69 63 66 64 59
4 79 78 83 82
4 81 80 82 83
4 75 74 80 81
4 86 93 90 89
12 61 74 75 76 72 70 68 53 52 51 56 58
4 88 87 89 90
4 85 84 87 88
12 94 115 116 117 113 111 107 93 86 92 97 99
4 95 94 99 98
12 173 188 189 183 186 184 178 158 159 165 167 169
4 97 96 98 99
4 92 91 96 97
12 14 21 20 25 27 22 44 45 39 42 40 36
4 109 102 106 105
4 104 103 105 106
4 101 100 103 104
12 6 28 29 23 26 24 19 5 3 2 9 11
4 117 110 114 113
4 112 111 113 114
4 108 107 111 112
4 118 125 122 121
4 120 119 121 122
4 116 115 119 120
4 127 126 131 130
4 129 128 130 131
4 124 123 128 129
8 5 19 20 21 17 15 12 4
12 132 133 127 130 128 123 102 109 108 112 114 110
12 14 36 37 31 34 32 28 6 7 13 16 18
4 134 141 138 137
4 136 135 137 138
4 133 132 135 136
4 149 142 146 145
4 144 143 145 146
4 140 139 143 144
12 158 178 179 180 176 174 170 157 150 156 161 163
4 150 157 154 153
4 152 151 153 154
4 148 147 151 152
12 164 165 159 162 160 155 141 134 140 144 146 142
12 77 91 92 86 89 87 84 62 63 69 71 73
4 159 158 163 162
12 126 127 133 136 138 141 155 156 150 153 151 147
4 161 160 162 163
4 156 155 160 161
12 37 41 43 38 59 60 54 57 55 50 30 31
4 172 173 169 168
4 167 166 168 169
4 165 164 166 167
4 180 181 177 176
12 125 139 140 134 137 135 132 110 117 116 120 122
4 175 174 176 177
4 171 170 174 175
10 223 226 224 219 205 198 204 207 209 213
4 183 182 187 186
4 185 184 186 187
4 179 178 184 185
12 190 210 211 212 208 206 203 182 183 189 193 195
4 191 190 195 194
4 193 192 194 195
4 189 188 192 193
4 198 205 202 201
4 200 199 201 202
4 197 196 199 200
4 212 213 209 208
4 207 206 208 209
4 204 203 206 207
12 93 107 108 109 105 103 100 78 79 85 88 90
4 221 214 218 217
12 182 203 204 198 201 199 196 181 180 179 185 187
4 216 215 217 218
4 211 210 215 216
4 223 222 227 226
4 225 224 226 227
4 220 219 224 225
4 4 1 3 5
