ply
format ascii 1.0
comment Created in Blender version 4.0.2
element vertex 356
property float x
property float y
property float z
element face 180
property list uchar uint vertex_indices
end_header
1 1 1.125
1 1 0.125
1 -1 1.125
1 -1 0.125
-1 1 0.125
-1 -1 0.125
1 -1 2.125
3 1 1.125
3 -1 1.125
3 1 2.125
3 -1 2.125
-1 0.99999994 3.125
0.99999994 1 3.125
0.99999994 1 2.125
0.99999994 1 4.125
-1.0000001 3 3.125
0.9999999 3 3.125
-1.0000001 3 4.125
0.9999999 3 4.125
-0.99999994 -1.0000001 5.125
-1.0000001 0.99999994 5.125
-1.0000001 0.99999994 4.125
-3 -1.0000002 5.125
-3 0.99999976 5.125
-3 -1.0000002 6.125
-3 0.99999976 6.125
1.0000001 -0.9999999 7.125
-0.9999999 -1.0000001 7.125
-0.9999999 -1.0000001 6.125
-1.0000001 0.9999999 6.125
-0.9999999 -1.0000001 8.125
1.0000001 -0.9999999 8.125
1.0000004 -2.9999998 7.125
-0.9999996 -3.0000002 7.125
1.0000004 -2.9999998 8.125
-0.9999996 -3.0000002 8.125
0.9999998 1.0000001 9.125
1.0000001 -0.9999998 9.125
1.0000001 -0.9999998 10.125
0.9999998 1.0000001 10.125
2.9999998 1.0000005 9.125
3.0000002 -0.99999946 9.125
2.9999998 1.0000005 10.125
3.0000002 -0.99999946 10.125
-1.0000002 0.99999976 11.125
0.99999976 1.0000002 11.125
-1.0000002 0.99999976 12.125
-1.0000007 2.9999998 11.125
0.99999934 3.0000002 11.125
-1.0000007 2.9999998 12.125
0.99999934 3.0000002 12.125
-0.99999976 -1.0000002 13.125
-1.0000002 0.99999976 13.125
0.99999976 1.0000002 12.125
-2.9999998 -1.0000008 13.125
-3.0000002 0.9999992 13.125
-2.9999998 -1.0000008 14.125
-3.0000002 0.9999992 14.125
1.0000004 -0.9999997 15.125
-0.9999997 -1.0000004 15.125
-0.9999997 -1.0000004 14.125
-1.0000004 0.9999997 14.125
-0.9999997 -1.0000004 16.125
1.000001 -2.9999998 15.125
-0.9999991 -3.0000002 15.125
1.000001 -2.9999998 16.125
-0.9999991 -3.0000002 16.125
0.99999964 1.0000004 17.125
1.0000004 -0.99999964 17.125
1.0000004 -0.99999964 16.125
1.0000004 -0.99999964 18.125
2.9999998 1.0000011 17.125
3.0000002 -0.9999989 17.125
2.9999998 1.0000011 18.125
3.0000002 -0.9999989 18.125
-1.0000004 0.9999996 19.125
0.9999996 1.0000004 19.125
0.9999996 1.0000004 18.125
0.9999996 1.0000004 20.125
-1.0000012 2.9999995 19.125
0.9999988 3.0000005 19.125
-1.0000012 2.9999995 20.125
0.9999988 3.0000005 20.125
-0.9999996 -1.0000005 21.125
-1.0000005 0.9999996 21.125
-1.0000005 0.9999996 20.125
-0.9999996 -1.0000005 22.125
-2.9999995 -1.0000013 21.125
-3.0000005 0.9999987 21.125
-2.9999995 -1.0000013 22.125
-3.0000005 0.9999987 22.125
1.0000005 -0.9999995 23.125
-0.9999995 -1.0000005 23.125
-1.0000005 0.9999995 22.125
-0.9999995 -1.0000005 24.125
1.0000005 -0.9999995 24.125
1.0000014 -2.9999995 23.125
-0.99999857 -3.0000005 23.125
1.0000014 -2.9999995 24.125
-0.99999857 -3.0000005 24.125
0.99999946 1.0000005 25.125
1.0000005 -0.99999946 25.125
1.0000005 -0.99999946 26.125
0.99999946 1.0000005 26.125
2.9999995 1.0000015 25.125
3.0000005 -0.99999845 25.125
2.9999995 1.0000015 26.125
3.0000005 -0.99999845 26.125
-1.0000006 0.9999994 27.125
0.9999994 1.0000006 27.125
0.9999994 1.0000006 28.125
-1.0000006 0.9999994 28.125
-1.0000017 2.9999995 27.125
0.9999983 3.0000005 27.125
-1.0000017 2.9999995 28.125
0.9999983 3.0000005 28.125
-0.9999994 -1.0000006 29.125
-1.0000006 0.9999994 29.125
-2.9999993 -1.0000018 29.125
-3.0000007 0.99999815 29.125
-2.9999993 -1.0000018 30.125
-3.0000007 0.99999815 30.125
1.0000007 -0.99999934 31.125
-0.99999934 -1.0000007 31.125
-0.99999934 -1.0000007 30.125
-1.0000007 0.99999934 30.125
-0.99999934 -1.0000007 32.125
1.000002 -2.9999993 31.125
-0.99999803 -3.0000007 31.125
1.000002 -2.9999993 32.125
-0.99999803 -3.0000007 32.125
0.9999993 1.0000007 33.125
1.0000007 -0.9999993 33.125
1.0000007 -0.9999993 32.125
1.0000007 -0.9999993 34.125
0.9999993 1.0000007 34.125
2.9999993 1.0000021 33.125
3.0000007 -0.9999979 33.125
2.9999993 1.0000021 34.125
3.0000007 -0.9999979 34.125
-1.0000007 0.9999993 35.125
0.9999993 1.0000007 35.125
0.9999993 1.0000007 36.125
-1.0000023 2.9999993 35.125
0.9999978 3.0000007 35.125
-1.0000023 2.9999993 36.125
0.9999978 3.0000007 36.125
-0.9999992 -1.0000008 37.125
-1.0000008 0.9999992 37.125
-1.0000008 0.9999992 36.125
-1.0000008 0.9999992 38.125
-0.9999992 -1.0000008 38.125
-2.9999993 -1.0000024 37.125
-3.0000007 0.9999976 37.125
-2.9999993 -1.0000024 38.125
-3.0000007 0.9999976 38.125
1.0000008 -0.99999917 39.125
-0.99999917 -1.0000008 39.125
1.0000008 -0.99999917 40.125
1.0000025 -2.9999993 39.125
-0.9999975 -3.0000007 39.125
1.0000025 -2.9999993 40.125
-0.9999975 -3.0000007 40.125
0.9999991 1.0000008 41.125
1.0000008 -0.9999991 41.125
-0.9999991 -1.0000008 40.125
1.0000008 -0.9999991 42.125
0.9999991 1.0000008 42.125
2.999999 1.0000026 41.125
3.000001 -0.9999974 41.125
2.999999 1.0000026 42.125
3.000001 -0.9999974 42.125
-1.000001 0.9999991 43.125
0.9999991 1.000001 43.125
0.9999991 1.000001 44.125
-1.000001 0.9999991 44.125
-1.0000027 2.999999 43.125
0.99999726 3.000001 43.125
-1.0000027 2.999999 44.125
0.99999726 3.000001 44.125
-0.99999905 -1.000001 45.125
-1.000001 0.99999905 45.125
-1.000001 0.99999905 46.125
-2.999999 -1.0000029 45.125
-3.000001 0.99999714 45.125
-2.999999 -1.0000029 46.125
-3.000001 0.99999714 46.125
1.000001 -0.999999 47.125
-0.999999 -1.000001 47.125
-0.999999 -1.000001 46.125
-0.999999 -1.000001 48.125
1.000001 -0.999999 48.125
1.000003 -2.999999 47.125
-0.99999696 -3.000001 47.125
1.000003 -2.999999 48.125
-0.99999696 -3.000001 48.125
0.9999989 1.0000011 49.125
1.0000011 -0.9999989 49.125
1.0000011 -0.9999989 50.125
2.999999 1.0000031 49.125
3.000001 -0.99999684 49.125
2.999999 1.0000031 50.125
3.000001 -0.99999684 50.125
-1.0000011 0.9999989 51.125
0.9999989 1.0000011 51.125
0.9999989 1.0000011 50.125
-1.0000011 0.9999989 52.125
-1.0000033 2.9999988 51.125
0.9999967 3.0000012 51.125
-1.0000033 2.9999988 52.125
0.9999967 3.0000012 52.125
-0.99999887 -1.0000012 53.125
-1.0000012 0.99999887 53.125
0.99999887 1.0000012 52.125
-2.9999988 -1.0000035 53.125
-3.0000012 0.9999966 53.125
-2.9999988 -1.0000035 54.125
-3.0000012 0.9999966 54.125
1.0000012 -0.9999988 55.125
-0.9999988 -1.0000012 55.125
-0.9999988 -1.0000012 54.125
-1.0000012 0.9999988 54.125
-0.9999988 -1.0000012 56.125
1.0000012 -0.9999988 56.125
1.0000036 -2.9999988 55.125
-0.9999965 -3.0000012 55.125
1.0000036 -2.9999988 56.125
-0.9999965 -3.0000012 56.125
0.99999875 1.0000012 57.125
1.0000012 -0.99999875 57.125
1.0000012 -0.99999875 58.125
0.99999875 1.0000012 58.125
2.9999988 1.0000037 57.125
3.0000012 -0.9999963 57.125
2.9999988 1.0000037 58.125
3.0000012 -0.9999963 58.125
-1.0000013 0.99999875 59.125
0.99999875 1.0000013 59.125
-1.0000038 2.9999988 59.125
0.9999962 3.0000012 59.125
-1.0000038 2.9999988 60.125
0.9999962 3.0000012 60.125
-0.9999987 -1.0000013 61.125
-1.0000013 0.9999987 61.125
-1.0000013 0.9999987 60.125
0.9999987 1.0000013 60.125
-2.9999986 -1.0000039 61.125
-3.0000014 0.99999607 61.125
-2.9999986 -1.0000039 62.125
-3.0000014 0.99999607 62.125
1.0000013 -0.9999986 63.125
-0.9999986 -1.0000013 63.125
-0.9999986 -1.0000013 62.125
-1.0000013 0.9999986 62.125
1.0000013 -0.9999986 64.125
1.000004 -2.9999986 63.125
-0.99999595 -3.0000014 63.125
1.000004 -2.9999986 64.125
-0.99999595 -3.0000014 64.125
0.9999986 1.0000014 65.125
1.0000014 -0.9999986 65.125
-0.9999986 -1.0000014 64.125
2.9999986 1.0000042 65.125
3.0000014 -0.9999958 65.125
2.9999986 1.0000042 66.125
3.0000014 -0.9999958 66.125
-1.0000014 0.99999857 67.125
0.99999857 1.0000014 67.125
0.99999857 1.0000014 66.125
1.0000014 -0.99999857 66.125
-1.0000014 0.99999857 68.125
-1.0000043 2.9999986 67.125
0.99999565 3.0000014 67.125
-1.0000043 2.9999986 68.125
0.99999565 3.0000014 68.125
-0.9999985 -1.0000014 69.125
-1.0000014 0.9999985 69.125
0.9999985 1.0000014 68.125
-0.9999985 -1.0000014 70.125
-2.9999986 -1.0000044 69.125
-3.0000014 0.9999955 69.125
-2.9999986 -1.0000044 70.125
-3.0000014 0.9999955 70.125
1.0000015 -0.99999845 71.125
-0.99999845 -1.0000015 71.125
-1.0000015 0.99999845 70.125
1.0000015 -0.99999845 72.125
1.0000046 -2.9999986 71.125
-0.9999954 -3.0000014 71.125
1.0000046 -2.9999986 72.125
-0.9999954 -3.0000014 72.125
0.99999845 1.0000015 73.125
1.0000015 -0.99999845 73.125
-0.99999845 -1.0000015 72.125
1.0000015 -0.99999845 74.125
2.9999983 1.0000048 73.125
3.0000017 -0.9999953 73.125
2.9999983 1.0000048 74.125
3.0000017 -0.9999953 74.125
-1.0000017 0.9999984 75.125
0.9999984 1.0000017 75.125
0.9999984 1.0000017 74.125
-1.0000017 0.9999984 76.125
-1.0000049 2.9999983 75.125
0.9999952 3.0000017 75.125
-1.0000049 2.9999983 76.125
0.9999952 3.0000017 76.125
-0.99999833 -1.0000017 77.125
-1.0000017 0.99999833 77.125
0.99999833 1.0000017 76.125
-0.99999833 -1.0000017 78.125
-2.9999983 -1.000005 77.125
-3.0000017 0.999995 77.125
-2.9999983 -1.000005 78.125
-3.0000017 0.999995 78.125
1.0000017 -0.9999983 79.125
-0.9999983 -1.0000017 79.125
-1.0000017 0.9999983 78.125
1.0000051 -2.9999983 79.125
-0.9999949 -3.0000017 79.125
1.0000051 -2.9999983 80.125
-0.9999949 -3.0000017 80.125
0.9999983 1.0000018 81.125
1.0000018 -0.9999983 81.125
1.0000018 -0.9999983 80.125
-0.9999983 -1.0000018 80.125
1.0000018 -0.9999983 82.125
2.9999983 1.0000052 81.125
3.0000017 -0.99999475 81.125
2.9999983 1.0000052 82.125
3.0000017 -0.99999475 82.125
-1.0000018 0.9999982 83.125
0.9999982 1.0000018 83.125
0.9999982 1.0000018 82.125
-1.0000018 0.9999982 84.125
-1.0000054 2.999998 83.125
0.99999464 3.000002 83.125
-1.0000054 2.999998 84.125
0.99999464 3.000002 84.125
-0.99999815 -1.0000018 85.125
-1.0000018 0.99999815 85.125
0.99999815 1.0000018 84.125
-0.99999815 -1.0000018 86.125
-2.999998 -1.0000055 85.125
-3.000002 0.9999945 85.125
-2.999998 -1.0000055 86.125
-3.000002 0.9999945 86.125
1.0000019 -0.9999981 87.125
-0.9999981 -1.0000019 87.125
-1.0000019 0.9999981 86.125
-1.0000019 0.9999981 88.125
0.9999981 1.0000019 88.125
1.0000056 -2.999998 87.125
-0.99999434 -3.000002 87.125
1.0000056 -2.999998 88.125
-0.99999434 -3.000002 88.125
4 1 0 2 3
4 13 6 10 9
4 8 7 9 10
4 2 0 7 8
12 294 315 316 310 313 311 307 293 286 292 296 298
4 21 14 18 17
4 16 15 17 18
4 12 11 15 16
8 340 344 346 349 350 351 341 334
4 28 29 25 24
4 23 22 24 25
4 20 19 22 23
12 253 266 267 268 264 262 259 245 244 243 247 249
12 196 197 191 194 192 187 166 167 173 177 179 174
4 31 30 35 34
4 33 32 34 35
4 27 26 32 33
4 39 38 43 42
4 41 40 42 43
4 37 36 40 41
12 317 331 332 333 329 327 322 309 302 308 312 314
4 46 53 50 49
4 48 47 49 50
4 45 44 47 48
12 75 76 77 73 71 67 53 46 52 55 57 61
4 60 61 57 56
12 44 45 39 42 40 36 14 21 20 23 25 29
4 55 54 56 57
4 52 51 54 55
12 163 164 158 161 159 156 134 135 141 144 146 142
4 69 62 66 65
4 64 63 65 66
4 59 58 63 64
4 77 70 74 73
4 72 71 73 74
4 68 67 71 72
4 351 350 355 354
4 85 78 82 81
4 80 79 81 82
4 76 75 79 80
4 86 93 90 89
4 88 87 89 90
4 84 83 87 88
4 95 94 99 98
12 83 84 85 81 79 75 61 60 59 64 66 62
4 97 96 98 99
4 92 91 96 97
12 156 157 151 154 152 147 126 133 132 137 139 134
4 103 102 107 106
12 126 147 148 149 145 143 140 125 124 123 128 130
4 105 104 106 107
4 101 100 104 105
8 13 9 7 0 1 4 11 12
4 111 110 115 114
12 283 284 278 281 279 275 261 254 260 263 265 269
12 86 89 87 83 62 69 68 72 74 70 91 92
4 113 112 114 115
4 109 108 112 113
12 45 48 50 53 67 68 69 65 63 58 38 39
12 167 170 168 163 142 149 148 153 155 150 172 173
12 299 300 301 297 295 291 277 270 276 280 282 285
4 124 125 121 120
4 119 118 120 121
4 117 116 118 119
12 222 242 243 244 240 238 236 221 220 219 225 227
12 78 100 101 95 98 96 91 70 77 76 80 82
12 125 140 141 135 138 136 131 110 111 117 119 121
4 133 126 130 129
4 128 127 129 130
4 123 122 127 128
12 165 158 164 169 171 166 187 188 189 185 183 180
12 30 51 52 46 49 47 44 29 28 27 33 35
4 135 134 139 138
4 137 136 138 139
4 132 131 136 137
4 149 142 146 145
4 144 143 145 146
4 141 140 143 144
4 151 150 155 154
4 153 152 154 155
4 148 147 152 153
4 158 165 162 161
4 160 159 161 162
4 157 156 159 160
10 332 336 338 341 351 354 352 347 326 333
4 167 166 171 170
4 169 168 170 171
4 164 163 168 169
4 175 174 179 178
4 177 176 178 179
4 173 172 176 177
4 189 182 186 185
4 184 183 185 186
4 181 180 183 184
12 165 180 181 175 178 176 172 150 151 157 160 162
4 191 190 195 194
4 193 192 194 195
4 188 187 192 193
6 348 353 355 350 349 342
4 205 198 202 201
12 211 212 206 209 207 203 182 189 188 193 195 190
4 200 199 201 202
4 197 196 199 200
12 102 122 123 124 120 118 116 94 95 101 105 107
12 294 301 300 304 306 309 322 323 324 320 318 315
4 206 213 210 209
4 208 207 209 210
4 204 203 207 208
12 228 229 223 226 224 218 198 205 204 208 210 213
12 196 174 175 181 184 186 182 203 204 205 201 199
4 220 221 217 216
4 215 214 216 217
4 212 211 214 215
12 229 233 235 230 250 251 252 248 246 242 222 223
12 58 59 60 56 54 51 30 31 37 41 43 38
12 253 252 251 256 258 261 275 276 270 273 271 266
4 223 222 227 226
4 225 224 226 227
4 219 218 224 225
12 5 3 2 8 10 6 26 27 28 24 22 19
8 19 20 21 17 15 11 4 5
12 108 109 103 106 104 100 78 85 84 88 90 93
4 231 230 235 234
4 233 232 234 235
4 229 228 232 233
4 244 245 241 240
4 239 238 240 241
4 237 236 238 239
12 14 36 37 31 34 32 26 6 13 12 16 18
4 252 253 249 248
4 247 246 248 249
4 243 242 246 247
12 254 257 255 250 230 231 237 239 241 245 259 260
4 254 261 258 257
4 256 255 257 258
4 251 250 255 256
12 220 216 214 211 190 191 197 200 202 198 218 219
4 268 269 265 264
4 263 262 264 265
4 260 259 262 263
12 293 307 308 302 305 303 299 285 278 284 288 290
4 270 277 274 273
4 272 271 273 274
4 267 266 271 272
4 278 285 282 281
4 280 279 281 282
4 276 275 279 280
4 286 293 290 289
4 288 287 289 290
4 284 283 287 288
12 111 114 112 108 93 86 92 97 99 94 116 117
12 231 234 232 228 213 206 212 215 217 221 236 237
12 286 289 287 283 269 268 267 272 274 277 291 292
4 301 294 298 297
4 296 295 297 298
4 292 291 295 296
4 302 309 306 305
4 304 303 305 306
4 300 299 303 304
4 310 317 314 313
4 312 311 313 314
4 308 307 311 312
4 324 325 321 320
4 319 318 320 321
4 316 315 318 319
4 333 326 330 329
4 328 327 329 330
4 323 322 327 328
12 339 340 334 337 335 331 317 310 316 319 321 325
4 334 341 338 337
4 336 335 337 338
4 332 331 335 336
12 110 131 132 133 129 127 122 102 103 109 113 115
4 342 349 346 345
4 344 343 345 346
4 340 339 343 344
12 342 345 343 339 325 324 323 328 330 326 347 348
4 353 352 354 355
4 348 347 352 353
4 4 1 3 5
