ply
format ascii 1.0
comment Created in Blender version 4.0.2
element vertex 36
property float x
property float y
property float z
element face 20
property list uchar uint vertex_indices
end_header
1 1 1.125
1 1 0.125
1 -1 1.125
1 -1 0.125
-1 1 0.125
-1 -1 0.125
1 -1 2.125
3 1 1.125
3 -1 1.125
3 1 2.125
3 -1 2.125
-1 0.99999994 3.125
0.99999994 1 3.125
0.99999994 1 2.125
0.99999994 1 4.125
-1 0.99999994 4.125
-1.0000001 3 3.125
0.9999999 3 3.125
-1.0000001 3 4.125
0.9999999 3 4.125
-0.99999994 -1.0000001 5.125
-1.0000001 0.99999994 5.125
-1.0000001 0.99999994 6.125
-0.99999994 -1.0000001 6.125
-3 -1.0000002 5.125
-3 0.99999976 5.125
-3 -1.0000002 6.125
-3 0.99999976 6.125
1.0000001 -0.9999999 7.125
-0.9999999 -1.0000001 7.125
-1.0000001 0.9999999 8.125
0.9999999 1.0000001 8.125
1.0000004 -2.9999998 7.125
-0.9999996 -3.0000002 7.125
1.0000004 -2.9999998 8.125
-0.9999996 -3.0000002 8.125
8 22 30 31 14 15 21 25 27
4 1 0 2 3
12 6 28 29 23 26 24 20 5 3 2 8 10
4 13 6 10 9
6 29 33 35 30 22 23
4 8 7 9 10
4 2 0 7 8
4 15 14 19 18
4 17 16 18 19
4 12 11 16 17
10 31 34 32 28 6 13 12 17 19 14
4 23 22 27 26
4 25 24 26 27
4 21 20 24 25
8 5 20 21 15 18 16 11 4
8 13 9 7 0 1 4 11 12
4 31 30 35 34
4 33 32 34 35
4 29 28 32 33
4 4 1 3 5
