ply
format ascii 1.0
comment Created in Blender version 4.0.2
element vertex 644
property float x
property float y
property float z
element face 324
property list uchar uint vertex_indices
end_header
1 1 1.125
1 1 0.125
1 -1 1.125
1 -1 0.125
-1 1 0.125
-1 -1 0.125
1 -1 2.125
1 1 2.125
3 1 1.125
3 -1 1.125
3 1 2.125
3 -1 2.125
-1 0.99999994 3.125
0.99999994 1 3.125
0.99999994 1 4.125
-1 0.99999994 4.125
-1.0000001 3 3.125
0.9999999 3 3.125
-1.0000001 3 4.125
0.9999999 3 4.125
-0.99999994 -1.0000001 5.125
-1.0000001 0.99999994 5.125
-1.0000001 0.99999994 6.125
-0.99999994 -1.0000001 6.125
-3 -1.0000002 5.125
-3 0.99999976 5.125
-3 -1.0000002 6.125
-3 0.99999976 6.125
1.0000001 -0.9999999 7.125
-0.9999999 -1.0000001 7.125
1.0000001 -0.9999999 8.125
1.0000004 -2.9999998 7.125
-0.9999996 -3.0000002 7.125
1.0000004 -2.9999998 8.125
-0.9999996 -3.0000002 8.125
0.9999998 1.0000001 9.125
1.0000001 -0.9999998 9.125
-0.9999998 -1.0000001 8.125
1.0000001 -0.9999998 10.125
2.9999998 1.0000005 9.125
3.0000002 -0.99999946 9.125
2.9999998 1.0000005 10.125
3.0000002 -0.99999946 10.125
-1.0000002 0.99999976 11.125
0.99999976 1.0000002 11.125
0.99999976 1.0000002 10.125
0.99999976 1.0000002 12.125
-1.0000002 0.99999976 12.125
-1.0000007 2.9999998 11.125
0.99999934 3.0000002 11.125
-1.0000007 2.9999998 12.125
0.99999934 3.0000002 12.125
-0.99999976 -1.0000002 13.125
-1.0000002 0.99999976 13.125
-2.9999998 -1.0000008 13.125
-3.0000002 0.9999992 13.125
-2.9999998 -1.0000008 14.125
-3.0000002 0.9999992 14.125
1.0000004 -0.9999997 15.125
-0.9999997 -1.0000004 15.125
-0.9999997 -1.0000004 14.125
-1.0000004 0.9999997 14.125
-0.9999997 -1.0000004 16.125
1.0000004 -0.9999997 16.125
1.000001 -2.9999998 15.125
-0.9999991 -3.0000002 15.125
1.000001 -2.9999998 16.125
-0.9999991 -3.0000002 16.125
0.99999964 1.0000004 17.125
1.0000004 -0.99999964 17.125
1.0000004 -0.99999964 18.125
2.9999998 1.0000011 17.125
3.0000002 -0.9999989 17.125
2.9999998 1.0000011 18.125
3.0000002 -0.9999989 18.125
-1.0000004 0.9999996 19.125
0.9999996 1.0000004 19.125
0.9999996 1.0000004 18.125
0.9999996 1.0000004 20.125
-1.0000012 2.9999995 19.125
0.9999988 3.0000005 19.125
-1.0000012 2.9999995 20.125
0.9999988 3.0000005 20.125
-0.9999996 -1.0000005 21.125
-1.0000005 0.9999996 21.125
-1.0000005 0.9999996 20.125
-2.9999995 -1.0000013 21.125
-3.0000005 0.9999987 21.125
-2.9999995 -1.0000013 22.125
-3.0000005 0.9999987 22.125
1.0000005 -0.9999995 23.125
-0.9999995 -1.0000005 23.125
-0.9999995 -1.0000005 22.125
-1.0000005 0.9999995 22.125
-0.9999995 -1.0000005 24.125
1.0000005 -0.9999995 24.125
1.0000014 -2.9999995 23.125
-0.99999857 -3.0000005 23.125
1.0000014 -2.9999995 24.125
-0.99999857 -3.0000005 24.125
0.99999946 1.0000005 25.125
1.0000005 -0.99999946 25.125
1.0000005 -0.99999946 26.125
2.9999995 1.0000015 25.125
3.0000005 -0.99999845 25.125
2.9999995 1.0000015 26.125
3.0000005 -0.99999845 26.125
-1.0000006 0.9999994 27.125
0.9999994 1.0000006 27.125
0.9999994 1.0000006 26.125
-1.0000017 2.9999995 27.125
0.9999983 3.0000005 27.125
-1.0000017 2.9999995 28.125
0.9999983 3.0000005 28.125
-0.9999994 -1.0000006 29.125
-1.0000006 0.9999994 29.125
-1.0000006 0.9999994 28.125
0.9999994 1.0000006 28.125
-0.9999994 -1.0000006 30.125
-2.9999993 -1.0000018 29.125
-3.0000007 0.99999815 29.125
-2.9999993 -1.0000018 30.125
-3.0000007 0.99999815 30.125
1.0000007 -0.99999934 31.125
-0.99999934 -1.0000007 31.125
-1.0000007 0.99999934 30.125
-0.99999934 -1.0000007 32.125
1.0000007 -0.99999934 32.125
1.000002 -2.9999993 31.125
-0.99999803 -3.0000007 31.125
1.000002 -2.9999993 32.125
-0.99999803 -3.0000007 32.125
0.9999993 1.0000007 33.125
1.0000007 -0.9999993 33.125
2.9999993 1.0000021 33.125
3.0000007 -0.9999979 33.125
2.9999993 1.0000021 34.125
3.0000007 -0.9999979 34.125
-1.0000007 0.9999993 35.125
0.9999993 1.0000007 35.125
0.9999993 1.0000007 34.125
1.0000007 -0.9999993 34.125
-1.0000023 2.9999993 35.125
0.9999978 3.0000007 35.125
-1.0000023 2.9999993 36.125
0.9999978 3.0000007 36.125
-0.9999992 -1.0000008 37.125
-1.0000008 0.9999992 37.125
-1.0000008 0.9999992 36.125
0.9999992 1.0000008 36.125
-1.0000008 0.9999992 38.125
-2.9999993 -1.0000024 37.125
-3.0000007 0.9999976 37.125
-2.9999993 -1.0000024 38.125
-3.0000007 0.9999976 38.125
1.0000008 -0.99999917 39.125
-0.99999917 -1.0000008 39.125
-0.99999917 -1.0000008 38.125
-0.99999917 -1.0000008 40.125
1.0000008 -0.99999917 40.125
1.0000025 -2.9999993 39.125
-0.9999975 -3.0000007 39.125
1.0000025 -2.9999993 40.125
-0.9999975 -3.0000007 40.125
0.9999991 1.0000008 41.125
1.0000008 -0.9999991 41.125
1.0000008 -0.9999991 42.125
2.999999 1.0000026 41.125
3.000001 -0.9999974 41.125
2.999999 1.0000026 42.125
3.000001 -0.9999974 42.125
-1.000001 0.9999991 43.125
0.9999991 1.000001 43.125
0.9999991 1.000001 42.125
-1.0000027 2.999999 43.125
0.99999726 3.000001 43.125
-1.0000027 2.999999 44.125
0.99999726 3.000001 44.125
-0.99999905 -1.000001 45.125
-1.000001 0.99999905 45.125
-1.000001 0.99999905 44.125
0.99999905 1.000001 44.125
-0.99999905 -1.000001 46.125
-2.999999 -1.0000029 45.125
-3.000001 0.99999714 45.125
-2.999999 -1.0000029 46.125
-3.000001 0.99999714 46.125
1.000001 -0.999999 47.125
-0.999999 -1.000001 47.125
-1.000001 0.999999 46.125
1.000001 -0.999999 48.125
1.000003 -2.999999 47.125
-0.99999696 -3.000001 47.125
1.000003 -2.999999 48.125
-0.99999696 -3.000001 48.125
0.9999989 1.0000011 49.125
1.0000011 -0.9999989 49.125
-0.9999989 -1.0000011 48.125
1.0000011 -0.9999989 50.125
0.9999989 1.0000011 50.125
2.999999 1.0000031 49.125
3.000001 -0.99999684 49.125
2.999999 1.0000031 50.125
3.000001 -0.99999684 50.125
-1.0000011 0.9999989 51.125
0.9999989 1.0000011 51.125
-1.0000033 2.9999988 51.125
0.9999967 3.0000012 51.125
-1.0000033 2.9999988 52.125
0.9999967 3.0000012 52.125
-0.99999887 -1.0000012 53.125
-1.0000012 0.99999887 53.125
-1.0000012 0.99999887 52.125
0.99999887 1.0000012 52.125
-2.9999988 -1.0000035 53.125
-3.0000012 0.9999966 53.125
-2.9999988 -1.0000035 54.125
-3.0000012 0.9999966 54.125
1.0000012 -0.9999988 55.125
-0.9999988 -1.0000012 55.125
-0.9999988 -1.0000012 54.125
-1.0000012 0.9999988 54.125
-0.9999988 -1.0000012 56.125
1.0000012 -0.9999988 56.125
1.0000036 -2.9999988 55.125
-0.9999965 -3.0000012 55.125
1.0000036 -2.9999988 56.125
-0.9999965 -3.0000012 56.125
0.99999875 1.0000012 57.125
1.0000012 -0.99999875 57.125
1.0000012 -0.99999875 58.125
2.9999988 1.0000037 57.125
3.0000012 -0.9999963 57.125
2.9999988 1.0000037 58.125
3.0000012 -0.9999963 58.125
-1.0000013 0.99999875 59.125
0.99999875 1.0000013 59.125
0.99999875 1.0000013 58.125
-1.0000013 0.99999875 60.125
-1.0000038 2.9999988 59.125
0.9999962 3.0000012 59.125
-1.0000038 2.9999988 60.125
0.9999962 3.0000012 60.125
-0.9999987 -1.0000013 61.125
-1.0000013 0.9999987 61.125
0.9999987 1.0000013 60.125
-2.9999986 -1.0000039 61.125
-3.0000014 0.99999607 61.125
-2.9999986 -1.0000039 62.125
-3.0000014 0.99999607 62.125
1.0000013 -0.9999986 63.125
-0.9999986 -1.0000013 63.125
-0.9999986 -1.0000013 62.125
-1.0000013 0.9999986 62.125
1.0000013 -0.9999986 64.125
1.000004 -2.9999986 63.125
-0.99999595 -3.0000014 63.125
1.000004 -2.9999986 64.125
-0.99999595 -3.0000014 64.125
0.9999986 1.0000014 65.125
1.0000014 -0.9999986 65.125
-0.9999986 -1.0000014 64.125
1.0000014 -0.9999986 66.125
0.9999986 1.0000014 66.125
2.9999986 1.0000042 65.125
3.0000014 -0.9999958 65.125
2.9999986 1.0000042 66.125
3.0000014 -0.9999958 66.125
-1.0000014 0.99999857 67.125
0.99999857 1.0000014 67.125
0.99999857 1.0000014 68.125
-1.0000014 0.99999857 68.125
-1.0000043 2.9999986 67.125
0.99999565 3.0000014 67.125
-1.0000043 2.9999986 68.125
0.99999565 3.0000014 68.125
-0.9999985 -1.0000014 69.125
-1.0000014 0.9999985 69.125
-2.9999986 -1.0000044 69.125
-3.0000014 0.9999955 69.125
-2.9999986 -1.0000044 70.125
-3.0000014 0.9999955 70.125
1.0000015 -0.99999845 71.125
-0.99999845 -1.0000015 71.125
-0.99999845 -1.0000015 70.125
-1.0000015 0.99999845 70.125
1.0000046 -2.9999986 71.125
-0.9999954 -3.0000014 71.125
1.0000046 -2.9999986 72.125
-0.9999954 -3.0000014 72.125
0.99999845 1.0000015 73.125
1.0000015 -0.99999845 73.125
1.0000015 -0.99999845 72.125
-0.99999845 -1.0000015 72.125
1.0000015 -0.99999845 74.125
2.9999983 1.0000048 73.125
3.0000017 -0.9999953 73.125
2.9999983 1.0000048 74.125
3.0000017 -0.9999953 74.125
-1.0000017 0.9999984 75.125
0.9999984 1.0000017 75.125
0.9999984 1.0000017 74.125
-1.0000017 0.9999984 76.125
-1.0000049 2.9999983 75.125
0.9999952 3.0000017 75.125
-1.0000049 2.9999983 76.125
0.9999952 3.0000017 76.125
-0.99999833 -1.0000017 77.125
-1.0000017 0.99999833 77.125
0.99999833 1.0000017 76.125
-0.99999833 -1.0000017 78.125
-2.9999983 -1.000005 77.125
-3.0000017 0.999995 77.125
-2.9999983 -1.000005 78.125
-3.0000017 0.999995 78.125
1.0000017 -0.9999983 79.125
-0.9999983 -1.0000017 79.125
-1.0000017 0.9999983 78.125
-0.9999983 -1.0000017 80.125
1.0000017 -0.9999983 80.125
1.0000051 -2.9999983 79.125
-0.9999949 -3.0000017 79.125
1.0000051 -2.9999983 80.125
-0.9999949 -3.0000017 80.125
0.9999983 1.0000018 81.125
1.0000018 -0.9999983 81.125
2.9999983 1.0000052 81.125
3.0000017 -0.99999475 81.125
2.9999983 1.0000052 82.125
3.0000017 -0.99999475 82.125
-1.0000018 0.9999982 83.125
0.9999982 1.0000018 83.125
0.9999982 1.0000018 82.125
1.0000018 -0.9999982 82.125
-1.0000054 2.999998 83.125
0.99999464 3.000002 83.125
-1.0000054 2.999998 84.125
0.99999464 3.000002 84.125
-0.99999815 -1.0000018 85.125
-1.0000018 0.99999815 85.125
-1.0000018 0.99999815 84.125
0.99999815 1.0000018 84.125
-0.99999815 -1.0000018 86.125
-2.999998 -1.0000055 85.125
-3.000002 0.9999945 85.125
-2.999998 -1.0000055 86.125
-3.000002 0.9999945 86.125
1.0000019 -0.9999981 87.125
-0.9999981 -1.0000019 87.125
-1.0000019 0.9999981 86.125
-0.9999981 -1.0000019 88.125
1.0000019 -0.9999981 88.125
1.0000056 -2.999998 87.125
-0.99999434 -3.000002 87.125
1.0000056 -2.999998 88.125
-0.99999434 -3.000002 88.125
0.9999981 1.0000019 89.125
1.0000019 -0.9999981 89.125
1.0000019 -0.9999981 90.125
0.9999981 1.0000019 90.125
2.999998 1.0000057 89.125
3.000002 -0.9999942 89.125
2.999998 1.0000057 90.125
3.000002 -0.9999942 90.125
-1.000002 0.99999803 91.125
0.99999803 1.000002 91.125
0.99999803 1.000002 92.125
-1.000006 2.999998 91.125
0.9999941 3.000002 91.125
-1.000006 2.999998 92.125
0.9999941 3.000002 92.125
-0.999998 -1.000002 93.125
-1.000002 0.999998 93.125
-1.000002 0.999998 92.125
-1.000002 0.999998 94.125
-0.999998 -1.000002 94.125
-2.999998 -1.0000061 93.125
-3.000002 0.999994 93.125
-2.999998 -1.0000061 94.125
-3.000002 0.999994 94.125
1.000002 -0.999998 95.125
-0.999998 -1.000002 95.125
1.000002 -0.999998 96.125
1.0000062 -2.9999979 95.125
-0.99999386 -3.0000021 95.125
1.0000062 -2.9999979 96.125
-0.99999386 -3.0000021 96.125
0.9999979 1.0000021 97.125
1.0000021 -0.9999979 97.125
-0.9999979 -1.0000021 96.125
1.0000021 -0.9999979 98.125
0.9999979 1.0000021 98.125
2.9999979 1.0000063 97.125
3.0000021 -0.9999937 97.125
2.9999979 1.0000063 98.125
3.0000021 -0.9999937 98.125
-1.0000021 0.99999785 99.125
0.99999785 1.0000021 99.125
-1.0000021 0.99999785 100.125
-1.0000064 2.9999979 99.125
0.99999356 3.0000021 99.125
-1.0000064 2.9999979 100.125
0.99999356 3.0000021 100.125
-0.9999978 -1.0000021 101.125
-1.0000021 0.9999978 101.125
0.9999978 1.0000021 100.125
-1.0000021 0.9999978 102.125
-2.9999979 -1.0000066 101.125
-3.0000021 0.99999344 101.125
-2.9999979 -1.0000066 102.125
-3.0000021 0.99999344 102.125
1.0000023 -0.9999978 103.125
-0.9999978 -1.0000023 103.125
-0.9999978 -1.0000023 102.125
-0.9999978 -1.0000023 104.125
1.0000023 -0.9999978 104.125
1.0000067 -2.9999979 103.125
-0.9999933 -3.0000021 103.125
1.0000067 -2.9999979 104.125
-0.9999933 -3.0000021 104.125
0.99999774 1.0000023 105.125
1.0000023 -0.99999774 105.125
1.0000023 -0.99999774 106.125
0.99999774 1.0000023 106.125
2.9999976 1.0000068 105.125
3.0000024 -0.9999932 105.125
2.9999976 1.0000068 106.125
3.0000024 -0.9999932 106.125
-1.0000023 0.9999977 107.125
0.9999977 1.0000023 107.125
0.9999977 1.0000023 108.125
-1.0000069 2.9999976 107.125
0.999993 3.0000024 107.125
-1.0000069 2.9999976 108.125
0.999993 3.0000024 108.125
-0.9999976 -1.0000024 109.125
-1.0000024 0.9999976 109.125
-1.0000024 0.9999976 108.125
-2.9999976 -1.000007 109.125
-3.0000024 0.9999929 109.125
-2.9999976 -1.000007 110.125
-3.0000024 0.9999929 110.125
1.0000024 -0.9999976 111.125
-0.9999976 -1.0000024 111.125
-0.9999976 -1.0000024 110.125
-1.0000024 0.9999976 110.125
1.0000024 -0.9999976 112.125
1.0000073 -2.9999976 111.125
-0.9999928 -3.0000024 111.125
1.0000073 -2.9999976 112.125
-0.9999928 -3.0000024 112.125
0.99999756 1.0000025 113.125
1.0000025 -0.99999756 113.125
-0.99999756 -1.0000025 112.125
2.9999976 1.0000074 113.125
3.0000024 -0.99999267 113.125
2.9999976 1.0000074 114.125
3.0000024 -0.99999267 114.125
-1.0000025 0.9999975 115.125
0.9999975 1.0000025 115.125
0.9999975 1.0000025 114.125
1.0000025 -0.9999975 114.125
-1.0000075 2.9999976 115.125
0.99999255 3.0000024 115.125
-1.0000075 2.9999976 116.125
0.99999255 3.0000024 116.125
-0.99999744 -1.0000025 117.125
-1.0000025 0.99999744 117.125
-1.0000025 0.99999744 116.125
0.99999744 1.0000025 116.125
-2.9999974 -1.0000076 117.125
-3.0000026 0.9999924 117.125
-2.9999974 -1.0000076 118.125
-3.0000026 0.9999924 118.125
1.0000026 -0.99999744 119.125
-0.99999744 -1.0000026 119.125
-0.99999744 -1.0000026 118.125
-1.0000026 0.99999744 118.125
-0.99999744 -1.0000026 120.125
1.0000026 -0.99999744 120.125
1.0000077 -2.9999974 119.125
-0.99999225 -3.0000026 119.125
1.0000077 -2.9999974 120.125
-0.99999225 -3.0000026 120.125
0.9999974 1.0000026 121.125
1.0000026 -0.9999974 121.125
1.0000026 -0.9999974 122.125
0.9999974 1.0000026 122.125
2.9999974 1.0000079 121.125
3.0000026 -0.99999213 121.125
2.9999974 1.0000079 122.125
3.0000026 -0.99999213 122.125
-1.0000026 0.9999973 123.125
0.9999973 1.0000026 123.125
0.9999973 1.0000026 124.125
-1.000008 2.9999974 123.125
0.999992 3.0000026 123.125
-1.000008 2.9999974 124.125
0.999992 3.0000026 124.125
-0.9999973 -1.0000027 125.125
-1.0000027 0.9999973 125.125
-1.0000027 0.9999973 124.125
-1.0000027 0.9999973 126.125
-0.9999973 -1.0000027 126.125
-2.9999974 -1.0000081 125.125
-3.0000026 0.9999919 125.125
-2.9999974 -1.0000081 126.125
-3.0000026 0.9999919 126.125
1.0000027 -0.99999726 127.125
-0.99999726 -1.0000027 127.125
-0.99999726 -1.0000027 128.125
1.0000027 -0.99999726 128.125
1.0000082 -2.9999971 127.125
-0.9999917 -3.0000029 127.125
1.0000082 -2.9999971 128.125
-0.9999917 -3.0000029 128.125
0.9999972 1.0000027 129.125
1.0000027 -0.9999972 129.125
1.0000027 -0.9999972 130.125
0.9999972 1.0000027 130.125
2.9999971 1.0000083 129.125
3.0000029 -0.9999916 129.125
2.9999971 1.0000083 130.125
3.0000029 -0.9999916 130.125
-1.0000029 0.99999714 131.125
0.99999714 1.0000029 131.125
0.99999714 1.0000029 132.125
-1.0000086 2.9999971 131.125
0.9999915 3.0000029 131.125
-1.0000086 2.9999971 132.125
0.9999915 3.0000029 132.125
-0.99999714 -1.0000029 133.125
-1.0000029 0.99999714 133.125
-1.0000029 0.99999714 132.125
-2.9999971 -1.0000087 133.125
-3.0000029 0.99999136 133.125
-2.9999971 -1.0000087 134.125
-3.0000029 0.99999136 134.125
1.000003 -0.9999971 135.125
-0.9999971 -1.000003 135.125
-0.9999971 -1.000003 134.125
-1.000003 0.9999971 134.125
-0.9999971 -1.000003 136.125
1.000003 -0.9999971 136.125
1.0000088 -2.9999971 135.125
-0.99999124 -3.0000029 135.125
1.0000088 -2.9999971 136.125
-0.99999124 -3.0000029 136.125
0.999997 1.000003 137.125
1.000003 -0.999997 137.125
0.999997 1.000003 138.125
2.9999971 1.000009 137.125
3.0000029 -0.99999106 137.125
2.9999971 1.000009 138.125
3.0000029 -0.99999106 138.125
-1.000003 0.99999696 139.125
0.99999696 1.000003 139.125
1.000003 -0.99999696 138.125
-1.000003 0.99999696 140.125
-1.0000091 2.999997 139.125
0.99999094 3.000003 139.125
-1.0000091 2.999997 140.125
0.99999094 3.000003 140.125
-0.99999696 -1.0000031 141.125
-1.0000031 0.99999696 141.125
0.99999696 1.0000031 140.125
-0.99999696 -1.0000031 142.125
-2.999997 -1.0000092 141.125
-3.000003 0.9999908 141.125
-2.999997 -1.0000092 142.125
-3.000003 0.9999908 142.125
1.0000031 -0.9999969 143.125
-0.9999969 -1.0000031 143.125
-1.0000031 0.9999969 142.125
1.0000093 -2.999997 143.125
-0.9999907 -3.000003 143.125
1.0000093 -2.999997 144.125
-0.9999907 -3.000003 144.125
0.99999684 1.0000031 145.125
1.0000031 -0.99999684 145.125
1.0000031 -0.99999684 144.125
-0.99999684 -1.0000031 144.125
1.0000031 -0.99999684 146.125
0.99999684 1.0000031 146.125
2.999997 1.0000094 145.125
3.000003 -0.9999906 145.125
2.999997 1.0000094 146.125
3.000003 -0.9999906 146.125
-1.0000032 0.9999968 147.125
0.9999968 1.0000032 147.125
-1.0000032 0.9999968 148.125
-1.0000095 2.999997 147.125
0.9999904 3.000003 147.125
-1.0000095 2.999997 148.125
0.9999904 3.000003 148.125
-0.9999968 -1.0000032 149.125
-1.0000032 0.9999968 149.125
0.9999968 1.0000032 148.125
-2.9999967 -1.0000097 149.125
-3.0000033 0.9999903 149.125
-2.9999967 -1.0000097 150.125
-3.0000033 0.9999903 150.125
1.0000033 -0.9999967 151.125
-0.9999967 -1.0000033 151.125
-0.9999967 -1.0000033 150.125
-1.0000033 0.9999967 150.125
-0.9999967 -1.0000033 152.125
1.0000033 -0.9999967 152.125
1.0000099 -2.9999967 151.125
-0.99999017 -3.0000033 151.125
1.0000099 -2.9999967 152.125
-0.99999017 -3.0000033 152.125
0.99999666 1.0000033 153.125
1.0000033 -0.99999666 153.125
2.9999967 1.00001 153.125
3.0000033 -0.99999005 153.125
2.9999967 1.00001 154.125
3.0000033 -0.99999005 154.125
-1.0000033 0.99999666 155.125
0.99999666 1.0000033 155.125
0.99999666 1.0000033 154.125
1.0000033 -0.99999666 154.125
-1.0000101 2.9999967 155.125
0.9999899 3.0000033 155.125
-1.0000101 2.9999967 156.125
0.9999899 3.0000033 156.125
-0.9999966 -1.0000035 157.125
-1.0000035 0.9999966 157.125
-1.0000035 0.9999966 156.125
0.9999966 1.0000035 156.125
-0.9999966 -1.0000035 158.125
-2.9999967 -1.0000103 157.125
-3.0000033 0.99998975 157.125
-2.9999967 -1.0000103 158.125
-3.0000033 0.99998975 158.125
1.0000035 -0.99999654 159.125
-0.99999654 -1.0000035 159.125
-1.0000035 0.99999654 158.125
-1.0000035 0.99999654 160.125
0.99999654 1.0000035 160.125
1.0000104 -2.9999967 159.125
-0.9999896 -3.0000033 159.125
1.0000104 -2.9999967 160.125
-0.9999896 -3.0000033 160.125
4 1 0 2 3
4 7 6 11 10
4 9 8 10 11
4 2 0 8 9
12 158 178 179 180 176 174 171 150 157 156 161 163
6 638 637 630 636 641 643
4 15 14 19 18
4 17 16 18 19
4 13 12 16 17
4 23 22 27 26
4 25 24 26 27
4 21 20 24 25
12 35 36 30 33 31 28 6 7 13 17 19 14
12 46 68 69 63 66 64 58 38 45 44 49 51
4 30 37 34 33
4 32 31 33 34
4 29 28 31 32
4 639 638 643 642
4 45 38 42 41
12 75 76 77 73 71 68 46 47 53 55 57 61
4 40 39 41 42
4 36 35 39 40
8 7 10 8 0 1 4 12 13
4 47 46 51 50
4 49 48 50 51
4 44 43 48 49
12 422 442 443 444 440 438 435 414 415 421 425 427
4 60 61 57 56
4 55 54 56 57
4 53 52 54 55
4 63 62 67 66
4 65 64 66 67
4 59 58 64 65
4 77 70 74 73
4 72 71 73 74
4 69 68 71 72
4 85 78 82 81
4 80 79 81 82
4 76 75 79 80
4 92 93 89 88
4 87 86 88 89
4 84 83 86 87
12 83 84 85 81 79 75 61 60 59 65 67 62
4 95 94 99 98
12 293 307 308 302 305 303 299 285 284 283 287 289
4 97 96 98 99
4 91 90 96 97
12 390 411 412 413 409 407 403 389 382 388 393 395
12 259 260 254 257 255 250 230 237 236 240 242 245
4 109 102 106 105
4 104 103 105 106
4 101 100 103 104
12 499 500 501 497 495 492 477 476 475 481 483 478
12 565 578 579 580 576 574 571 557 550 556 560 562
4 116 117 113 112
4 111 110 112 113
4 108 107 110 111
12 70 90 91 92 88 86 83 62 63 69 72 74
12 171 172 173 169 167 164 149 148 147 152 154 150
4 118 125 122 121
4 120 119 121 122
4 115 114 119 120
4 127 126 131 130
4 129 128 130 131
4 124 123 128 129
4 140 141 137 136
4 135 134 136 137
4 133 132 134 135
4 148 149 145 144
4 143 142 144 145
4 139 138 142 143
4 157 150 154 153
4 152 151 153 154
4 147 146 151 152
12 149 164 165 159 162 160 155 141 140 139 143 145
4 159 158 163 162
4 161 160 162 163
4 156 155 160 161
4 173 166 170 169
4 168 167 169 170
4 165 164 167 168
4 180 181 177 176
4 175 174 176 177
4 172 171 174 175
4 182 189 186 185
12 583 586 584 578 565 558 564 568 570 573 588 589
4 184 183 185 186
4 179 178 183 184
12 263 266 264 259 245 238 244 247 249 253 268 269
12 290 291 292 288 286 282 262 263 269 273 275 270
4 190 197 194 193
12 349 364 365 359 362 360 356 341 340 339 344 346
4 192 191 193 194
4 188 187 191 192
12 341 356 357 351 354 352 347 333 332 331 335 337
4 199 198 203 202
4 201 200 202 203
4 196 195 200 201
12 205 207 209 213 228 229 223 226 224 218 198 199
4 212 213 209 208
4 207 206 208 209
4 205 204 206 207
4 220 221 217 216
4 215 214 216 217
4 211 210 214 215
12 125 138 139 140 136 134 132 117 116 115 120 122
12 558 561 559 555 541 540 539 545 547 542 563 564
12 607 610 608 602 582 583 589 592 594 597 612 613
4 223 222 227 226
12 396 397 391 394 392 387 366 373 372 377 379 374
4 225 224 226 227
4 219 218 224 225
12 198 218 219 220 216 214 210 197 190 196 201 203
12 211 215 217 221 235 236 237 233 231 228 213 212
12 451 452 446 449 447 442 422 423 429 432 434 430
4 237 230 234 233
4 232 231 233 234
4 229 228 231 232
12 28 29 23 26 24 20 5 3 2 9 11 6
4 238 245 242 241
4 240 239 241 242
4 236 235 239 240
4 252 253 249 248
4 247 246 248 249
4 244 243 246 247
12 107 108 109 105 103 100 78 85 84 87 89 93
4 254 261 258 257
4 256 255 257 258
4 251 250 255 256
12 282 283 284 280 278 276 261 254 260 265 267 262
4 263 262 267 266
4 265 264 266 267
4 260 259 264 265
4 271 270 275 274
4 273 272 274 275
4 269 268 272 273
12 187 188 182 185 183 178 158 159 165 168 170 166
4 284 285 281 280
4 279 278 280 281
4 277 276 278 279
12 253 252 251 256 258 261 276 277 271 274 272 268
4 292 293 289 288
4 287 286 288 289
4 283 282 286 287
12 310 313 311 307 293 292 291 296 298 294 315 316
4 301 294 298 297
4 296 295 297 298
4 291 290 295 296
12 126 146 147 148 144 142 138 125 118 124 129 131
4 302 309 306 305
4 304 303 305 306
4 300 299 303 304
12 294 301 300 304 306 309 324 325 319 322 320 315
4 310 317 314 313
4 312 311 313 314
4 308 307 311 312
12 290 270 271 277 279 281 285 299 300 301 297 295
4 319 318 323 322
4 321 320 322 323
4 316 315 320 321
12 58 59 60 56 54 52 37 30 36 40 42 38
4 332 333 329 328
4 327 326 328 329
4 325 324 326 327
12 626 606 607 613 615 617 621 635 636 630 633 631
4 340 341 337 336
4 335 334 336 337
4 331 330 334 335
12 181 195 196 190 193 191 187 166 173 172 175 177
12 476 472 470 466 453 446 452 455 457 461 474 475
4 342 349 346 345
4 344 343 345 346
4 339 338 343 344
12 318 338 339 340 336 334 330 317 310 316 321 323
12 141 155 156 157 153 151 146 126 127 133 135 137
8 5 20 21 15 18 16 12 4
4 351 350 355 354
4 353 352 354 355
4 348 347 352 353
4 359 358 363 362
4 361 360 362 363
4 357 356 360 361
4 373 366 370 369
4 368 367 369 370
4 365 364 367 368
4 375 374 379 378
4 377 376 378 379
4 372 371 376 377
8 637 638 639 629 628 627 632 634
4 382 389 386 385
4 384 383 385 386
4 381 380 383 384
12 349 342 348 353 355 350 371 372 373 369 367 364
12 317 330 331 332 328 326 324 309 302 308 312 314
12 333 347 348 342 345 343 338 318 319 325 327 329
4 391 390 395 394
4 393 392 394 395
4 388 387 392 393
12 382 385 383 380 358 359 365 368 370 366 387 388
12 358 380 381 375 378 376 371 350 351 357 361 363
4 398 405 402 401
4 400 399 401 402
4 397 396 399 400
12 389 403 404 398 401 399 396 374 375 381 384 386
12 415 418 416 411 390 391 397 400 402 405 420 421
12 189 204 205 199 202 200 195 181 180 179 184 186
4 413 406 410 409
4 408 407 409 410
4 404 403 407 408
4 415 414 419 418
12 459 463 465 469 484 485 479 482 480 474 461 460
4 417 416 418 419
4 412 411 416 417
12 127 130 128 123 102 109 108 111 113 117 132 133
12 516 517 511 514 512 508 486 487 493 496 498 494
12 519 522 520 516 494 501 500 505 507 502 524 525
12 94 114 115 116 112 110 107 93 92 91 97 99
4 423 422 427 426
4 425 424 426 427
4 421 420 424 425
12 518 538 539 540 536 534 531 510 511 517 521 523
12 543 546 544 538 518 519 525 528 530 526 548 549
12 406 428 429 423 426 424 420 405 398 404 408 410
4 437 430 434 433
4 432 431 433 434
4 429 428 431 432
12 43 44 45 41 39 35 14 15 21 25 27 22
4 444 445 441 440
4 439 438 440 441
4 436 435 438 439
4 446 453 450 449
4 448 447 449 450
4 443 442 447 448
12 123 124 118 121 119 114 94 95 101 104 106 102
12 460 456 454 451 430 437 436 439 441 445 458 459
12 210 211 212 208 206 204 189 182 188 192 194 197
4 460 461 457 456
12 90 70 77 76 80 82 78 100 101 95 98 96
4 455 454 456 457
4 452 451 454 455
4 468 469 465 464
4 463 462 464 465
4 459 458 462 463
12 222 243 244 238 241 239 235 221 220 219 225 227
12 487 490 488 484 469 468 467 471 473 477 492 493
4 476 477 473 472
4 471 470 472 473
4 467 466 470 471
12 443 448 450 453 466 467 468 464 462 458 445 444
4 479 478 483 482
4 481 480 482 483
4 475 474 480 481
4 487 486 491 490
4 489 488 490 491
4 485 484 488 489
12 508 509 503 506 504 499 478 479 485 489 491 486
4 501 494 498 497
4 496 495 497 498
4 493 492 495 496
4 503 502 507 506
4 505 504 506 507
4 500 499 504 505
4 511 510 515 514
4 513 512 514 515
4 509 508 512 513
4 519 518 523 522
4 521 520 522 523
4 517 516 520 521
4 533 526 530 529
4 528 527 529 530
4 525 524 527 528
12 510 531 532 533 529 527 524 502 503 509 513 515
12 414 435 436 437 433 431 428 406 413 412 417 419
4 540 541 537 536
4 535 534 536 537
4 532 531 534 535
10 621 620 619 623 625 629 639 642 640 635
4 543 542 547 546
4 545 544 546 547
4 539 538 544 545
4 550 557 554 553
4 552 551 553 554
4 549 548 551 552
12 557 571 572 566 569 567 563 542 543 549 552 554
4 558 565 562 561
4 560 559 561 562
4 556 555 559 560
4 566 573 570 569
12 590 593 591 588 573 566 572 575 577 581 595 596
4 568 567 569 570
4 564 563 567 568
4 580 581 577 576
4 575 574 576 577
4 572 571 574 575
12 550 553 551 548 526 533 532 535 537 541 555 556
12 37 52 53 47 50 48 43 22 23 29 32 34
4 583 582 587 586
4 585 584 586 587
4 579 578 584 585
4 590 597 594 593
4 592 591 593 594
4 589 588 591 592
4 604 605 601 600
4 599 598 600 601
4 596 595 598 599
12 581 580 579 585 587 582 602 603 604 600 598 595
4 607 606 611 610
4 609 608 610 611
4 603 602 608 609
4 620 621 617 616
4 615 614 616 617
4 613 612 614 615
12 605 618 619 620 616 614 612 597 590 596 599 601
4 628 629 625 624
4 623 622 624 625
4 619 618 622 623
12 230 250 251 252 248 246 243 222 223 229 232 234
12 626 627 628 624 622 618 605 604 603 609 611 606
4 630 637 634 633
4 632 631 633 634
4 627 626 631 632
4 641 640 642 643
4 636 635 640 641
4 4 1 3 5
