ply
format ascii 1.0
comment Created in Blender version 4.0.2
element vertex 68
property float x
property float y
property float z
element face 36
property list uchar uint vertex_indices
end_header
1 1 1.125
1 1 0.125
1 -1 1.125
1 -1 0.125
-1 1 0.125
-1 -1 0.125
1 -1 2.125
3 1 1.125
3 -1 1.125
3 1 2.125
3 -1 2.125
-1 0.99999994 3.125
0.99999994 1 3.125
0.99999994 1 2.125
0.99999994 1 4.125
-1.0000001 3 3.125
0.9999999 3 3.125
-1.0000001 3 4.125
0.9999999 3 4.125
-0.99999994 -1.0000001 5.125
-1.0000001 0.99999994 5.125
-1.0000001 0.99999994 4.125
-0.99999994 -1.0000001 6.125
-3 -1.0000002 5.125
-3 0.99999976 5.125
-3 -1.0000002 6.125
-3 0.99999976 6.125
1.0000001 -0.9999999 7.125
-0.9999999 -1.0000001 7.125
-1.0000001 0.9999999 6.125
1.0000004 -2.9999998 7.125
-0.9999996 -3.0000002 7.125
1.0000004 -2.9999998 8.125
-0.9999996 -3.0000002 8.125
0.9999998 1.0000001 9.125
1.0000001 -0.9999998 9.125
1.0000001 -0.9999998 8.125
-0.9999998 -1.0000001 8.125
1.0000001 -0.9999998 10.125
2.9999998 1.0000005 9.125
3.0000002 -0.99999946 9.125
2.9999998 1.0000005 10.125
3.0000002 -0.99999946 10.125
-1.0000002 0.99999976 11.125
0.99999976 1.0000002 11.125
0.99999976 1.0000002 10.125
-1.0000002 0.99999976 12.125
-1.0000007 2.9999998 11.125
0.99999934 3.0000002 11.125
-1.0000007 2.9999998 12.125
0.99999934 3.0000002 12.125
-0.99999976 -1.0000002 13.125
-1.0000002 0.99999976 13.125
0.99999976 1.0000002 12.125
-0.99999976 -1.0000002 14.125
-2.9999998 -1.0000008 13.125
-3.0000002 0.9999992 13.125
-2.9999998 -1.0000008 14.125
-3.0000002 0.9999992 14.125
1.0000004 -0.9999997 15.125
-0.9999997 -1.0000004 15.125
-1.0000004 0.9999997 14.125
-1.0000004 0.9999997 16.125
0.9999997 1.0000004 16.125
1.000001 -2.9999998 15.125
-0.9999991 -3.0000002 15.125
1.000001 -2.9999998 16.125
-0.9999991 -3.0000002 16.125
4 1 0 2 3
4 13 6 10 9
4 8 7 9 10
4 2 0 7 8
12 37 51 52 46 49 47 43 29 22 28 31 33
4 21 14 18 17
4 16 15 17 18
4 12 11 15 16
12 54 57 55 51 37 36 35 40 42 38 59 60
4 22 29 26 25
4 24 23 25 26
4 20 19 23 24
12 45 41 39 34 14 21 20 24 26 29 43 44
8 61 62 63 53 46 52 56 58
4 36 37 33 32
6 62 61 54 60 65 67
4 31 30 32 33
4 28 27 30 31
4 45 38 42 41
4 40 39 41 42
4 35 34 39 40
12 5 3 2 8 10 6 27 28 22 25 23 19
12 34 35 36 32 30 27 6 13 12 16 18 14
4 46 53 50 49
4 48 47 49 50
4 44 43 47 48
8 19 20 21 17 15 11 4 5
8 13 9 7 0 1 4 11 12
4 54 61 58 57
10 53 63 66 64 59 38 45 44 48 50
4 56 55 57 58
4 52 51 55 56
4 65 64 66 67
4 60 59 64 65
4 4 1 3 5
4 63 62 67 66
