ply
format ascii 1.0
comment Created in Blender version 4.2.2 LTS
element vertex 320
property float x
property float y
property float z
element face 162
property list uchar uint vertex_indices
end_header
0.04358954 -0.13415107 -1.0207726
0.7460822 -0.43957266 -0.5585787
-0.114116035 -0.08290975 -1.0207725
-0.11411657 0.082909815 -1.0207725
0.04358933 0.13415077 -1.0207726
0.83326185 -0.43957344 -0.41752017
-0.16056643 -0.9283145 -0.41752106
-0.9324995 -0.13415198 -0.41751805
-0.41574147 0.84540415 -0.41752157
0.675557 0.65663683 -0.41752097
0.7896737 -0.573726 -0.33034408
-0.30162522 -0.92831445 -0.33034477
-0.9760879 -2.9951174e-08 -0.33034164
-0.30162516 0.92831457 -0.33034465
0.78967357 0.5737258 -0.33034447
0.34521264 -0.7941604 0.55857915
-0.6486165 -0.5737238 0.55857897
-0.7460821 0.43957272 0.5585788
0.18750672 0.8454015 0.5585789
0.8619707 0.08290915 0.55857515
0.114116296 0.082909815 1.0207725
0.39868513 0.093160346 0.94615537
0.6679667 0.09315998 0.7797314
0.23899487 0.17364006 0.98802793
0.21180011 0.35038176 0.94615626
0.5333247 0.184698 0.8629441
0.50623703 0.36780152 0.81911606
0.3404621 0.45014626 0.86294514
0.29501125 0.6064833 0.7797338
0.7768335 0.17364119 0.65562797
0.7515442 0.3503818 0.612579
0.61957407 0.45014808 0.690446
0.56547385 0.606484 0.61258096
0.40519398 0.68515366 0.6556304
0.3452126 0.79416054 0.558579
-0.043589305 0.13415098 1.0207726
0.03459691 0.40795723 0.94615656
0.11780803 0.6640588 0.77973413
-0.09128861 0.28095403 0.98802835
-0.26778454 0.3097063 0.9461564
-0.010854264 0.5642938 0.8629455
-0.19336808 0.59511405 0.81911695
-0.32290694 0.46290016 0.86294544
-0.4856385 0.46798387 0.77973366
0.074907295 0.7924686 0.65563023
-0.10099919 0.823032 0.6125816
-0.23666023 0.7283515 0.6904469
-0.40206328 0.72520864 0.61258173
-0.52640903 0.59708554 0.6556302
-0.6486165 0.57372385 0.55857885
-0.14105448 7.55705e-08 1.0207727
-0.3772997 0.15897022 0.94615644
-0.5951533 0.31724817 0.77973384
-0.2954152 7.3102285e-08 0.9880277
-0.3772997 -0.15897007 0.94615644
-0.54003185 0.16405456 0.8629441
-0.6257421 4.9793872e-08 0.8191166
-0.54003185 -0.16405444 0.8629441
-0.5951533 -0.31724805 0.77973384
-0.7305356 0.31612867 0.6556289
-0.81396043 0.15827751 0.6125811
-0.7658375 3.9314777e-08 0.6904449
-0.81396055 -0.15827733 0.61258096
-0.73053557 -0.31612852 0.65562904
-0.74608207 -0.43957272 0.5585789
-0.0435893 -0.13415085 1.0207726
-0.26778454 -0.30970618 0.9461564
-0.4856385 -0.46798375 0.7797338
-0.09128861 -0.28095385 0.98802835
0.034596913 -0.4079571 0.9461567
-0.32290694 -0.4629 0.86294556
-0.19336806 -0.59511393 0.81911707
-0.010854261 -0.5642937 0.8629456
0.11780803 -0.6640587 0.77973425
-0.52640903 -0.5970855 0.65563023
-0.40206343 -0.7252083 0.6125819
-0.23666021 -0.7283514 0.69044703
-0.10099927 -0.8230319 0.61258173
0.0749073 -0.7924685 0.65563035
0.18750674 -0.8454014 0.5585791
0.114116296 -0.08290967 1.0207725
0.21180011 -0.35038164 0.94615626
0.29501125 -0.60648316 0.7797339
0.23899488 -0.17363992 0.98802793
0.39868513 -0.093160205 0.94615537
0.3404621 -0.45014614 0.86294526
0.5062371 -0.3678014 0.81911606
0.5333247 -0.1846979 0.8629441
0.6679667 -0.093159884 0.7797314
0.40519404 -0.68515354 0.65563047
0.5654737 -0.6064839 0.61258113
0.6195742 -0.45014802 0.69044596
0.751544 -0.35038182 0.61257905
0.77683353 -0.17364116 0.6556279
0.8619707 -0.08290913 0.55857515
0.9324996 0.13415202 0.41751796
0.9660245 0.30970883 0.18361901
0.91459733 0.46798745 -0.085665606
0.9245439 0.2809547 0.36021096
0.8307922 0.4079604 0.4540831
0.9162493 0.46290293 0.09710358
0.819114 0.59511864 0.1933677
0.7766921 0.5642965 0.3762177
0.6447221 0.6640629 0.4540846
0.8218284 0.59708816 -0.17763163
0.72771317 0.7252132 -0.08566538
0.7233879 0.7283558 0.09710383
0.59307045 0.8230372 0.18362077
0.5529058 0.7924716 0.3602129
0.4157415 0.8454042 0.4175215
0.16056663 0.9283145 0.41752094
0.0039618844 1.0144491 0.1836197
-0.16245991 1.0144492 -0.085666195
0.01849026 0.9661123 0.36021388
-0.13127042 0.91619575 0.45408434
-0.15711392 1.0144492 0.09710459
-0.3128758 0.9629244 0.19336747
-0.29667133 0.91305345 0.37621918
-0.4323346 0.8183723 0.4540844
-0.31390718 0.96611524 -0.17763175
-0.4648453 0.9161986 -0.085665435
-0.4691702 0.9130563 0.09710408
-0.5994881 0.8183746 0.18361995
-0.5828298 0.7707299 0.36021376
-0.675557 0.65663695 0.41752076
-0.833262 0.43957332 0.41752002
-0.9635746 0.3172494 0.18361902
-1.0150019 0.1589708 -0.08566464
-0.91311413 0.31612995 0.36021328
-0.91191894 0.15827784 0.45408246
-1.0133497 0.16405609 0.09710503
-1.0124794 -9.399893e-08 0.19336645
-0.96004194 9.07404e-08 0.37621865
-0.9119188 -0.15827796 0.45408276
-1.0158333 -1.92676e-08 -0.17762902
-1.0150019 -0.15897077 -0.085664526
-1.0133497 -0.16405614 0.09710532
-0.96357465 -0.3172493 0.18361935
-0.91311413 -0.31612992 0.36021352
-0.83326215 -0.43957308 0.4175201
-0.67555714 -0.6566367 0.41752088
-0.59948856 -0.81837404 0.1836199
-0.46484575 -0.9161981 -0.08566582
-0.58282995 -0.77072954 0.36021394
-0.4323348 -0.818372 0.45408443
-0.46917063 -0.9130558 0.097104095
-0.31287628 -0.96292394 0.19336742
-0.29667175 -0.91305304 0.37621948
-0.13127021 -0.9161956 0.45408452
-0.3139073 -0.966115 -0.17763187
-0.16246028 -1.014449 -0.08566614
-0.15711415 -1.014449 0.097104274
0.0039621536 -1.014449 0.18362005
0.018490033 -0.9661124 0.36021394
0.16056663 -0.9283144 0.41752106
0.4157414 -0.8454042 0.41752148
0.5930701 -0.82303756 0.18362018
0.7277128 -0.7252137 -0.08566588
0.5529054 -0.7924718 0.3602129
0.64472187 -0.6640632 0.45408422
0.7233879 -0.72835606 0.09710302
0.8191138 -0.5951196 0.19336635
0.77669185 -0.56429714 0.37621692
0.83079237 -0.40796047 0.45408258
0.82182837 -0.5970883 -0.17763232
0.91459733 -0.46798775 -0.085665844
0.9162493 -0.46290362 0.09710214
0.9660246 -0.3097091 0.18361849
0.9245439 -0.28095517 0.36021048
0.93249965 -0.13415176 0.41751784
0.30162525 0.92831445 0.33034468
0.46484572 0.91619813 0.08566538
0.59948856 0.8183741 -0.18362026
0.31390736 0.966115 0.17763168
0.16246046 1.014449 0.08566586
0.46917078 0.9130557 -0.097104825
0.3128763 0.96292394 -0.19336829
0.15711418 1.014449 -0.09710508
-0.003962175 1.0144491 -0.18362005
0.5828301 0.7707295 -0.3602141
0.43233445 0.8183721 -0.45408493
0.29667178 0.9130531 -0.3762198
0.13127016 0.9161955 -0.45408487
-0.018489981 0.9661123 -0.36021426
-0.16056654 0.9283143 -0.41752124
-0.78967345 0.573726 0.33034447
-0.7277125 0.7252138 0.08566536
-0.5930695 0.823038 -0.18362059
-0.8218282 0.5970883 0.17763156
-0.914597 0.4679881 0.08566538
-0.7233872 0.72835636 -0.09710428
-0.81911284 0.5951202 -0.19336788
-0.9162489 0.46290362 -0.09710332
-0.9660242 0.30970946 -0.18361932
-0.5529051 0.792472 -0.36021313
-0.64472204 0.6640629 -0.45408478
-0.776691 0.5642979 -0.37621775
-0.8307921 0.4079604 -0.45408314
-0.92454374 0.28095543 -0.3602109
-0.9324995 0.13415197 -0.41751808
-0.7896734 -0.573726 0.33034456
-0.914597 -0.46798807 0.08566559
-0.9660242 -0.30970946 -0.18361929
-0.8218282 -0.59708834 0.17763163
-0.7277126 -0.72521377 0.0856654
-0.91624886 -0.46290365 -0.097103275
-0.8191129 -0.59512013 -0.19336778
-0.7233871 -0.7283564 -0.09710408
-0.5930696 -0.82303786 -0.18362048
-0.9245438 -0.2809555 -0.36021075
-0.830792 -0.40796062 -0.45408323
-0.7766911 -0.56429785 -0.37621763
-0.6447218 -0.6640633 -0.45408455
-0.55290496 -0.79247206 -0.360213
-0.41574156 -0.84540427 -0.4175214
0.3016253 -0.92831445 0.33034477
0.16246034 -1.014449 0.085665904
-0.003962066 -1.014449 -0.18362023
0.31390738 -0.966115 0.17763184
0.46484563 -0.91619813 0.085665576
0.15711407 -1.014449 -0.097104855
0.3128763 -0.96292394 -0.19336814
0.46917063 -0.9130558 -0.09710478
0.5994888 -0.818374 -0.18362005
-0.01849015 -0.9661123 -0.36021408
0.13127033 -0.9161956 -0.45408478
0.29667178 -0.9130531 -0.3762197
0.43233463 -0.8183721 -0.4540848
0.5828299 -0.77072954 -0.36021405
0.6755571 -0.6566368 -0.41752097
0.9760879 -6.590088e-08 0.33034164
1.0150018 -0.15897088 0.08566491
0.9635745 -0.31724983 -0.18361892
1.0158331 -3.4132206e-08 0.17762938
1.0150018 0.15897082 0.08566506
1.0133497 -0.16405585 -0.09710481
1.0124794 -1.6871063e-08 -0.19336587
1.0133497 0.16405597 -0.09710477
0.9635746 0.31724954 -0.18361884
0.9131142 -0.31612965 -0.36021325
0.9119189 -0.15827811 -0.45408246
0.9600419 -3.010168e-08 -0.37621838
0.9119189 0.15827799 -0.4540824
0.91311413 0.31612977 -0.36021334
0.83326197 0.4395733 -0.4175201
0.64861643 0.57372385 -0.5585789
0.48563802 0.46798438 -0.7797338
0.26778406 0.30970713 -0.9461562
0.5264087 0.59708565 -0.6556304
0.40206334 0.72520876 -0.61258155
0.32290706 0.46290052 -0.8629453
0.19336747 0.5951151 -0.8191164
0.2366595 0.7283517 -0.690447
0.10099924 0.8230322 -0.6125814
0.0912889 0.28095448 -0.98802817
-0.03459713 0.40795735 -0.94615656
0.010854089 0.5642947 -0.86294496
-0.117808215 0.6640589 -0.779734
-0.074907795 0.7924687 -0.65563
-0.18750678 0.8454014 -0.558579
-0.3452127 0.7941604 -0.5585791
-0.29501233 0.60648286 -0.7797339
-0.21180089 0.3503817 -0.9461562
-0.40519443 0.6851531 -0.65563077
-0.56547415 0.6064841 -0.61258066
-0.34046257 0.4501461 -0.8629453
-0.5062381 0.36780074 -0.8191159
-0.6195749 0.45014712 -0.69044596
-0.7515441 0.35038197 -0.61257875
-0.23899513 0.17363995 -0.988028
-0.3986854 0.09315993 -0.9461553
-0.53332543 0.18469782 -0.86294377
-0.6679669 0.093159616 -0.7797312
-0.7768339 0.17364062 -0.6556274
-0.8619707 0.08290911 -0.55857503
-0.8619707 -0.082909316 -0.5585751
-0.6679672 -0.09316028 -0.77973086
-0.39868546 -0.09316046 -0.94615513
-0.7768338 -0.17364098 -0.6556276
-0.7515443 -0.35038242 -0.6125784
-0.53332555 -0.18469816 -0.8629434
-0.5062381 -0.3678021 -0.819115
-0.61957484 -0.4501481 -0.69044524
-0.5654743 -0.6064846 -0.61257994
-0.23899539 -0.17364064 -0.98802763
-0.21180043 -0.35038188 -0.946156
-0.34046286 -0.45014718 -0.86294425
-0.29501212 -0.6064834 -0.7797333
-0.40519425 -0.6851539 -0.65562993
-0.34521282 -0.79416054 -0.55857885
0.7460821 0.4395727 -0.55857885
0.81396055 0.15827724 -0.61258096
0.81396073 -0.15827762 -0.6125807
0.7305356 0.31612846 -0.655629
0.59515345 0.3172481 -0.7797336
0.7658378 -3.623373e-07 -0.6904446
0.6257428 -6.692171e-07 -0.81911594
0.540032 0.16405435 -0.8629439
0.37730017 0.15896961 -0.94615614
0.73053586 -0.316129 -0.65562856
0.5951536 -0.3172486 -0.77973336
0.54003257 -0.16405511 -0.8629435
0.37730002 -0.15897079 -0.9461561
0.2954156 -1.5702608e-07 -0.98802745
0.14105426 -1.8281966e-07 -1.0207727
-0.18750678 -0.8454015 -0.5585789
-0.11780765 -0.66405916 -0.77973384
-0.034596104 -0.40795797 -0.9461563
-0.07490742 -0.79246855 -0.6556303
0.10099953 -0.8230322 -0.6125814
0.010854495 -0.5642943 -0.8629453
0.19336899 -0.595115 -0.81911623
0.23666045 -0.7283514 -0.69044703
0.4020637 -0.7252089 -0.6125812
0.091289125 -0.28095475 -0.9880282
0.26778498 -0.3097069 -0.94615614
0.322908 -0.46290094 -0.86294484
0.48563856 -0.46798432 -0.7797335
0.52640945 -0.5970857 -0.65562975
0.64861643 -0.57372403 -0.5585788
5 274 275 7 12 199
5 259 260 8 13 184
6 63 64 16 74 67 58
6 75 74 16 140 143 144
6 252 253 182 181 180 249
6 302 301 300 317 316 315
6 311 312 309 308 306 310
6 300 299 1 319 318 317
6 90 89 15 155 158 159
6 268 197 196 195 264 267
6 225 224 6 305 308 309
6 244 243 242 291 293 290
6 79 78 77 148 153 154
6 242 241 240 292 295 291
5 3 4 304 0 2
6 53 50 35 38 39 51
6 240 239 5 1 299 292
6 303 304 4 254 247 298
6 297 298 247 250 246 294
6 246 248 245 290 293 294
6 221 220 217 224 225 226
6 288 289 214 213 212 283
6 259 258 257 261 263 260
6 183 184 13 119 112 178
5 139 200 140 16 64
6 112 115 111 174 177 178
6 111 113 110 170 173 174
6 218 215 154 153 152 216
6 207 208 142 145 141 204
6 64 63 62 133 138 139
6 263 264 195 194 8 260
5 154 215 155 15 79
6 180 179 9 245 248 249
6 233 230 169 168 167 231
6 164 10 5 239 232 165
6 48 49 17 59 52 43
6 243 244 14 104 97 238
6 97 100 96 234 237 238
6 96 98 95 230 233 234
6 270 271 266 265 262 269
6 152 151 150 217 220 216
5 290 245 9 14 244
6 157 223 228 229 10 164
5 170 110 18 34 109
6 42 39 38 36 40 41
6 156 158 155 215 218 219
6 120 121 116 115 112 119
6 203 200 139 138 137 201
6 205 201 137 136 135 202
6 276 272 271 270 277 280
6 202 135 134 12 7 209
6 83 80 65 68 69 81
6 113 114 45 44 18 110
6 188 185 124 123 122 186
6 227 228 223 222 221 226
6 186 122 121 120 187 190
6 120 119 13 8 194 187
6 282 283 212 211 210 279
6 127 130 126 189 192 193
6 278 279 210 209 7 275
6 88 93 94 19 29 22
6 107 106 105 172 175 171
6 262 255 254 4 3 269
6 319 229 228 227 313 318
6 168 169 94 93 92 163
6 162 163 92 91 90 159
6 73 72 71 76 77 78
6 273 274 199 198 197 268
6 77 76 75 144 147 148
6 227 226 225 309 312 313
6 133 62 61 60 129 132
6 60 59 17 125 128 129
6 49 48 47 118 123 124
6 117 118 47 46 45 114
5 169 230 95 19 94
6 109 34 33 32 103 108
6 32 31 30 99 102 103
6 235 231 167 166 165 232
6 30 29 19 95 98 99
6 82 85 81 69 72 73
5 65 80 20 35 50
6 82 73 78 79 15 89
6 182 183 178 177 176 181
6 69 68 66 70 71 72
6 58 67 70 66 54 57
6 54 66 68 65 50 53
6 43 52 55 51 39 42
6 38 35 20 23 24 36
6 26 25 22 29 30 31
6 37 40 36 24 27 28
6 84 21 23 20 80 83
6 37 28 33 34 18 44
6 26 27 24 23 21 25
6 32 33 28 27 26 31
6 217 150 149 11 6 224
6 41 40 37 44 45 46
6 22 25 21 84 87 88
6 157 160 156 219 222 223
6 47 48 43 42 41 46
6 54 53 51 55 56 57
6 56 55 52 59 60 61
6 63 58 57 56 61 62
6 305 289 288 287 306 308
6 86 87 84 83 81 85
6 76 71 70 67 74 75
6 259 184 183 182 253 258
6 91 86 85 82 89 90
6 92 93 88 87 86 91
6 310 306 287 286 285 307
6 101 102 99 98 96 100
6 105 106 101 100 97 104
6 146 147 144 143 141 145
6 108 103 102 101 106 107
6 148 147 146 151 152 153
6 122 123 118 117 116 121
6 236 237 234 233 231 235
6 114 113 111 115 116 117
6 189 126 128 125 185 188
6 131 132 129 128 126 130
6 138 133 132 131 136 137
6 135 136 131 130 127 134
6 151 146 145 142 149 150
6 165 166 161 160 157 164
6 193 192 191 196 197 198
5 214 289 305 6 11
6 161 162 159 158 156 160
6 142 208 213 214 11 149
6 167 168 163 162 161 166
6 176 177 174 173 171 175
6 181 176 175 172 179 180
6 277 270 269 3 2 284
6 285 284 2 0 314 307
6 189 188 186 190 191 192
6 204 141 143 140 200 203
6 275 274 273 272 276 278
6 211 206 205 202 209 210
6 208 207 206 211 212 213
6 221 222 219 218 216 220
6 206 207 204 203 201 205
6 241 236 235 232 239 240
6 252 249 248 246 250 251
6 255 256 251 250 247 254
6 258 253 252 251 256 257
5 185 125 17 49 124
6 266 267 264 263 261 265
6 198 199 12 134 127 193
6 261 257 256 255 262 265
6 302 315 314 0 304 303
6 273 268 267 266 271 272
6 282 279 278 276 280 281
5 10 229 319 1 5
6 195 196 191 190 187 194
6 243 238 237 236 241 242
6 285 286 281 280 277 284
6 297 294 293 291 295 296
6 287 288 283 282 281 286
6 104 14 9 179 172 105
6 300 301 296 295 292 299
6 302 303 298 297 296 301
6 109 108 107 171 173 170
6 311 310 307 314 315 316
6 313 312 311 316 317 318
