ply
format ascii 1.0
comment Created in Blender version 4.0.2
element vertex 78
property float x
property float y
property float z
element face 41
property list uchar uint vertex_indices
end_header
0.08435499 -0.2596105 -0.90037227
0.66592073 -0.2854917 -0.60018873
-0.22083855 -0.16044806 -0.90037173
-0.2208386 0.16044812 -0.90037173
0.08435467 0.25961027 -0.90037227
0.8346306 -0.2854912 -0.32721138
-0.013603589 -0.8820015 -0.32721266
-0.8430397 -0.25961158 -0.32721096
-0.5074183 0.7215523 -0.3272121
0.5294379 0.7055545 -0.32721215
0.7502764 -0.5451052 -0.15850648
-0.28657985 -0.8820015 -0.1585061
-0.9273929 -2.9490457e-07 -0.15850528
-0.28658003 0.8820015 -0.15850607
0.7502767 0.545105 -0.15850624
0.36579144 -0.6186889 0.6104517
-0.47730386 -0.54510236 0.6001884
-0.6488761 0.285679 0.62768584
0.016842354 0.62258065 0.72787976
0.61820966 0.108043015 0.63560885
0.29379177 0.55456495 0.6356089
-0.040942155 0.3087661 0.84140724
-0.030851644 0.5879186 0.7573756
-0.47537518 0.5390721 0.61045194
-0.21763697 -0.076203614 0.90032756
-0.5750034 -0.0054548103 0.74730587
-0.66592073 -0.28549194 0.60018843
-0.13972896 -0.18343556 0.9003275
-0.18287572 -0.54517233 0.74730694
0.07118145 -0.70539695 0.6276858
0.28100324 -0.13435082 0.8414066
0.5496125 -0.21101716 0.75737464
0.597314 -0.17637035 0.7278803
0.817418 0.33825564 0.27947277
0.7502903 0.5451151 0.19901432
0.57429683 0.6728818 0.2794732
0.04479251 0.88198304 0.34288833
-0.28657958 0.8819967 0.17711848
-0.52943796 0.7055546 0.32721204
-0.8346305 0.28549117 0.32721138
-0.9273775 -9.8374656e-08 0.1771154
-0.8346306 -0.2854916 0.32721117
-0.5294382 -0.70555425 0.3272124
-0.2865763 -0.88198674 0.17711587
0.013603341 -0.8820015 0.32721284
0.5074181 -0.7215525 0.32721204
0.7502724 -0.5451021 0.17711788
0.85265934 -0.22994508 0.3428873
0.2866971 0.88198066 0.17899102
0.28657633 0.88198674 -0.1771158
-0.013603414 0.8820015 -0.32721275
-0.75027645 0.54510534 0.15850642
-0.7502641 0.54509616 -0.17711529
-0.8430395 0.25961158 -0.32721138
-0.75027674 -0.5451049 0.15850672
-0.75026417 -0.5450959 -0.17711528
-0.50741804 -0.7215523 -0.32721233
0.28658003 -0.8820015 0.15850605
0.28657636 -0.8819867 -0.1771158
0.5294379 -0.7055544 -0.32721204
0.9274092 0.00011786211 0.17899208
0.9273775 4.8780294e-08 -0.1771154
0.8346307 0.2854912 -0.32721114
0.47730362 0.5451025 -0.6001884
0.17711477 0.545094 -0.75026846
-0.065736815 0.72154945 -0.6001886
-0.37093043 0.6223867 -0.6001884
-0.4636864 0.3368873 -0.7502673
-0.7065517 0.16044763 -0.60018605
-0.70655155 -0.16044758 -0.60018617
-0.4636864 -0.33688727 -0.7502673
-0.37093052 -0.62238646 -0.6001885
0.66592073 0.28549153 -0.6001886
0.5731485 -7.951576e-08 -0.75026774
0.27297133 -2.651907e-07 -0.9003726
-0.065736905 -0.72154933 -0.60018873
0.17711484 -0.54509395 -0.7502686
0.47730362 -0.5451021 -0.60018873
5 0 2 3 4 74
5 1 5 10 59 77
5 6 11 56 71 75
5 7 12 53 68 69
5 8 13 50 65 66
5 9 14 62 72 63
5 15 29 44 57 45
5 16 26 41 54 42
5 17 23 38 51 39
5 18 20 35 48 36
5 19 32 47 60 33
4 21 24 27 30
6 0 76 75 71 70 2
6 0 74 73 1 77 76
6 6 75 76 77 59 58
6 1 73 72 62 61 5
6 4 64 63 72 73 74
6 2 70 69 68 67 3
6 7 69 70 71 56 55
6 3 67 66 65 64 4
6 8 66 67 68 53 52
6 9 63 64 65 50 49
6 5 61 60 47 46 10
6 14 34 33 60 61 62
6 6 58 57 44 43 11
6 10 46 45 57 58 59
6 7 55 54 41 40 12
6 11 43 42 54 55 56
6 8 52 51 38 37 13
6 12 40 39 51 52 53
6 9 49 48 35 34 14
6 13 37 36 48 49 50
6 15 45 46 47 32 31
6 16 42 43 44 29 28
6 17 39 40 41 26 25
6 18 36 37 38 23 22
5 19 33 34 35 20
6 15 31 30 27 28 29
6 16 28 27 24 25 26
6 17 25 24 21 22 23
8 19 20 18 22 21 30 31 32
