ply
format ascii 1.0
comment Created in Blender version 4.0.2
element vertex 336
property float x
property float y
property float z
element face 170
property list uchar uint vertex_indices
end_header
-2.185807 2.535133 -0.15389574
-2.1467514 2.7615898 -0.27911147
-2.2928421 1.6597123 0.0638879
-2.1956553 0.4634284 0.10419466
-2.1761994 -0.08254293 -0.10059319
-2.016219 -0.79180723 -0.041850552
-1.9236013 -0.6399815 0.7596821
-2.0193038 -0.2836244 -0.7485922
-1.8898331 -1.0571257 -0.059802335
-1.236739 -1.7815297 0.08813185
-1.4560889 -1.3647122 0.87092984
-1.3707021 -1.1897805 1.1678853
-0.8172112 -1.5303426 1.310824
0.05110167 -1.537895 1.47903
-0.09696045 -1.0281345 1.9280242
0.048064157 -0.5858718 2.083908
0.14208837 0.1426601 2.1430628
-0.12001166 0.8303301 2.007222
0.09747059 1.10917 1.8355696
0.21074127 1.2800676 1.6828609
0.529194 1.9061575 1.1743404
-0.40704003 2.0799148 0.77799135
-0.26366875 2.1729991 -0.40226054
-0.61659986 1.9314845 1.075613
0.6223252 1.9596051 1.109296
-0.5667793 0.59281427 1.9870164
-0.5469878 1.161273 1.7564008
-0.9347033 -0.14309551 1.9740081
-1.4674646 -0.19896571 1.4897637
-1.7498386 -0.17302391 1.239506
-1.8891505 0.9297619 1.1143211
0.5944409 0.5030175 2.0136545
-0.58523446 0.047745794 2.0825756
0.8156701 -0.13835242 2.0081747
1.0763023 0.2768685 1.8365165
1.4937085 -0.022246499 1.5381187
1.3765996 0.35297215 1.5748389
1.5143569 0.9768987 1.3242416
1.4083147 1.8671527 1.1461916
1.8607131 0.71465296 1.0698171
1.4845757 -0.8513818 1.3504621
1.3430042 -1.1504706 1.2741125
1.7268676 -0.7869952 1.0214024
1.8892969 -0.55692536 0.8467245
2.0213194 -0.36864194 0.7067303
2.0504208 0.063368455 0.7708441
2.160371 -0.044121522 -0.1491616
2.1961014 0.79170024 -0.024704298
2.2107882 2.0647776 0.18191232
2.1336558 1.5607527 0.6518507
2.024217 1.4527036 -0.66365415
1.7570623 1.4125713 -0.9388507
1.5170103 1.1641134 -1.2075855
1.9786005 0.86009085 -0.7689915
1.8190132 -0.06506045 -1.1733599
1.8907075 -0.7507901 -0.7117996
1.7545844 -1.1325443 -0.5891775
1.4532232 -1.3918447 -0.8291699
1.6806164 -1.3587168 0.044283543
1.1706264 -1.8202804 0.17751133
0.79723054 -2.0158389 -0.14106092
0.42490608 -2.0766056 0.4947515
0.14069135 -2.0501976 0.7009255
0.61538166 -1.978387 -0.5850827
-0.11948818 -2.1121948 -0.30721557
-0.005430923 -1.9354649 -1.0816554
-0.7385884 -1.8190633 -1.0266337
-0.5192874 -1.9408163 -0.8441971
-0.49678513 -1.9914305 -0.6451587
-0.57745796 -2.0756278 0.06147022
0.03900736 -2.1432858 0.06853894
0.66823465 -1.7957302 0.89552563
0.80537456 -1.6719567 1.0180335
0.78755975 -1.8214743 -0.8988453
1.0415361 -1.7817763 -0.6292468
0.71518236 -1.3857956 -1.8476987
0.6276621 -1.6942325 -1.3649683
0.46774605 -1.2883775 -2.1321018
0.5916795 -0.8365984 -2.2402322
0.6782901 -0.020147609 -2.0998065
0.50903547 0.33269927 -2.046549
0.9385388 0.6712557 -1.7977074
0.8918031 0.5210423 -1.8655769
0.9374455 1.6531671 -1.1930319
0.027533943 1.3105903 -1.660225
-0.07275739 1.7377646 -1.2299033
-0.7986618 1.4382951 -1.3760749
-1.1150796 0.99342895 -1.4607202
-1.5098046 0.86879075 -1.2874968
0.03425566 1.0254378 -1.9383146
0.07872196 0.24878165 -2.203412
-0.030493552 -0.36882123 -2.3763967
-0.6333733 -0.0086314455 -2.1413505
-1.295229 -0.0889896 -1.7694031
1.287924 -0.8418795 -1.5660793
2.0132625 -0.53153694 -0.5464954
1.4661043 -0.091197975 -1.5510113
1.4203784 1.0621413 -1.3171031
1.9462578 0.10565241 -0.97666657
2.1033635 -0.5414576 -0.04051008
1.7770339 0.3172799 1.2188296
-0.62341356 -0.5062953 2.0051198
0.59017956 -0.5365261 2.00286
-0.057210747 -1.916717 0.99080485
0.9687421 -1.305875 1.4332179
-0.74260086 -1.9010206 0.8090104
-0.87889534 -1.7413563 0.9942323
-1.4652972 -1.3308269 -0.8375813
-1.1946787 -1.2755191 -1.3364817
-1.3180519 -0.93917996 -1.4240307
-1.0843921 -1.8948636 -0.048770852
-2.039978 -0.07562151 0.7848034
-2.0578961 -0.06759112 -0.7960984
-1.8794283 0.2644725 -1.1626416
-2.0676808 1.667448 -0.6648887
-2.1444025 1.554931 0.59989494
-2.1408415 2.7621713 -0.29141265
-1.8464253 2.7076738 -0.4087917
-1.8074782 2.668101 -0.4629353
-1.914817 1.1168768 1.0517502
-2.054634 2.6484182 -0.4429013
-2.1111927 1.7899932 -0.5469153
-2.0199318 0.8662805 -0.8672875
-1.2128904 1.9609462 1.144534
-1.1083736 1.9464589 1.1440843
-1.6536753 2.344684 0.60445154
-1.8203319 2.470465 0.38356847
-1.7845052 2.6161304 0.06323537
-1.637421 2.5828955 0.040594608
-1.3295006 2.2778695 -0.55632377
-1.2967107 2.2592149 -0.5877847
-0.33674774 1.9691246 -0.9057111
-1.4298813 0.031219145 -1.6349686
-0.37012607 2.352325 -0.022150863
-1.1042237 1.4708998 1.3700835
-1.2229896 0.54820436 1.7040582
-1.3548628 -0.73375815 1.5047891
-2.176943 1.7968329 0.43570852
-2.0213015 0.8684165 0.8829066
-1.8731316 -0.732538 0.8088058
-1.7490779 -1.0601431 0.7078614
-1.7610512 1.664004 -0.8218774
-1.3222493 1.4961181 -1.0823252
-1.8789558 0.97464246 -0.91497594
-1.1210665 1.6339618 1.293738
-0.52619386 1.8541882 1.1475695
-0.5319552 0.5713713 2.0053895
-1.0199157 -0.72161484 1.8055938
-0.92347306 -0.49444327 1.9279668
-0.5093268 2.1424165 0.6748779
-0.7816018 2.257062 0.54608685
-0.5194782 -2.0198948 0.5925723
-0.7491199 1.637085 -1.2047982
-0.74159884 0.3152193 -2.0171292
0.98391134 1.1522878 1.5115075
1.1308289 1.6666952 1.2896395
0.74719954 -0.82697654 1.85282
1.24573 -0.4780433 1.7210785
1.3496262 -1.5262353 0.65780216
1.082076 1.7770187 -1.0470805
1.3556955 0.9540197 -1.4158328
1.0880942 -1.3284756 -1.4506428
1.8145288 2.6089003 -0.3876638
1.6798604 2.4221973 0.43091565
1.9182066 2.6652315 0.0392799
1.9472754 2.7364697 -0.51287055
1.3379602 2.172485 -0.61046034
1.3290594 2.1543393 -0.6348461
2.0104964 3.025219 -0.48485717
2.2640882 2.7247157 -0.20790878
2.2626169 2.6609845 -0.13734779
0.08471194 1.8587492 -1.0833248
1.2035357 1.827933 1.2225114
0.72660744 0.69825995 1.8979689
0.925243 1.1229788 1.5465449
1.1644084 2.3259912 0.6361151
0.601705 2.2317617 0.64086986
0.5488024 2.27911 -0.24958742
1.2222285 2.0775614 -0.7239037
2.0277026 1.4228294 0.817882
1.5181192 1.932497 1.0525612
1.6369439 2.4132628 0.46350566
2.2203417 2.4052124 0.16534887
2.0661128 0.46233544 0.73493814
2.0128937 3.0192394 -0.49026984
2.0424309 1.5389687 -0.56782216
2.0082273 0.75443894 -0.7496152
-1.8518525 -0.58112997 -0.84776694
-1.9603419 -0.39593884 -0.77243716
-1.1460358 -0.9930874 -1.6326339
-0.81366795 0.76980484 -1.7994254
-0.7563903 0.49280387 -1.9357183
-0.7143708 -1.385373 -1.8467884
-0.6582729 -1.7056141 -1.3503133
-0.52772564 -0.9672078 -2.2426288
-0.5200686 -1.3383874 -2.058586
1.939065 -1.0244714 0.15696259
1.1329552 -0.33594486 -1.8600361
1.2583319 -0.85884726 -1.5945021
0.0025956242 -1.7820938 -1.5168983
-0.08053414 -0.89551866 -2.3940697
-0.1268088 -1.4825933 -2.0876927
-2.2621515 2.3571222 -0.11643362
-2.2823708 2.2297227 -0.137694
-2.2104359 0.8295695 0.043135863
-2.199906 0.16038506 0.0799525
-2.0467317 -0.68666625 -0.09507622
-1.9122038 -1.0258859 -0.03461359
-1.7066911 -1.2789049 -0.10809035
-1.4700817 -1.3470863 0.8781819
-0.8903885 -1.3133566 1.4997935
-0.06416962 -1.6833383 1.3188264
0.13595213 -1.2012635 1.8126261
-0.10287123 -0.75678223 2.0414777
-0.010799387 -0.011308963 2.1515162
0.13869835 0.5675787 2.0756335
-0.13752419 1.0250683 1.9216225
0.15499967 1.1568713 1.7839204
0.09231473 1.7994726 1.2352432
-0.02733398 2.143797 0.61619085
0.23360634 2.2246692 -0.09586069
-1.1806417 0.47005704 1.7563568
-1.1212388 0.112835266 1.8483802
-1.7135978 -0.19835685 1.2713315
-1.8037121 -0.061906315 1.191767
-1.8788474 1.0368482 1.123304
-0.65964204 -0.017454261 2.0640907
0.5708657 0.14105088 2.0750985
0.88698655 -0.13562149 1.9767982
1.2166152 0.26810253 1.735497
1.6052575 1.2299063 1.2066705
1.134555 1.6650249 1.2885906
1.8432294 0.6549602 1.0965939
1.328124 -0.4866717 1.6615564
1.6809013 -1.1112424 0.76365626
2.061515 0.1630725 0.7501661
2.1947122 0.5372379 -0.026801378
2.1940472 1.0786132 0.0003813403
2.2072892 1.4254375 0.095088154
2.155658 1.6851808 0.5716617
2.0671859 1.6246433 -0.46661058
1.3079048 1.987948 -0.8077779
1.7956791 0.92454624 -0.94897956
1.8939824 0.049627326 -1.063664
1.7304465 -0.5259757 -1.1567075
1.5087644 -1.3535767 -0.7769079
1.3038286 -1.7192334 0.24888223
0.9504668 -1.9523776 -0.12871988
0.4226626 -2.1152983 0.22799967
-0.08529143 -2.0688624 0.58896065
0.105986714 -2.0146608 -0.802328
-0.040956445 -1.908196 -1.1812385
-1.0477544 -1.7854837 -0.63123304
-0.73069715 -2.0312011 -0.039554346
-0.12281144 -2.1432848 -0.084396124
0.49481362 -2.045704 0.5148005
0.75116414 -1.7860502 -1.0176568
0.9438741 -1.3210928 -1.6623454
0.6491455 -0.77987987 -2.2138472
0.78841585 0.18363728 -2.0060759
0.3467492 1.129865 -1.8086823
0.6535771 1.4007623 -1.4897116
-0.044560757 1.6691774 -1.2974588
0.031252846 1.8110043 -1.140862
-0.992111 1.7894467 -1.0247506
-1.6919477 1.0313498 -1.0650277
0.08022121 1.0623146 -1.9114331
0.02115148 0.91885906 -1.9804378
0.06452375 -0.08866521 -2.3072593
-0.7523679 0.18067166 -2.0577295
-0.79366755 0.123764716 -2.039022
1.5328791 -0.6702548 -1.3365325
1.4924247 -0.07279964 -1.5269288
2.0439668 -0.2806454 -0.5929249
2.0597005 -0.73835146 0.1643584
1.6160742 0.12692562 1.3998628
0.10082683 -2.0025032 0.8136289
0.88052195 -1.4313126 1.3265125
-0.6886944 -1.9244577 0.7919202
-1.4839464 -1.3176575 -0.81800884
-1.554686 -0.78227067 -1.1671696
-1.1546252 -1.8523606 0.05382699
-2.0405748 -0.07276652 0.7839865
-2.0023465 0.36231413 -1.0538342
-1.571344 0.13768776 -1.4870862
-2.1600966 1.9003896 -0.43562788
-2.1689684 1.6310194 0.5352762
-1.4862936 1.6576593 1.1390634
-2.0017269 2.3390622 -0.4871326
-2.0259972 1.4476603 -0.73491573
-1.3390119 2.0244663 1.0677354
-1.9962037 2.6813374 -0.015694195
-1.3720887 2.286804 -0.551203
-0.83120245 2.1177373 -0.7428155
-1.5084026 0.10095426 -1.5568714
-1.2298548 2.534721 0.080987915
-1.6737645 1.1180781 1.2567269
-1.6958694 1.0269725 1.28486
-1.4768971 -0.79992634 1.3511766
-2.0303414 1.0794291 0.84740055
-1.6720027 -0.65869176 1.1796672
-1.2270892 2.072179 -0.7694592
-1.7976434 1.2270144 -0.9005718
-0.7288671 1.2729461 1.6259122
-0.8270389 -1.129607 1.6852816
-0.8229395 1.9156977 1.1290302
-0.85981923 1.9246188 -0.9255289
0.717061 1.0560688 1.6612973
0.6592684 -1.0963317 1.757683
1.4914302 -1.281891 0.8976371
0.9324591 1.9678158 -0.86685634
1.4278655 1.0695766 -1.3087835
1.6461798 2.450463 -0.27003306
1.284534 2.159214 -0.61701363
2.0246599 3.0287488 -0.41511768
-0.08856584 1.8598411 -1.0681431
0.72996515 0.60385394 1.9404545
0.7396664 1.9775919 1.1116415
1.0720667 2.3546417 -0.2686361
0.93025553 2.026917 -0.8050875
1.6045569 1.5450362 1.1570222
1.470759 1.8795241 1.1222669
2.067828 0.89117914 0.74167657
2.2250147 2.6827085 -0.4853098
2.0252366 1.1614431 -0.6916994
-1.6366687 -1.1593359 -0.7016357
-0.989101 -0.6021409 -1.9860848
-0.5847785 1.1392409 -1.7073473
-0.9843562 -1.2786207 -1.641407
-0.683909 -0.8022525 -2.1769516
1.8539526 -1.1679231 0.022745842
0.8223311 0.23519985 -1.9790657
0.90235096 -0.64373153 -2.0408583
-0.12949225 -1.6089923 -1.8743016
0.009815661 -0.7506467 -2.4159374
0.08933098 -1.3495486 -2.2100756
6 0 202 137 126 291 1
5 2 286 137 202 203
6 0 288 121 285 203 202
5 0 1 116 120 288
6 1 291 127 128 117 116
7 2 203 285 114 289 3 204
5 2 204 299 115 286
7 3 289 122 283 112 4 205
6 3 205 282 138 299 204
4 4 112 7 206
7 4 206 5 6 111 282 205
8 5 206 7 188 187 325 8 207
5 5 207 140 139 6
6 6 139 300 29 224 111
6 7 112 283 113 284 188
7 8 208 9 10 209 140 207
4 8 325 279 208
7 9 208 279 107 252 110 281
5 9 281 105 106 10
6 11 298 300 139 140 209
6 10 106 12 210 11 209
6 11 210 304 147 136 298
6 12 106 105 278 103 211
7 12 211 13 212 14 304 210
7 13 211 103 276 71 72 277
5 13 277 104 308 212
7 14 212 308 156 102 15 213
6 14 213 101 148 147 304
6 15 214 32 226 101 213
6 15 102 33 227 16 214
6 16 215 17 146 32 214
4 16 227 31 215
7 17 215 31 316 173 18 216
5 17 216 26 25 146
5 18 217 303 26 216
6 18 173 174 307 19 217
5 19 307 154 24 20
8 19 20 218 23 145 144 303 217
6 21 149 305 23 218 219
7 20 24 317 175 176 219 218
7 21 219 176 318 177 22 220
6 21 220 133 295 150 149
6 22 177 178 319 171 315
6 22 315 131 293 133 220
4 23 305 124 145
5 24 154 155 172 317
7 25 221 222 27 226 32 146
4 28 222 221 135
9 25 26 303 144 134 296 297 135 221
7 27 222 28 223 136 147 148
4 27 148 101 226
5 29 300 298 136 223
8 28 135 297 225 30 224 29 223
5 30 138 282 111 224
6 30 225 119 115 299 138
5 119 225 297 296 287
6 31 227 33 228 34 316
5 33 102 156 157 228
6 34 228 157 233 35 229
6 34 229 36 174 173 316
8 35 275 100 39 232 230 36 229
6 35 233 40 42 43 275
8 36 230 37 231 155 154 307 174
5 37 230 232 179 320
4 38 172 155 231
5 37 320 321 38 231
7 38 321 180 181 175 317 172
5 39 100 45 235 183
6 39 183 322 49 179 232
7 40 233 157 156 308 104 41
5 40 41 309 234 42
6 41 104 277 72 158 309
6 42 234 196 274 44 43
7 58 330 196 234 309 158 246
5 43 44 45 100 275
7 44 274 99 46 236 235 45
6 47 237 322 183 235 236
4 46 99 95 273
7 46 273 98 186 324 47 236
5 49 322 237 238 239
7 47 324 50 240 48 238 237
5 48 170 182 239 238
6 48 240 185 323 169 170
7 49 239 182 180 321 320 179
7 50 324 186 53 242 52 51
7 50 51 241 167 166 185 240
6 159 310 319 178 167 241
6 51 52 97 83 159 241
4 52 242 311 97
4 53 186 98 243
7 53 243 54 272 160 311 242
7 54 243 98 273 95 55 244
5 54 244 271 96 272
7 55 95 99 274 196 330 56
8 55 56 245 57 161 94 271 244
4 56 330 58 245
8 57 74 73 256 76 75 257 161
7 57 245 58 246 59 247 74
6 59 246 158 72 71 255
5 60 63 73 74 247
6 59 255 61 248 60 247
7 60 248 70 254 64 250 63
5 61 62 249 70 248
5 61 255 71 276 62
5 69 254 70 249 151
6 62 276 103 278 151 249
5 63 250 65 256 73
6 64 68 67 251 65 250
5 64 254 69 253 68
5 65 251 199 76 256
6 66 193 333 199 251 67
7 66 252 107 108 328 192 193
6 66 67 68 253 110 252
7 69 151 278 105 281 110 253
4 94 161 257 198
7 75 77 78 258 332 198 257
7 75 76 199 333 201 335 77
5 77 335 200 334 78
6 79 259 331 197 332 258
6 78 334 91 268 79 258
4 80 82 331 259
5 79 268 90 80 259
8 80 90 267 89 266 260 81 82
7 81 160 272 96 197 331 82
7 81 260 261 83 97 311 160
4 84 261 260 266
8 83 261 84 262 85 263 310 159
6 85 262 86 264 152 306
6 84 266 89 327 86 262
4 171 319 310 263
6 85 306 131 315 171 263
6 87 142 141 301 152 264
7 86 327 190 88 265 87 264
4 87 265 302 142
7 88 190 191 270 93 132 294
7 88 294 284 113 143 302 265
6 89 267 153 191 190 327
7 90 268 91 92 269 153 267
6 91 334 200 194 329 92
4 153 269 270 191
6 92 329 326 93 270 269
6 93 326 189 109 280 132
6 94 198 332 197 96 271
7 107 279 325 187 280 109 108
4 108 109 189 328
6 132 280 187 188 284 294
4 113 283 122 143
7 114 141 142 302 143 122 289
7 114 285 121 129 130 301 141
8 115 119 287 290 125 126 137 286
4 116 117 118 120
4 117 128 292 118
6 118 292 129 121 288 120
5 123 290 287 296 134
7 123 124 305 149 150 125 290
5 123 134 144 145 124
6 125 150 295 127 291 126
8 127 295 133 293 130 129 292 128
6 130 293 131 306 152 301
4 162 168 184 165
4 162 164 314 168
6 162 165 313 312 163 164
8 163 181 180 182 170 169 314 164
6 163 312 318 176 175 181
7 166 167 178 177 318 312 313
6 165 184 323 185 166 313
5 168 314 169 323 184
7 189 326 329 194 195 192 328
5 192 195 201 333 193
5 194 200 335 201 195
