ply
format ascii 1.0
comment Created in Blender version 4.2.2 LTS
element vertex 38
property float x
property float y
property float z
element face 22
property list uchar uint vertex_indices
end_header
-14.475493 13.523863 -1.1800396
-14.504177 13.602929 0.8429222
-0.056313865 -29.31573 -0.7269682
14.778306 13.827784 -0.9943608
14.808054 13.907949 1.0422225
-0.8884647 13.74466 0.9355149
1.1863018 13.7662525 0.9496205
0.85205203 -10.675102 1.1092103
-0.7617396 -10.675104 1.0981327
-0.98354346 13.826643 3.0495281
1.1141531 13.84786 3.049513
-0.056276724 -29.32204 1.2264665
0.8098542 -8.779647 3.0495305
-0.85949814 -8.779645 3.0495315
-0.98308927 -10.675104 6.0438843
0.70546174 -8.77964 6.0438647
-0.99349135 -8.779648 6.043884
0.7321942 -10.675096 4.546686
-0.9160551 -10.675102 4.5467014
0.6574996 -12.346891 6.0438633
0.7097175 -12.346891 4.546684
-2.7228873 -10.675107 6.043918
-2.7229066 -10.675107 4.5467386
-2.7228832 -12.346905 6.043918
-2.7229025 -12.346905 4.5467386
-13.586892 10.883817 -1.1521186
-12.723127 8.317557 -1.1249778
-13.591986 10.895489 -0.020478368
-12.78991 8.512362 0.049397588
-16.941772 9.75458 -1.1555777
-16.078009 7.18832 -1.1284369
-16.14479 7.3831244 0.045938548
-15.269426 10.33087 -0.022207888
-14.46735 7.947743 0.04766807
-16.958246 9.7965 1.1383208
-16.15617 7.413373 1.2081968
-15.280807 10.361118 1.1400504
-14.47873 7.9779916 1.2099264
8 11 1 0 25 27 28 26 2
5 20 24 22 18 17
4 11 2 3 4
4 19 23 24 20
4 10 9 13 12
6 14 21 23 19 15 16
4 7 17 18 8
4 12 13 16 15
4 21 22 24 23
4 14 18 22 21
7 8 18 14 16 13 9 5
8 6 10 12 15 19 20 17 7
7 6 7 8 5 1 11 4
8 3 0 1 5 9 10 6 4
7 26 30 29 25 0 3 2
5 31 35 34 29 30
6 27 25 29 34 36 32
4 28 27 32 33
4 37 36 34 35
4 33 32 36 37
4 31 33 37 35
5 26 28 33 31 30
