ply
format ascii 1.0
comment Created in Blender version 4.0.2
element vertex 43
property float x
property float y
property float z
element face 33
property list uchar uint vertex_indices
end_header
1.4066742e-07 1.5626462 -0.5381377
1.4066742e-07 1.5626462 0.5381377
1.0044497 1.1970564 -0.5381377
1.0044497 1.1970564 0.5381377
1.538906 0.27135074 -0.5381377
1.538906 0.27135074 0.5381377
1.3532913 -0.781323 -0.5381377
1.3532913 -0.781323 0.5381377
0.5344566 -1.4684068 -0.5381377
0.5344566 -1.4684068 0.5381377
-0.53445625 -1.4684068 -0.5381377
-0.53445625 -1.4684068 0.5381377
-1.3532909 -0.781323 -0.5381377
-1.3532909 -0.781323 0.5381377
-1.5389057 0.27135074 -0.5381377
-1.5389057 0.27135074 0.5381377
-1.0044495 1.1970564 -0.5381377
-1.0044495 1.1970564 0.5381377
-1.41478 -0.4325862 -0.53814113
-1.4902227 -0.004722305 -0.5381427
-1.4110155 -0.45394516 -0.1379491
-1.4845924 -0.036668625 -0.13169856
0.0857884 0.102534264 -1.3585432
-2.4832397 -0.63612926 -0.1378464
-2.5575824 -0.21450627 -0.13153021
-2.831266 -0.67332816 -0.53812766
-2.9077249 -0.23970456 -0.5381248
-2.4789765 -0.6603162 0.3176704
-2.5512934 -0.25019062 0.32380852
-2.8232484 -0.71880835 0.31770185
-2.895811 -0.30728787 0.3238605
1.1218383 0.9937419 -0.5381321
1.3211116 0.64858055 -0.5381388
1.3240793 0.64344144 -0.21759978
1.1383066 0.9652092 -0.21324089
2.3390467 1.6965054 -0.5381268
2.5377007 1.3524262 -0.538136
2.2665439 1.1887459 -0.21758716
2.0812793 1.5096345 -0.21324082
2.5442507 1.3410823 0.17960927
2.3756182 1.6331629 0.1835377
2.2701526 1.1824957 0.17960566
2.1013744 1.4748282 0.18353769
4 0 1 3 2
8 2 3 5 4 32 33 34 31
4 4 5 7 6
4 6 7 9 8
4 8 9 11 10
4 10 11 13 12
8 12 13 15 14 19 21 20 18
9 3 1 17 15 13 11 9 7 5
4 14 15 17 16
4 16 17 1 0
3 0 22 16
4 20 21 24 23
3 12 22 10
3 10 22 8
3 8 22 6
3 6 22 4
3 16 22 14
5 14 22 12 18 19
5 22 2 31 32 4
3 2 22 0
4 23 24 28 27
4 35 40 39 36
4 27 28 30 29
6 19 26 30 28 24 21
4 25 29 30 26
4 32 31 35 36
4 18 25 26 19
6 33 32 36 39 41 37
4 34 33 37 38
4 42 41 39 40
6 25 18 20 23 27 29
4 38 37 41 42
6 31 34 38 42 40 35
