ply
format ascii 1.0
comment Created in Blender version 4.2.3 LTS
element vertex 64
property float x
property float y
property float z
element face 62
property list uchar uint vertex_indices
end_header
0.8094644 0.8094644 -5.421612
0.62345517 0.62345517 -5.7087145
0.8094644 -0.8094644 -5.421612
0.62345517 -0.62345517 -5.7087145
-0.8094644 0.8094644 -5.421612
-0.62345517 0.62345517 -5.7087145
-0.8094644 -0.8094644 -5.421612
-0.62345517 -0.62345517 -5.7087145
0.8094644 -0.8094644 -4.0355134
-0.8094644 -0.8094644 -4.0355134
0.8094644 0.8094644 -4.0355134
-0.8094644 0.8094644 -4.0355134
0.62701523 -0.62701523 -3.8321261
-0.62701523 -0.62701523 -3.8321261
0.62701523 0.62701523 -3.8321261
-0.62701523 0.62701523 -3.8321261
0.62701523 -0.62701523 -3.33623
-0.62701523 -0.62701523 -3.33623
0.62701523 0.62701523 -3.33623
-0.62701523 0.62701523 -3.33623
0.8033623 -0.8033623 -3.1523504
-0.8033623 -0.8033623 -3.1523504
0.8033623 0.8033623 -3.1523504
-0.8033623 0.8033623 -3.1523504
0.8033623 -0.8033623 -1.4528989
-0.8033623 -0.8033623 -1.4528989
0.8033623 0.8033623 -1.4528989
-0.8033623 0.8033623 -1.4528989
0.671677 -0.671677 -1.2800213
-0.671677 -0.671677 -1.2800213
0.671677 0.671677 -1.2800213
-0.671677 0.671677 -1.2800213
0.671677 -0.671677 -0.23669103
-0.671677 -0.671677 -0.23669103
0.671677 0.671677 -0.23669103
-0.671677 0.671677 -0.23669103
0.8215747 -0.8215747 0.07256967
-0.8215747 -0.8215747 0.07256967
0.8215747 0.8215747 0.07256967
-0.8215747 0.8215747 0.07256967
0.8215747 -0.8215747 1.9636073
-0.8215747 -0.8215747 1.9636073
0.8215747 0.8215747 1.9636073
-0.8215747 0.8215747 1.9636073
0.69635105 -0.69635105 2.374162
-0.69635105 -0.69635105 2.374162
0.69635105 0.69635105 2.374162
-0.69635105 0.69635105 2.374162
0.69635105 -0.69635105 3.518933
-0.69635105 -0.69635105 3.518933
0.69635105 0.69635105 3.518933
-0.69635105 0.69635105 3.518933
0.83710545 -0.83710545 4.081313
-0.83710545 -0.83710545 4.081313
0.83710545 0.83710545 4.081313
-0.83710545 0.83710545 4.081313
0.83710545 -0.83710545 5.3150015
-0.83710545 -0.83710545 5.3150015
0.83710545 0.83710545 5.3150015
-0.83710545 0.83710545 5.3150015
0.7049824 -0.7049824 5.570694
-0.7049824 -0.7049824 5.570694
0.7049824 0.7049824 5.570694
-0.7049824 0.7049824 5.570694
4 2 0 10 8
4 3 2 6 7
4 7 6 4 5
4 5 1 3 7
4 1 0 2 3
4 5 4 0 1
4 11 9 13 15
4 0 4 11 10
4 6 2 8 9
4 4 6 9 11
4 14 15 19 18
4 9 8 12 13
4 10 11 15 14
4 8 10 14 12
4 16 18 22 20
4 12 14 18 16
4 15 13 17 19
4 13 12 16 17
4 23 21 25 27
4 19 17 21 23
4 17 16 20 21
4 18 19 23 22
4 26 27 31 30
4 21 20 24 25
4 22 23 27 26
4 20 22 26 24
4 31 29 33 35
4 24 26 30 28
4 27 25 29 31
4 25 24 28 29
4 35 33 37 39
4 29 28 32 33
4 30 31 35 34
4 28 30 34 32
4 38 39 43 42
4 33 32 36 37
4 34 35 39 38
4 32 34 38 36
4 43 41 45 47
4 36 38 42 40
4 39 37 41 43
4 37 36 40 41
4 45 44 48 49
4 41 40 44 45
4 42 43 47 46
4 40 42 46 44
4 50 51 55 54
4 46 47 51 50
4 44 46 50 48
4 47 45 49 51
4 55 53 57 59
4 48 50 54 52
4 51 49 53 55
4 49 48 52 53
4 58 59 63 62
4 53 52 56 57
4 54 55 59 58
4 52 54 58 56
4 62 63 61 60
4 56 58 62 60
4 59 57 61 63
4 57 56 60 61
