ply
format ascii 1.0
comment Created in Blender version 4.0.2
element vertex 156
property float x
property float y
property float z
element face 86
property list uchar uint vertex_indices
end_header
1.1581144 0.20620054 0.08451904
0.98377204 0.14327127 0.22217585
0.75156915 0.25419682 0.110747054
0.76037836 0.15766393 -0.09803565
0.9624692 0.21038097 -0.2103765
1.1581465 0.20629591 -0.091438785
0.9395015 0.62259406 0.14898628
0.74518186 0.618632 0.22505724
0.59497565 0.50838983 0.102758065
0.5950029 0.5083645 -0.10712116
0.80716085 0.567987 -0.22607793
0.92912793 0.6426582 -0.14407852
0.4919798 1.0315483 0.12825751
0.41694468 0.879755 0.22802073
0.34759325 0.714565 0.12588724
0.34758782 0.71456414 -0.12589286
0.41706556 0.8798687 -0.22807014
0.49120742 1.0319884 -0.12806416
-0.041847203 1.1419845 0.12801868
-0.07844689 0.9782308 0.23002784
-0.024304595 0.7941596 0.12603393
-0.024304165 0.79415584 -0.12602538
-0.07840454 0.9782161 -0.23012626
-0.041849323 1.1419859 -0.12804922
-0.5998478 1.0138419 0.07743675
-0.45716777 0.84957224 0.22380403
-0.39061463 0.69190526 0.12620828
-0.39061075 0.69190294 -0.12620598
-0.45711502 0.8496653 -0.22377238
-0.5998462 1.0138392 -0.077435866
-0.94775444 0.62103915 0.15151143
-0.9110962 0.3562135 0.2224782
-0.69440454 0.40621352 0.12412002
-0.69410825 0.40641275 -0.12416333
-0.9110774 0.35621047 -0.2223606
-0.94781846 0.6209687 -0.15150012
-1.1711589 0.098033085 0.07184209
-0.98562044 0.10334328 0.22801682
-0.8221632 -0.111093 0.14800912
-0.8246301 -0.122323126 -0.14630006
-0.9864747 0.10550891 -0.22674231
-1.1711576 0.098031335 -0.07183723
-1.0751601 -0.47736853 0.09881216
-0.8496703 -0.44060436 0.21371186
-0.72339207 -0.28610116 0.10224384
-0.6529138 -0.43545032 -0.0750923
-0.82256263 -0.49383318 -0.2182074
-1.0751622 -0.47736222 -0.099151455
-0.7288357 -0.868312 0.14477754
-0.61752844 -0.75237393 0.21344443
-0.48685962 -0.59122396 0.09777743
-0.4290848 -0.6771294 -0.12833422
-0.6188228 -0.7501 -0.21371388
-0.7286252 -0.8685597 -0.14477849
-0.23839994 -1.1507499 0.07350774
-0.13595943 -0.9835138 0.21348098
-0.17332901 -0.75266224 0.10334723
-0.105938554 -0.77149284 -0.096284896
-0.19359332 -0.9592561 -0.21540219
-0.2383923 -1.150724 -0.07344869
0.3443159 -1.1248568 0.08544392
0.20279424 -0.94764173 0.2068384
0.34387314 -0.7283709 0.12789565
0.32662427 -0.70532095 -0.07921583
0.35249284 -0.9117332 -0.21753058
0.34431177 -1.1248118 -0.09136638
0.78266007 -0.822325 0.14130968
0.7442999 -0.644665 0.22988328
0.515535 -0.574921 0.098879285
0.6194462 -0.5032443 -0.11659076
0.7264292 -0.6487225 -0.21873692
0.7746621 -0.8277879 -0.1446832
1.1135837 -0.37538224 0.07352146
0.94972515 -0.27154195 0.2133984
0.7099866 -0.27738214 0.10046561
0.7851495 -0.1610685 -0.12845117
0.92479414 -0.31411538 -0.21607175
1.1135936 -0.3753405 -0.07333759
1.0677669 0.378198 0.14526612
0.9749649 0.18634343 0.21739396
0.75640464 0.20093249 0.096167386
0.7564174 0.20089677 -0.10715698
0.92629707 0.34122518 -0.22616643
1.056665 0.3996751 -0.144049
0.827547 0.8360497 0.091620676
0.67811394 0.6996783 0.21269849
0.5745901 0.5253756 0.09643396
0.5616525 0.5362109 -0.097937465
0.721037 0.67093366 -0.21041608
0.8276586 0.83599937 -0.09166402
0.330857 1.1254073 0.09210649
0.26741612 0.93544734 0.21315715
0.21482626 0.74296165 0.102116235
0.21425813 0.74308723 -0.102096304
0.26741603 0.9354774 -0.21321853
0.33085787 1.1254091 -0.09210706
-0.23842722 1.1507782 0.0736217
-0.19915208 0.9565282 0.2149662
-0.15715426 0.7570562 0.10189536
-0.1571357 0.757053 -0.10194883
-0.19917265 0.95649564 -0.21503046
-0.23842713 1.1507784 -0.07362189
-0.73953885 0.856071 0.15004764
-0.5483084 0.7880535 0.2147364
-0.50616664 0.58320373 0.09886642
-0.50612557 0.58322704 -0.098882906
-0.54860324 0.7880144 -0.21462977
-0.7395655 0.856035 -0.15006958
-1.0787534 0.47323638 0.07135104
-0.93536335 0.3093943 0.22731355
-0.6777586 0.4738909 0.14540194
-0.6759387 0.47993356 -0.14724243
-0.93560165 0.31011313 -0.22693144
-1.07876 0.47322026 -0.07139595
-1.1451395 -0.0576242 0.12670337
-0.9573914 -0.041012727 0.2345894
-0.8044888 -0.039447945 0.1254349
-0.79173744 0.011249175 -0.09449132
-0.9868104 0.10769594 -0.22691682
-1.1451331 -0.05768133 -0.12661806
-0.919361 -0.6531905 0.14855121
-0.80808437 -0.5211165 0.22204137
-0.7010682 -0.36335182 0.1185114
-0.79223514 -0.29776466 -0.15611269
-0.8073109 -0.525486 -0.22096789
-0.91910017 -0.65353185 -0.148546
-0.5998752 -1.0138373 0.07732797
-0.50156206 -0.83235556 0.22603062
-0.38723242 -0.6930454 0.12568977
-0.42364988 -0.6829941 -0.13007316
-0.5001482 -0.83216727 -0.22646819
-0.5998709 -1.013859 -0.07742976
-0.034516476 -1.1417408 0.13038078
-0.03857558 -0.99871624 0.2273415
-0.016167495 -0.79649055 0.13466084
-0.080892056 -0.7784939 -0.10248065
-0.08105585 -0.9747975 -0.23264569
-0.041850783 -1.1419644 -0.12809044
0.47006333 -1.0381138 0.12519914
0.34159955 -0.93539244 0.19164799
0.27930126 -0.7379715 0.10893944
0.24170983 -0.76395863 -0.112862
0.38180745 -0.89928585 -0.22133392
0.5428324 -0.98777115 -0.14912593
0.9341993 -0.71772015 0.07750523
0.73338604 -0.65509856 0.22784436
0.5899435 -0.5235457 0.11870038
0.56917083 -0.6137854 -0.15124632
0.766518 -0.6045294 -0.22355273
0.93414307 -0.71768916 -0.07742376
1.1284543 -0.18082245 0.12757218
0.99164784 -0.13545197 0.23077264
0.78526664 -0.11528582 0.13315319
0.78879416 -0.15378812 -0.13026765
0.9611898 -0.19739266 -0.23071626
1.128607 -0.17943472 -0.12789735
6 0 150 72 77 155 5
5 0 78 1 151 150
7 1 79 2 152 74 73 151
6 2 80 81 3 153 152
6 3 4 154 76 75 153
6 4 82 83 5 155 154
8 0 5 83 11 89 84 6 78
5 1 78 6 7 79
7 2 79 7 85 86 8 80
4 8 9 81 80
8 3 81 9 87 88 10 82 4
4 10 11 83 82
6 12 84 89 17 95 90
6 6 84 12 13 85 7
6 13 91 92 14 86 85
6 8 86 14 15 87 9
6 15 93 94 16 88 87
6 10 88 16 17 89 11
6 18 90 95 23 101 96
6 12 90 18 19 91 13
6 19 97 98 20 92 91
6 14 92 20 21 93 15
6 21 99 100 22 94 93
6 16 94 22 23 95 17
4 24 96 101 29
7 18 96 24 102 25 97 19
6 25 103 104 26 98 97
6 20 98 26 27 99 21
6 27 105 106 28 100 99
7 22 100 28 107 29 101 23
8 24 29 107 35 113 108 30 102
6 25 102 30 109 31 103
5 31 110 32 104 103
6 26 104 32 33 105 27
5 33 111 34 106 105
6 28 106 34 112 35 107
4 36 108 113 41
6 30 108 36 114 37 109
3 38 37 115
8 32 110 38 116 117 39 111 33
6 34 111 39 118 40 112
6 35 112 40 119 41 113
6 36 41 119 47 42 114
6 37 114 42 120 121 43
5 38 115 43 44 116
5 44 122 45 117 116
6 39 117 45 123 46 118
7 40 118 46 124 125 47 119
8 42 47 125 53 131 126 48 120
5 48 127 49 121 120
6 43 121 49 50 122 44
7 45 122 50 128 129 51 123
5 46 123 51 52 124
5 52 130 53 125 124
4 54 126 131 59
7 48 126 54 132 133 55 127
6 49 127 55 56 128 50
6 56 134 135 57 129 128
6 51 129 57 58 130 52
7 53 130 58 136 137 59 131
6 54 59 137 65 60 132
3 138 61 133
3 61 139 62
5 62 140 63 135 134
7 57 135 63 141 64 136 58
6 64 142 143 65 137 136
8 60 65 143 71 149 144 66 138
3 138 66 145
3 62 139 67
6 63 140 68 146 69 141
6 64 141 69 147 70 142
5 70 148 71 143 142
4 72 144 149 77
7 66 144 72 150 151 73 145
6 67 145 73 74 146 68
7 69 146 74 152 153 75 147
5 70 147 75 76 148
7 71 148 76 154 155 77 149
4 140 62 67 68
3 61 138 139
4 139 138 145 67
5 55 133 62 134 56
3 133 61 62
4 60 138 133 132
3 115 37 43
5 31 109 37 38 110
