ply
format ascii 1.0
comment Created in Blender version 4.2.2 LTS
element vertex 249
property float x
property float y
property float z
element face 128
property list uchar uint vertex_indices
end_header
-0.95486116 -0.95486116 -0.08680558
-0.95486116 -0.78125006 -0.26041663
-0.95486116 -0.78125006 -0.08680558
-0.78125006 -0.95486116 -0.26041663
-0.78125006 -0.95486116 -0.08680558
-0.78125006 -0.78125006 -0.26041663
-0.78125006 -0.78125006 -0.08680558
-1.1284723 -0.6076389 -0.26041663
-1.3020834 -0.26041663 -0.08680558
-1.1284723 -0.26041663 -0.08680558
-0.95486116 -0.6076389 -0.26041663
-0.78125006 -0.4340278 -0.26041663
-0.78125006 -0.4340278 -0.08680558
-0.78125006 -0.26041663 -0.08680558
-0.6076389 -1.1284723 -0.26041663
-0.6076389 -0.95486116 -0.26041663
-0.4340278 -0.78125006 -0.26041663
-0.4340278 -0.78125006 -0.08680558
-0.26041663 -1.3020834 -0.08680558
-0.26041663 -1.1284723 -0.08680558
-0.26041663 -0.78125006 -0.08680558
-0.6076389 -0.6076389 -0.26041663
-0.6076389 -0.4340278 -0.26041663
-0.6076389 -0.4340278 -0.08680558
-0.4340278 -0.6076389 -0.26041663
-0.4340278 -0.6076389 -0.08680558
-0.6076389 -0.26041663 -0.08680558
-0.26041663 -0.6076389 -0.08680558
-0.95486116 -0.95486116 0.08680558
-0.95486116 -0.78125006 0.08680558
-0.95486116 -0.78125006 0.26041663
-0.78125006 -0.95486116 0.08680558
-0.78125006 -0.95486116 0.26041663
-0.78125006 -0.78125006 0.08680558
-0.78125006 -0.78125006 0.26041663
-1.1284723 -0.6076389 0.26041663
-1.3020834 -0.26041663 0.08680558
-1.1284723 -0.26041663 0.08680558
-1.1284723 -0.26041663 0.26041663
-1.1284723 -0.08680558 0.08680558
-1.1284723 -0.08680558 0.26041663
-0.95486116 -0.6076389 0.26041663
-0.78125006 -0.4340278 0.08680558
-0.78125006 -0.4340278 0.26041663
-0.78125006 -0.26041663 0.08680558
-0.6076389 -1.1284723 0.26041663
-0.6076389 -0.95486116 0.26041663
-0.4340278 -0.78125006 0.08680558
-0.4340278 -0.78125006 0.26041663
-0.26041663 -1.3020834 0.08680558
-0.26041663 -1.1284723 0.08680558
-0.26041663 -0.78125006 0.08680558
-0.6076389 -0.6076389 0.26041663
-0.6076389 -0.4340278 0.08680558
-0.6076389 -0.4340278 0.26041663
-0.4340278 -0.6076389 0.08680558
-0.4340278 -0.6076389 0.26041663
-0.6076389 -0.26041663 0.08680558
-0.26041663 -0.6076389 0.08680558
-1.3020834 0.26041663 -0.08680558
-1.1284723 0.26041663 -0.08680558
-1.1284723 0.60763896 -0.26041663
-0.78125006 0.26041663 -0.08680558
-0.95486116 0.60763896 -0.26041663
-0.78125006 0.4340278 -0.26041663
-0.78125006 0.4340278 -0.08680558
-0.95486116 0.7812501 -0.26041663
-0.95486116 0.7812501 -0.08680558
-0.95486116 0.95486104 -0.08680558
-0.78125006 0.7812501 -0.26041663
-0.78125006 0.7812501 -0.08680558
-0.78125006 0.95486104 -0.26041663
-0.78125006 0.95486104 -0.08680558
-0.6076389 0.26041663 -0.08680558
-0.6076389 0.4340278 -0.26041663
-0.6076389 0.4340278 -0.08680558
-0.6076389 0.60763896 -0.26041663
-0.4340278 0.60763896 -0.26041663
-0.4340278 0.60763896 -0.08680558
-0.26041663 0.60763896 -0.08680558
-0.6076389 0.95486104 -0.26041663
-0.4340278 0.7812501 -0.26041663
-0.4340278 0.7812501 -0.08680558
-0.6076389 1.1284722 -0.26041663
-0.26041663 0.7812501 -0.08680558
-0.26041663 1.1284722 -0.26041663
-0.26041663 1.1284722 -0.08680558
-0.26041663 1.3020834 -0.08680558
-0.08680558 1.1284722 -0.26041663
-0.08680558 1.1284722 -0.08680558
-1.3020834 0.26041663 0.08680558
-1.1284723 0.26041663 0.08680558
-1.1284723 0.60763896 0.26041663
-0.78125006 0.26041663 0.08680558
-0.95486116 0.60763896 0.26041663
-0.78125006 0.4340278 0.08680558
-0.78125006 0.4340278 0.26041663
-0.95486116 0.7812501 0.08680558
-0.95486116 0.7812501 0.26041663
-0.95486116 0.95486104 0.08680558
-0.78125006 0.7812501 0.08680558
-0.78125006 0.7812501 0.26041663
-0.78125006 0.95486104 0.08680558
-0.78125006 0.95486104 0.26041663
-0.6076389 0.26041663 0.08680558
-0.6076389 0.4340278 0.08680558
-0.6076389 0.4340278 0.26041663
-0.6076389 0.60763896 0.26041663
-0.4340278 0.60763896 0.08680558
-0.4340278 0.60763896 0.26041663
-0.26041663 0.60763896 0.08680558
-0.6076389 0.95486104 0.26041663
-0.4340278 0.7812501 0.08680558
-0.4340278 0.7812501 0.26041663
-0.6076389 1.1284722 0.26041663
-0.26041663 0.7812501 0.08680558
-0.26041663 1.1284722 0.08680558
-0.26041663 1.3020834 0.08680558
0.26041663 -1.3020834 -0.08680558
0.26041663 -1.1284723 -0.08680558
0.26041663 -0.78125006 -0.08680558
0.60763896 -1.1284723 -0.26041663
0.4340278 -0.78125006 -0.26041663
0.4340278 -0.78125006 -0.08680558
0.60763896 -0.95486116 -0.26041663
0.26041663 -0.6076389 -0.08680558
0.4340278 -0.6076389 -0.26041663
0.4340278 -0.6076389 -0.08680558
0.60763896 -0.6076389 -0.26041663
0.60763896 -0.4340278 -0.26041663
0.60763896 -0.4340278 -0.08680558
0.60763896 -0.26041663 -0.08680558
0.7812501 -0.95486116 -0.26041663
0.7812501 -0.95486116 -0.08680558
0.7812501 -0.78125006 -0.26041663
0.7812501 -0.78125006 -0.08680558
0.95486104 -0.95486116 -0.08680558
0.95486104 -0.78125006 -0.26041663
0.95486104 -0.78125006 -0.08680558
0.7812501 -0.4340278 -0.26041663
0.7812501 -0.4340278 -0.08680558
0.95486104 -0.6076389 -0.26041663
0.7812501 -0.26041663 -0.08680558
1.1284722 -0.6076389 -0.26041663
1.1284722 -0.26041663 -0.26041663
1.1284722 -0.26041663 -0.08680558
1.1284722 -0.08680558 -0.26041663
1.1284722 -0.08680558 -0.08680558
1.3020834 -0.26041663 -0.08680558
0.26041663 -1.3020834 0.08680558
0.26041663 -1.1284723 0.08680558
0.26041663 -0.78125006 0.08680558
0.60763896 -1.1284723 0.26041663
0.4340278 -0.78125006 0.08680558
0.4340278 -0.78125006 0.26041663
0.60763896 -0.95486116 0.26041663
0.26041663 -0.6076389 0.08680558
0.4340278 -0.6076389 0.08680558
0.4340278 -0.6076389 0.26041663
0.60763896 -0.6076389 0.26041663
0.60763896 -0.4340278 0.08680558
0.60763896 -0.4340278 0.26041663
0.60763896 -0.26041663 0.08680558
0.7812501 -0.95486116 0.08680558
0.7812501 -0.95486116 0.26041663
0.7812501 -0.78125006 0.08680558
0.7812501 -0.78125006 0.26041663
0.95486104 -0.95486116 0.08680558
0.95486104 -0.78125006 0.08680558
0.95486104 -0.78125006 0.26041663
0.7812501 -0.4340278 0.08680558
0.7812501 -0.4340278 0.26041663
0.95486104 -0.6076389 0.26041663
0.7812501 -0.26041663 0.08680558
1.1284722 -0.6076389 0.26041663
1.1284722 -0.26041663 0.08680558
1.3020834 -0.26041663 0.08680558
0.26041663 0.60763896 -0.08680558
0.60763896 0.26041663 -0.08680558
0.4340278 0.60763896 -0.26041663
0.4340278 0.60763896 -0.08680558
0.60763896 0.4340278 -0.26041663
0.60763896 0.4340278 -0.08680558
0.60763896 0.60763896 -0.26041663
0.26041663 0.7812501 -0.08680558
0.26041663 1.1284722 -0.08680558
0.26041663 1.3020834 -0.08680558
0.4340278 0.7812501 -0.26041663
0.4340278 0.7812501 -0.08680558
0.60763896 0.95486104 -0.26041663
0.60763896 1.1284722 -0.26041663
0.7812501 0.26041663 -0.08680558
0.7812501 0.4340278 -0.26041663
0.7812501 0.4340278 -0.08680558
0.95486104 0.60763896 -0.26041663
1.1284722 0.26041663 -0.08680558
1.3020834 0.26041663 -0.08680558
1.1284722 0.60763896 -0.26041663
0.7812501 0.7812501 -0.26041663
0.7812501 0.7812501 -0.08680558
0.7812501 0.95486104 -0.26041663
0.7812501 0.95486104 -0.08680558
0.95486104 0.7812501 -0.26041663
0.95486104 0.7812501 -0.08680558
0.95486104 0.95486104 -0.08680558
0.26041663 0.60763896 0.08680558
0.60763896 0.26041663 0.08680558
0.4340278 0.60763896 0.08680558
0.4340278 0.60763896 0.26041663
0.60763896 0.4340278 0.08680558
0.60763896 0.4340278 0.26041663
0.60763896 0.60763896 0.26041663
0.26041663 0.7812501 0.08680558
0.26041663 1.1284722 0.08680558
0.26041663 1.3020834 0.08680558
0.4340278 0.7812501 0.08680558
0.4340278 0.7812501 0.26041663
0.60763896 0.95486104 0.26041663
0.60763896 1.1284722 0.26041663
0.7812501 0.26041663 0.08680558
0.7812501 0.4340278 0.08680558
0.7812501 0.4340278 0.26041663
0.95486104 0.60763896 0.26041663
1.1284722 0.26041663 0.08680558
1.3020834 0.26041663 0.08680558
1.1284722 0.60763896 0.26041663
0.7812501 0.7812501 0.08680558
0.7812501 0.7812501 0.26041663
0.7812501 0.95486104 0.08680558
0.7812501 0.95486104 0.26041663
0.95486104 0.7812501 0.08680558
0.95486104 0.7812501 0.26041663
0.95486104 0.95486104 0.08680558
-0.12948957 -1.1284723 -0.26041663
0.09404562 -1.1284723 -0.26041663
-0.12948957 -0.78125006 -0.26041663
0.09404562 -0.78125006 -0.26041663
-0.12948957 -1.1284723 0.08680558
-0.12948957 -1.3020834 0.08680558
0.09404562 -1.3020834 0.08680558
0.09404562 -1.1284723 0.08680558
0.09404562 -1.1284723 0.26041663
-0.12948957 -1.1284723 -0.08680558
0.09404562 -1.1284723 -0.08680558
0.09404562 -1.3020834 -0.08680558
-0.12948957 -1.3020834 -0.08680558
0.09404562 -0.78125006 0.26041663
-0.12948957 -0.78125006 0.26041663
-0.12948957 -1.1284723 0.26041663
4 3 4 6 5
4 1 5 6 2
4 0 2 6 4
11 61 7 35 38 37 9 60 91 39 40 92
54 241 152 155 164 166 169 172 174 225 222 231 227 229 217 218 114 111 103 101 98 94 92 40 38 35 41 30 34 32 46 45 248 247 48 56 52 54 43 96 106 107 109 113 216 208 211 210 221 171 161 159 158 154 246
12 13 12 11 64 65 62 93 95 96 43 42 44
4 12 23 22 11
4 12 13 26 23
4 24 25 17 16
4 17 25 27 20
4 31 32 34 33
4 29 33 34 30
4 31 33 29 28
4 37 38 40 39
8 230 231 222 194 202 203 204 232
4 10 41 35 7
8 53 54 52 21 22 23 26 57
4 43 54 53 42
4 53 57 44 42
8 168 167 136 138 137 141 172 169
4 55 56 48 47
4 51 58 55 47
8 97 99 68 67 66 63 94 98
4 143 174 172 141
4 225 197 194 222
4 69 70 72 71
4 67 70 69 66
4 67 68 72 70
4 86 89 88 85
4 64 74 75 65
5 186 185 89 86 87
4 62 65 75 73
4 8 59 60 9
4 81 82 78 77
4 78 82 84 79
4 190 218 217 189
4 100 101 103 102
4 98 101 100 97
4 100 102 99 97
11 86 85 83 114 218 190 88 89 185 213 116
4 80 111 114 83
4 95 105 106 96
4 104 105 95 93
4 112 113 109 108
4 110 115 112 108
8 160 162 131 130 129 128 159 161
4 134 135 133 132
4 134 137 138 135
4 133 135 138 136
8 207 205 177 180 179 183 211 208
4 146 147 145 144
4 94 63 61 92
4 237 50 49 238
4 239 149 150 240
4 130 140 139 129
4 130 131 142 140
4 122 123 127 126
4 120 125 127 123
4 243 119 118 244
4 18 19 242 245
8 20 51 47 48 247 235 16 17
8 154 153 151 120 123 122 236 246
4 165 166 164 163
4 165 168 169 166
4 167 168 165 163
4 214 117 116 213
4 161 171 170 160
4 170 173 162 160
4 153 154 158 157
4 153 157 156 151
12 221 220 219 191 193 192 139 140 142 173 170 171
4 200 201 199 198
4 199 203 202 198
4 199 201 204 203
4 181 192 193 182
4 178 182 193 191
4 179 180 188 187
4 176 224 223 175
4 177 184 188 180
4 14 45 46 15
12 187 188 184 212 215 216 113 112 115 84 82 81
11 225 174 143 144 145 175 223 195 147 146 197
4 228 229 227 226
4 227 231 230 226
4 230 232 228 226
4 209 220 221 210
4 219 220 209 206
4 207 208 216 215
4 207 215 212 205
4 124 155 152 121
4 36 90 59 8
8 19 50 237 248 45 14 233 242
8 41 10 1 2 0 28 29 30
8 31 28 0 4 3 15 46 32
4 8 9 37 36
4 18 49 50 19
8 55 58 27 25 24 21 52 56
4 27 58 51 20
4 44 57 26 13
4 90 91 60 59
8 80 71 72 68 99 102 103 111
56 236 122 126 128 129 139 192 181 183 179 187 81 77 76 74 64 11 22 21 24 16 235 233 14 15 3 5 1 10 7 61 63 66 69 71 80 83 85 88 190 189 200 198 202 194 197 146 144 143 141 137 134 132 124 121 234
8 108 109 107 76 77 78 79 110
5 196 148 145 147 195
4 86 116 117 87
4 244 118 149 239
4 49 18 245 238
4 84 115 110 79
4 62 73 104 93
4 119 150 149 118
4 117 214 186 87
8 163 164 155 124 132 133 136 167
5 90 36 37 39 91
4 145 148 176 175
4 120 151 156 125
4 162 173 142 131
8 128 126 127 125 156 157 158 159
8 211 183 181 182 178 206 209 210
4 224 176 148 196
4 186 214 213 185
8 105 104 73 75 74 76 107 106
4 223 224 196 195
8 228 232 204 201 200 189 217 229
4 177 205 212 184
4 178 191 219 206
8 233 235 247 248 237 238 245 242
8 239 240 241 246 236 234 243 244
8 121 152 241 240 150 119 243 234
