ply
format ascii 1.0
comment Created in Blender version 4.0.2
element vertex 266
property float x
property float y
property float z
element face 133
property list uchar uint vertex_indices
end_header
1.1860769 0.14819062 0.093101755
1.0287302 0.14955512 0.22305748
0.8351238 0.18722394 0.17743886
0.74613345 0.13989027 -0.0041899695
0.8276023 0.2194945 -0.17778458
1.0301735 0.094197765 -0.22537756
1.2014234 0.103734456 -0.06746414
1.0838585 0.44590852 0.13054177
0.92499876 0.47166938 0.22560994
0.7328311 0.40932593 0.17260295
0.6934211 0.31163514 -0.0072986195
0.7029151 0.44825917 -0.16426402
0.8841578 0.5287572 -0.22202002
1.0768358 0.46625015 -0.13185519
0.857017 0.8147981 0.109446816
0.7264267 0.7512202 0.22749417
0.5939517 0.6233024 0.18571617
0.5530378 0.51612365 -0.008100992
0.55202687 0.65340024 -0.17639461
0.71291226 0.76443714 -0.22163828
0.8352333 0.8399863 -0.106711544
0.55793786 1.0639349 0.0719347
0.42667317 0.95664716 0.2242629
0.2941677 0.8295089 0.18633415
0.29247755 0.6966801 -0.0055839457
0.29588187 0.81884754 -0.18532427
0.48428738 0.94021153 -0.22577007
0.5578892 1.0638351 -0.06726901
0.1440226 1.1922935 0.088814706
0.053183235 1.0435243 0.22528204
0.006577123 0.861241 0.18071026
0.047989666 0.75808746 -0.0041419966
0.014185533 0.85004497 -0.17610028
0.10878816 1.036819 -0.21906307
0.17177033 1.1832833 -0.09104985
-0.25588566 1.1679693 0.09338911
-0.24769157 1.0172334 0.22501417
-0.21673286 0.8103497 0.17211534
-0.13182011 0.74880385 -0.0072441753
-0.26308268 0.7927714 -0.17030947
-0.25483593 1.0124911 -0.22393379
-0.16065061 1.1602974 -0.13138156
-0.62907183 1.0204535 0.0923768
-0.58126646 0.863236 0.22481912
-0.4600326 0.72802365 0.18578753
-0.36400652 0.6631126 -0.00791173
-0.46251458 0.7123252 -0.18180421
-0.5272193 0.8965168 -0.22456506
-0.56679976 1.0628726 -0.06739666
-0.93615687 0.74951327 0.09355637
-0.7973485 0.65304047 0.22665563
-0.73143107 0.4959866 0.19336107
-0.60646623 0.45938516 0.0035769034
-0.67068785 0.52263254 -0.18255958
-0.7740275 0.68218917 -0.22287491
-0.85473824 0.8035943 -0.13014086
-1.1235145 0.40322107 0.10009793
-0.96181536 0.35089642 0.21890762
-0.7703868 0.33570772 0.17931953
-0.7204516 0.2453509 0.0003044903
-0.82551193 0.24125636 -0.18557905
-0.9460447 0.38090938 -0.22421326
-1.1123652 0.4237762 -0.106857486
-1.1680608 0.084701106 0.13100351
-1.0433042 0.02168497 0.21611936
-0.8406416 0.02726399 0.1750292
-0.75794876 -0.016328607 -0.008826211
-0.84919953 0.041909207 -0.17800024
-1.0454199 0.037274964 -0.2186491
-1.1874373 0.048158724 -0.10341914
-1.1576523 -0.3287158 0.06735009
-1.0238236 -0.25098598 0.2254727
-0.7887272 -0.31497276 0.18121861
-0.7376336 -0.1831753 -0.006390771
-0.7698604 -0.33006147 -0.17350683
-1.0320494 -0.21460886 -0.22342665
-1.1617446 -0.3036714 -0.06735774
-0.96273154 -0.710964 0.09573397
-0.8286567 -0.5951591 0.2225865
-0.6917395 -0.51497704 0.19052112
-0.5946136 -0.47383934 0.0032167053
-0.65317106 -0.56005013 -0.18621147
-0.82768667 -0.5831672 -0.22408204
-0.9858645 -0.63677853 -0.13235085
-0.7147062 -0.9273268 0.12972844
-0.6166605 -0.8296276 0.21910283
-0.50300914 -0.67472327 0.18189244
-0.41279203 -0.6329448 -0.008989673
-0.466245 -0.71836364 -0.17815915
-0.6153371 -0.8342033 -0.22288178
-0.68809044 -0.9690225 -0.10312663
-0.37064406 -1.1434336 0.06961489
-0.29003185 -1.0041225 0.21908456
-0.25536424 -0.8020276 0.18166192
-0.18608221 -0.73854154 0.003819623
-0.106753126 -0.83586144 -0.16500172
-0.2574926 -1.0116403 -0.22323322
-0.3708421 -1.143545 -0.069649965
0.0122044915 -1.1748134 0.12515289
-0.054948274 -1.0458887 0.22215973
0.18043007 -0.856835 0.18394987
0.07707365 -0.75332916 -0.009801517
0.22909899 -0.87375236 -0.19305088
-0.061821878 -1.0378551 -0.22765705
0.012352301 -1.1749399 -0.1252347
0.42364696 -1.1054304 0.110293955
0.3975561 -0.9397904 0.22603509
0.39369068 -0.7552084 0.17783156
0.23479213 -0.7207543 -0.0044544833
0.43003017 -0.7256405 -0.16654542
0.40761217 -0.9375229 -0.22457445
0.4232118 -1.1055818 -0.11036919
0.7543034 -0.93566465 0.06764821
0.5660941 -0.87804985 0.23167926
0.6585829 -0.5983744 0.18516575
0.5351839 -0.5363172 -0.004720944
0.68415916 -0.5690206 -0.18665226
0.5664835 -0.8792639 -0.23012128
0.7541567 -0.9356935 -0.06774095
0.97006124 -0.65854895 0.13791606
0.8910707 -0.4774912 0.22736388
0.7750535 -0.35712817 0.18076357
0.6317487 -0.42057645 -0.0051233256
0.7914277 -0.30576217 -0.17552441
0.8910755 -0.47702026 -0.2273745
0.95929366 -0.67198676 -0.13810275
1.1738143 -0.25530815 0.0709408
1.0255557 -0.23338178 0.23128162
0.8581058 -0.13682571 0.18239698
0.7473151 -0.10975368 -0.0049742926
0.84616137 -0.14286809 -0.17887971
1.0188587 -0.25682256 -0.23168921
1.1505692 -0.26552743 -0.11001718
1.1427765 0.2744413 0.12689127
1.0268948 0.1588991 0.22245367
0.8303869 0.07792033 0.16642943
0.73816264 0.18067685 0.0067684166
0.8293886 0.12585323 -0.16971774
1.0222453 0.12641874 -0.22361147
1.1335738 0.30109844 -0.132409
1.0229006 0.6233225 0.0879547
0.8720941 0.55819213 0.22043666
0.7414905 0.39743593 0.1736562
0.67494357 0.34836972 0.0038906117
0.7923599 0.34457064 -0.17963186
0.8783099 0.54225576 -0.22263049
1.0228676 0.6234136 -0.09073655
0.75012386 0.93827564 0.069173425
0.63982904 0.81421006 0.22365457
0.58765477 0.62713766 0.18507564
0.5207193 0.547431 0.005000325
0.65106714 0.5996405 -0.18772712
0.66191673 0.8238815 -0.22584726
0.7501612 0.93823844 -0.06726132
0.43604845 1.101779 0.106215626
0.38980898 0.9678954 0.22219843
0.3733855 0.7673385 0.17512718
0.24973619 0.7140081 0.007827009
0.3344334 0.79265475 -0.18213424
0.39712727 0.96692455 -0.22077437
0.43414986 1.1020646 -0.10663755
0.08947084 1.1897175 0.101188295
0.052191697 1.0433211 0.22539866
0.12869649 0.82502323 0.1690214
0.00659646 0.7603217 0.0071078967
0.08005346 0.83463 -0.17026028
0.10646744 1.0367901 -0.21902682
0.015204612 1.1712908 -0.12961948
-0.3108983 1.1443954 0.109630354
-0.32855624 0.9876512 0.21927427
-0.20158926 0.8164631 0.17321956
-0.17237532 0.7397605 0.0040808506
-0.20663685 0.81973946 -0.17515215
-0.32037866 0.9891379 -0.22019833
-0.3415262 1.1526403 -0.07219463
-0.67104495 0.9843737 0.10470624
-0.63240796 0.8182297 0.22252835
-0.48923582 0.70075595 0.18356802
-0.41260317 0.63325125 0.008728484
-0.49262345 0.68325466 -0.17947218
-0.6166915 0.82608485 -0.22048941
-0.7141285 0.92773855 -0.12999667
-0.96224844 0.701296 0.10708219
-0.83167034 0.5922418 0.22428393
-0.65375435 0.55824065 0.18585376
-0.5996152 0.46816224 -0.00030874062
-0.70084393 0.4628685 -0.1782004
-0.8263616 0.603243 -0.21872213
-0.9520618 0.72010344 -0.100055635
-1.1402578 0.2759153 0.13000086
-0.99484545 0.27740443 0.22153866
-0.8047769 0.2752943 0.18258817
-0.7166023 0.2567069 -0.003937146
-0.81606466 0.33773315 -0.1926261
-0.98436975 0.30861667 -0.22644235
-1.1393934 0.37375784 -0.09273559
-1.1974286 -0.090194896 0.06759955
-1.050644 -0.10149513 0.22360718
-0.8336654 0.060964346 0.17192578
-0.75669885 -0.06790018 0.00576935
-0.84861696 0.04588733 -0.17805965
-1.0574001 -0.061014067 -0.22389789
-1.2017186 -0.064959094 -0.06746091
-1.1028703 -0.4400454 0.106387116
-0.9764159 -0.3463451 0.22039956
-0.80889153 -0.27846384 0.18365124
-0.72241825 -0.23098472 0.008265266
-0.77255297 -0.32549605 -0.17401388
-0.9825351 -0.32951528 -0.21666592
-1.0705855 -0.47181684 -0.13538398
-0.85366905 -0.8045554 0.13035269
-0.7767278 -0.6781805 0.22489902
-0.69906455 -0.49998114 0.18996663
-0.607007 -0.45794654 -0.0038389598
-0.7208536 -0.5047037 -0.19158095
-0.7651978 -0.68373513 -0.22765264
-0.92580134 -0.7584083 -0.094261155
-0.578695 -1.0520242 0.072178006
-0.52978396 -0.897869 0.22280183
-0.46347132 -0.71308047 0.18502083
-0.3520484 -0.6703068 0.0115755815
-0.50135756 -0.6847073 -0.17461053
-0.5633117 -0.8770465 -0.22673361
-0.6032225 -1.0415602 -0.072120816
-0.17554832 -1.1594068 0.12734586
-0.20770912 -1.0346324 0.22293241
-0.2051838 -0.82580864 0.18523195
-0.21028087 -0.7323657 -0.0047362577
-0.2985167 -0.8375956 -0.1874902
-0.20465794 -1.0300074 -0.22663978
-0.17452878 -1.1596543 -0.12736264
0.15998068 -1.1869428 0.094858065
0.047644593 -1.0305828 0.21719019
0.011391982 -0.8321967 0.16170807
0.13223721 -0.74714243 0.005955319
0.023234855 -0.84717923 -0.17008515
0.07696383 -1.0151305 -0.22209957
0.15993781 -1.1870329 -0.09529953
0.5580821 -1.0638658 0.068089366
0.5296992 -0.901134 0.23233682
0.22408184 -0.86957085 0.19197105
0.27331126 -0.70498693 0.006496223
0.23663524 -0.8773851 -0.1952744
0.5331278 -0.9006745 -0.23049432
0.5580617 -1.0638696 -0.06812017
0.87759346 -0.777334 0.13774088
0.70969355 -0.7367083 0.2185063
0.49441284 -0.67680144 0.15444313
0.56326455 -0.5091132 0.0064588552
0.5400012 -0.64723194 -0.16041306
0.7080867 -0.7360926 -0.21874909
0.8772366 -0.77743125 -0.13774844
1.101807 -0.48921436 0.062258042
0.98876894 -0.33328098 0.23366258
0.7047273 -0.5689213 0.19346863
0.6518487 -0.38535628 0.0058422056
0.7214031 -0.5653273 -0.19674906
0.9835862 -0.3421939 -0.2330772
1.0749917 -0.52341896 -0.086544506
1.1737188 -0.15135033 0.107753724
1.0327959 -0.15551606 0.224213
0.83803165 -0.1827485 0.17791127
0.7532981 -0.06669682 0.007580731
0.85106254 -0.13036889 -0.18039209
1.0291705 -0.16293024 -0.22328588
1.1932378 -0.13877732 -0.07215969
5 0 259 126 265 6
6 0 133 1 260 127 259
6 1 134 2 261 128 260
6 2 135 3 262 129 261
6 3 136 137 4 263 262
6 4 138 5 264 130 263
7 5 139 6 265 132 131 264
8 0 6 139 13 146 140 7 133
5 1 133 7 8 134
7 2 134 8 141 142 9 135
5 3 135 9 10 136
5 10 143 11 137 136
6 4 137 11 144 12 138
6 5 138 12 145 13 139
6 14 140 146 20 153 147
6 7 140 14 15 141 8
6 15 148 149 16 142 141
6 9 142 16 17 143 10
6 11 143 17 150 18 144
6 12 144 18 151 19 145
6 13 145 19 152 20 146
4 21 147 153 27
7 14 147 21 154 22 148 15
5 22 155 23 149 148
7 16 149 23 156 24 150 17
7 18 150 24 157 158 25 151
6 19 151 25 159 26 152
6 20 152 26 160 27 153
6 21 27 160 34 28 154
6 22 154 28 161 29 155
6 23 155 29 162 30 156
6 24 156 30 163 31 157
6 31 164 165 32 158 157
6 25 158 32 166 33 159
6 26 159 33 167 34 160
7 28 34 167 41 174 35 161
6 29 161 35 168 36 162
7 30 162 36 169 170 37 163
5 31 163 37 38 164
5 38 171 39 165 164
7 32 165 39 172 173 40 166
5 33 166 40 41 167
5 35 174 48 42 168
6 36 168 42 175 43 169
6 43 176 177 44 170 169
6 37 170 44 45 171 38
6 39 171 45 178 46 172
6 46 179 180 47 173 172
7 40 173 47 181 48 174 41
7 42 48 181 55 188 49 175
6 43 175 49 182 50 176
5 50 183 51 177 176
7 44 177 51 184 52 178 45
6 46 178 52 185 53 179
6 53 186 187 54 180 179
5 47 180 54 55 181
6 49 188 62 195 56 182
7 50 182 56 189 190 57 183
5 51 183 57 58 184
6 52 184 58 191 59 185
6 53 185 59 192 60 186
5 60 193 61 187 186
7 54 187 61 194 62 188 55
7 56 195 69 202 196 63 189
5 63 197 64 190 189
6 57 190 64 65 191 58
6 59 191 65 198 66 192
7 60 192 66 199 200 67 193
5 61 193 67 68 194
6 62 194 68 201 69 195
4 70 196 202 76
6 63 196 70 203 71 197
8 64 197 71 204 205 72 198 65
5 66 198 72 73 199
5 73 206 74 200 199
8 67 200 74 207 208 75 201 68
6 69 201 75 209 76 202
7 70 76 209 83 216 77 203
7 71 203 77 210 211 78 204
4 78 79 205 204
7 72 205 79 212 80 206 73
6 74 206 80 213 81 207
5 81 214 82 208 207
6 75 208 82 215 83 209
7 77 216 90 223 217 84 210
5 84 218 85 211 210
6 78 211 85 86 212 79
6 80 212 86 219 87 213
7 81 213 87 220 221 88 214
5 82 214 88 89 215
6 83 215 89 222 90 216
4 91 217 223 97
7 84 217 91 224 225 92 218
6 85 218 92 93 219 86
6 87 219 93 226 94 220
5 94 227 95 221 220
7 88 221 95 228 96 222 89
7 90 222 96 229 230 97 223
8 91 97 230 104 237 231 98 224
4 98 99 225 224
7 92 225 99 232 100 226 93
6 94 226 100 233 101 227
7 95 227 101 234 235 102 228
6 96 228 102 236 103 229
4 103 104 230 229
6 105 231 237 111 244 238
7 98 231 105 239 106 232 99
6 100 232 106 240 107 233
5 101 233 107 108 234
5 108 241 109 235 234
6 102 235 109 242 110 236
7 103 236 110 243 111 237 104
4 112 238 244 118
6 105 238 112 245 113 239
6 106 239 113 246 114 240
7 107 240 114 247 115 241 108
7 109 241 115 248 249 116 242
6 110 242 116 250 117 243
6 111 243 117 251 118 244
8 112 118 251 125 258 252 119 245
6 113 245 119 253 120 246
6 114 246 120 254 121 247
5 115 247 121 122 248
5 122 255 123 249 248
6 116 249 123 256 124 250
6 117 250 124 257 125 251
5 126 252 258 132 265
6 119 252 126 259 127 253
6 120 253 127 260 128 254
7 121 254 128 261 129 255 122
7 123 255 129 262 263 130 256
6 124 256 130 264 131 257
5 125 257 131 132 258
