ply
format ascii 1.0
comment Created in Blender version 4.0.2
element vertex 154
property float x
property float y
property float z
element face 77
property list uchar uint vertex_indices
end_header
1.0367799 0.46459424 0.056987286
0.9713727 0.4916535 0.16761932
0.8586694 0.2706707 0.22602561
0.73735964 0.2709477 0.21348487
0.7570694 0.22182198 0.22437224
0.6641072 0.19439268 -0.103931025
0.68241787 0.3259468 -0.17122287
0.7344524 0.23183262 -0.2118501
0.8656645 0.2774719 -0.2320579
1.094496 0.38177025 -0.099648274
1.0369442 0.3591322 -0.20318222
0.41559455 1.0892491 -0.065213434
0.22264719 1.0722601 0.15802863
0.31305128 0.87052685 0.22497277
0.24203748 0.73654085 0.20471716
0.2990206 0.7304209 0.2259403
0.26200476 0.6405749 -0.103154294
0.17075235 0.7375971 -0.17202027
0.25089598 0.7284333 -0.20174226
0.3140573 0.8739027 -0.22295149
0.23969528 1.1143045 -0.13518664
0.4084276 1.0886445 0.039064948
-0.6080607 1.0188476 -0.09640041
-0.69923437 0.8423246 0.15859666
-0.5282658 0.7548411 0.2318477
-0.50473994 0.6343587 0.21073107
-0.4158116 0.68992734 0.23551391
-0.34770435 0.6029141 -0.10654316
-0.4938066 0.5840781 -0.157345
-0.5065001 0.6349937 -0.21168804
-0.54653245 0.7647926 -0.23359403
-0.64867973 0.79382807 -0.21055302
-0.6155274 1.0183008 0.1210669
-1.1652954 0.030368268 0.011728831
-1.093799 -0.021648154 0.15970796
-0.9346752 0.04075108 0.22651517
-0.86210227 0.10110314 0.22201914
-0.7280584 0.05876056 0.11240692
-0.68846226 0.02544703 -0.05807397
-0.686755 0.04528249 -0.07775421
-0.861153 0.100979 -0.221735
-0.9418306 0.046054922 -0.22707605
-1.116319 0.099549524 -0.12552229
-1.1219906 0.100050785 -0.1172474
-0.7325285 -0.8683999 0.057001226
-0.6634322 -0.8664324 0.16376325
-0.5656922 -0.78554904 0.2368117
-0.556764 -0.6607773 0.22621812
-0.5465312 -0.5274844 0.165837
-0.5054642 -0.4673513 -0.101729326
-0.43203306 -0.57311755 -0.07470442
-0.5542286 -0.6594851 -0.22393069
-0.6791538 -0.663258 -0.24110226
-0.734504 -0.72927743 -0.20654683
-0.72460157 -0.8850757 -0.12916899
0.12301274 -1.1705884 -0.07153984
0.26159105 -1.0508423 0.17684934
0.26358435 -0.9235485 0.23971052
0.21793763 -0.8396553 0.22816847
0.04721712 -0.7842272 0.21338654
0.04185807 -0.69093037 -0.1033096
0.16391422 -0.7290904 -0.1391127
0.18510097 -0.8209814 -0.21698335
0.24100158 -0.99232256 -0.23123665
0.1599952 -0.98797774 -0.22217557
0.13888364 -1.165849 0.11293553
1.0367383 -0.53295064 0.011782942
0.9845516 -0.45041513 0.17686644
0.8929709 -0.36905396 0.23751324
0.77418995 -0.32577693 0.22161317
0.64676285 -0.4547216 0.23042387
0.56627786 -0.39811397 -0.103375554
0.6722236 -0.32643735 -0.13909799
0.78637767 -0.3510852 -0.2235373
0.8401616 -0.47436675 -0.23445468
0.9185227 -0.45981282 -0.21791922
1.028052 -0.5378053 -0.023804385
0.9929724 0.5025625 0.13038316
0.8102566 0.56516135 0.23516953
0.7879398 0.5548572 0.2453612
0.7212586 0.5034652 0.23353991
0.54999536 0.38512293 0.057721734
0.62418455 0.29813638 0.04552009
0.55850977 0.38895273 -0.06505737
0.7469315 0.49203002 -0.23818201
0.82356936 0.52626073 -0.25054145
0.8140654 0.5191601 -0.25603223
1.036844 0.4720648 -0.044582915
0.2233753 1.0759261 0.15226807
0.06461815 0.9857334 0.23637238
0.063315295 0.96026 0.24803191
0.08426776 0.8550655 0.22950889
0.047142588 0.6714722 0.06173104
0.15648463 0.67400837 0.046098996
0.049964588 0.6821048 -0.069781944
0.08389352 0.85379314 -0.22729823
0.097850025 0.9512057 -0.24235767
0.08526934 1.0134376 -0.2179855
0.23657033 1.0769516 -0.19150156
-0.7084407 0.8532383 0.13666014
-0.7308264 0.6649087 0.2354466
-0.7116866 0.64826113 0.24687439
-0.4792895 0.697046 0.22064006
-0.4403608 0.5932559 0.14881206
-0.44304854 0.53506124 0.0609258
-0.48989496 0.6243382 -0.19564304
-0.47940648 0.6992862 -0.22109306
-0.6225103 0.7248671 -0.23927918
-0.760968 0.7972826 -0.15209648
-0.7408589 0.7759559 -0.19458434
-1.1397653 -0.022541026 0.08894537
-0.9765904 -0.1560928 0.23446782
-0.95633644 -0.15662591 0.24417596
-0.82353085 0.033500865 0.21154568
-0.7392524 0.047779027 0.12713471
-0.68430704 -0.095449805 0.10640417
-0.7797037 -0.07579218 -0.2127365
-0.82013625 0.025807573 -0.2118298
-0.9703474 -0.074948594 -0.23942575
-0.9718673 -0.07501267 -0.23871246
-1.1649784 0.029581923 -0.010844796
-0.6766223 -0.88360083 0.13041918
-0.59829146 -0.85974985 0.1975829
-0.48112255 -0.8189962 0.22752538
-0.4107471 -0.6726438 0.20685019
-0.47080088 -0.5392733 0.099293716
-0.4203992 -0.5434593 0.041712202
-0.49656275 -0.57545197 -0.1368835
-0.44040573 -0.6692344 -0.2093186
-0.46270275 -0.78585863 -0.2201967
-0.71476763 -0.8759568 -0.1492646
-0.7265535 -0.8811664 -0.13585435
0.2680124 -1.0761733 0.13662823
0.28871778 -1.0118393 0.19840139
0.3449076 -0.8711333 0.23229569
0.28747922 -0.75864303 0.21646889
0.16719152 -0.6816589 0.09653285
0.15178397 -0.6749573 0.045797523
0.16546597 -0.72704995 -0.13693193
0.19484779 -0.81231344 -0.2163247
0.16018832 -0.9803566 -0.22519687
0.3769864 -1.0792812 -0.123212986
0.33834085 -1.0140634 -0.23124446
1.0366662 -0.474213 0.08893872
0.96592003 -0.38763005 0.20642973
0.89738405 -0.3205007 0.23351777
0.8417369 -0.2742601 0.22782879
0.6440907 -0.19016485 0.058106646
0.6224748 -0.30207133 0.04617035
0.6673686 -0.30539694 -0.12081159
0.78911 -0.36837316 -0.22500455
0.8786025 -0.43324292 -0.24004868
0.94271916 -0.44945028 -0.2039322
1.0367469 -0.5322199 -0.00867914
6 0 143 66 153 10 87
6 0 77 1 144 67 143
7 1 78 79 2 145 68 144
5 2 3 146 69 145
6 3 80 81 4 147 146
6 4 5 148 71 70 147
6 5 82 6 149 72 148
7 6 83 84 7 150 73 149
5 7 8 151 74 150
7 8 85 86 9 152 75 151
5 9 10 153 76 152
5 0 87 21 11 77
6 1 77 11 88 12 78
6 12 89 90 13 79 78
6 2 79 13 14 80 3
6 14 91 92 15 81 80
6 4 81 15 16 82 5
6 6 82 16 93 17 83
6 17 94 95 18 84 83
6 7 84 18 19 85 8
6 19 96 97 20 86 85
7 9 86 20 98 21 87 10
6 11 21 98 32 22 88
6 12 88 22 99 23 89
6 23 100 101 24 90 89
7 13 90 24 102 25 91 14
5 25 103 26 92 91
6 15 92 26 27 93 16
6 17 93 27 104 28 94
5 28 105 29 95 94
7 18 95 29 106 30 96 19
5 30 107 31 97 96
7 20 97 31 108 109 32 98
7 22 32 109 43 120 33 99
6 23 99 33 110 34 100
6 34 111 112 35 101 100
6 24 101 35 113 36 102
5 25 102 36 37 103
7 26 103 37 114 38 104 27
7 28 104 38 115 116 39 105
5 29 105 39 40 106
6 30 106 40 117 41 107
7 31 107 41 118 119 42 108
4 42 43 109 108
6 33 120 54 131 44 110
6 34 110 44 121 45 111
5 45 122 46 112 111
7 35 112 46 123 124 47 113
7 36 113 47 125 48 114 37
5 38 114 48 49 115
5 49 126 50 116 115
7 39 116 50 127 51 117 40
7 41 117 51 128 129 52 118
4 52 53 119 118
7 42 119 53 130 54 120 43
5 44 131 65 55 121
6 45 121 55 132 56 122
6 46 122 56 133 57 123
6 57 134 135 58 124 123
6 47 124 58 136 59 125
6 48 125 59 60 126 49
6 50 126 60 137 61 127
6 51 127 61 138 62 128
5 62 139 63 129 128
7 52 129 63 140 64 130 53
7 54 130 64 141 142 65 131
7 55 65 142 76 153 66 132
6 56 132 66 143 67 133
6 57 133 67 144 68 134
5 68 145 69 135 134
7 58 135 69 146 147 70 136
6 59 136 70 71 137 60
6 61 137 71 148 72 138
6 62 138 72 149 73 139
6 63 139 73 150 74 140
6 64 140 74 151 75 141
5 75 152 76 142 141
