ply
format ascii 1.0
comment Created in Blender version 4.0.2
element vertex 164
property float x
property float y
property float z
element face 84
property list uchar uint vertex_indices
end_header
1 1 1.125
1 1 0.125
1 -1 1.125
1 -1 0.125
-1 1 0.125
-1 -1 0.125
1 -1 2.125
1 1 2.125
3 1 1.125
3 -1 1.125
3 1 2.125
3 -1 2.125
-1 0.99999994 3.125
0.99999994 1 3.125
0.99999994 1 4.125
-1.0000001 3 3.125
0.9999999 3 3.125
-1.0000001 3 4.125
0.9999999 3 4.125
-0.99999994 -1.0000001 5.125
-1.0000001 0.99999994 5.125
-1.0000001 0.99999994 4.125
-0.99999994 -1.0000001 6.125
-3 -1.0000002 5.125
-3 0.99999976 5.125
-3 -1.0000002 6.125
-3 0.99999976 6.125
1.0000001 -0.9999999 7.125
-0.9999999 -1.0000001 7.125
-1.0000001 0.9999999 6.125
1.0000004 -2.9999998 7.125
-0.9999996 -3.0000002 7.125
1.0000004 -2.9999998 8.125
-0.9999996 -3.0000002 8.125
0.9999998 1.0000001 9.125
1.0000001 -0.9999998 9.125
1.0000001 -0.9999998 8.125
-0.9999998 -1.0000001 8.125
1.0000001 -0.9999998 10.125
0.9999998 1.0000001 10.125
2.9999998 1.0000005 9.125
3.0000002 -0.99999946 9.125
2.9999998 1.0000005 10.125
3.0000002 -0.99999946 10.125
-1.0000002 0.99999976 11.125
0.99999976 1.0000002 11.125
0.99999976 1.0000002 12.125
-1.0000002 0.99999976 12.125
-1.0000007 2.9999998 11.125
0.99999934 3.0000002 11.125
-1.0000007 2.9999998 12.125
0.99999934 3.0000002 12.125
-0.99999976 -1.0000002 13.125
-1.0000002 0.99999976 13.125
-0.99999976 -1.0000002 14.125
-2.9999998 -1.0000008 13.125
-3.0000002 0.9999992 13.125
-2.9999998 -1.0000008 14.125
-3.0000002 0.9999992 14.125
1.0000004 -0.9999997 15.125
-0.9999997 -1.0000004 15.125
-1.0000004 0.9999997 14.125
1.0000004 -0.9999997 16.125
1.000001 -2.9999998 15.125
-0.9999991 -3.0000002 15.125
1.000001 -2.9999998 16.125
-0.9999991 -3.0000002 16.125
0.99999964 1.0000004 17.125
1.0000004 -0.99999964 17.125
-0.99999964 -1.0000004 16.125
2.9999998 1.0000011 17.125
3.0000002 -0.9999989 17.125
2.9999998 1.0000011 18.125
3.0000002 -0.9999989 18.125
-1.0000004 0.9999996 19.125
0.9999996 1.0000004 19.125
0.9999996 1.0000004 18.125
1.0000004 -0.9999996 18.125
-1.0000004 0.9999996 20.125
-1.0000012 2.9999995 19.125
0.9999988 3.0000005 19.125
-1.0000012 2.9999995 20.125
0.9999988 3.0000005 20.125
-0.9999996 -1.0000005 21.125
-1.0000005 0.9999996 21.125
0.9999996 1.0000005 20.125
-1.0000005 0.9999996 22.125
-2.9999995 -1.0000013 21.125
-3.0000005 0.9999987 21.125
-2.9999995 -1.0000013 22.125
-3.0000005 0.9999987 22.125
1.0000005 -0.9999995 23.125
-0.9999995 -1.0000005 23.125
-0.9999995 -1.0000005 22.125
-0.9999995 -1.0000005 24.125
1.0000005 -0.9999995 24.125
1.0000014 -2.9999995 23.125
-0.99999857 -3.0000005 23.125
1.0000014 -2.9999995 24.125
-0.99999857 -3.0000005 24.125
0.99999946 1.0000005 25.125
1.0000005 -0.99999946 25.125
1.0000005 -0.99999946 26.125
0.99999946 1.0000005 26.125
2.9999995 1.0000015 25.125
3.0000005 -0.99999845 25.125
2.9999995 1.0000015 26.125
3.0000005 -0.99999845 26.125
-1.0000006 0.9999994 27.125
0.9999994 1.0000006 27.125
-1.0000006 0.9999994 28.125
-1.0000017 2.9999995 27.125
0.9999983 3.0000005 27.125
-1.0000017 2.9999995 28.125
0.9999983 3.0000005 28.125
-0.9999994 -1.0000006 29.125
-1.0000006 0.9999994 29.125
0.9999994 1.0000006 28.125
-0.9999994 -1.0000006 30.125
-2.9999993 -1.0000018 29.125
-3.0000007 0.99999815 29.125
-2.9999993 -1.0000018 30.125
-3.0000007 0.99999815 30.125
1.0000007 -0.99999934 31.125
-0.99999934 -1.0000007 31.125
-1.0000007 0.99999934 30.125
-0.99999934 -1.0000007 32.125
1.0000007 -0.99999934 32.125
1.000002 -2.9999993 31.125
-0.99999803 -3.0000007 31.125
1.000002 -2.9999993 32.125
-0.99999803 -3.0000007 32.125
0.9999993 1.0000007 33.125
1.0000007 -0.9999993 33.125
1.0000007 -0.9999993 34.125
0.9999993 1.0000007 34.125
2.9999993 1.0000021 33.125
3.0000007 -0.9999979 33.125
2.9999993 1.0000021 34.125
3.0000007 -0.9999979 34.125
-1.0000007 0.9999993 35.125
0.9999993 1.0000007 35.125
0.9999993 1.0000007 36.125
-1.0000023 2.9999993 35.125
0.9999978 3.0000007 35.125
-1.0000023 2.9999993 36.125
0.9999978 3.0000007 36.125
-0.9999992 -1.0000008 37.125
-1.0000008 0.9999992 37.125
-1.0000008 0.9999992 36.125
-2.9999993 -1.0000024 37.125
-3.0000007 0.9999976 37.125
-2.9999993 -1.0000024 38.125
-3.0000007 0.9999976 38.125
1.0000008 -0.99999917 39.125
-0.99999917 -1.0000008 39.125
-0.99999917 -1.0000008 38.125
-1.0000008 0.99999917 38.125
-1.0000008 0.99999917 40.125
0.99999917 1.0000008 40.125
1.0000025 -2.9999993 39.125
-0.9999975 -3.0000007 39.125
1.0000025 -2.9999993 40.125
-0.9999975 -3.0000007 40.125
4 1 0 2 3
4 7 6 11 10
4 9 8 10 11
4 2 0 8 9
12 110 113 111 108 86 93 92 97 99 94 115 116
4 21 14 18 17
6 158 157 156 155 161 163
4 16 15 17 18
4 13 12 15 16
12 36 32 30 27 6 7 13 16 18 14 34 35
4 22 29 26 25
4 24 23 25 26
4 20 19 23 24
4 36 37 33 32
4 31 30 32 33
4 28 27 30 31
4 39 38 43 42
4 41 40 42 43
4 35 34 40 41
4 159 158 163 162
12 62 65 63 59 38 39 45 49 51 46 67 68
4 47 46 51 50
4 49 48 50 51
4 45 44 48 49
12 154 155 156 152 150 147 126 127 133 137 139 134
12 126 147 148 149 145 143 140 125 118 124 129 131
4 54 61 58 57
4 56 55 57 58
4 53 52 55 56
8 7 10 8 0 1 4 12 13
4 62 69 66 65
4 64 63 65 66
4 60 59 63 64
4 76 77 73 72
4 71 70 72 73
4 68 67 70 71
10 159 162 160 154 134 135 141 144 146 142
4 78 85 82 81
8 148 151 153 157 158 159 142 149
4 80 79 81 82
4 75 74 79 80
12 69 83 84 78 81 79 74 61 54 60 64 66
4 93 86 90 89
4 88 87 89 90
4 84 83 87 88
12 77 76 75 80 82 85 100 101 95 98 96 91
4 95 94 99 98
12 125 140 141 135 138 136 132 117 110 116 120 122
4 97 96 98 99
4 92 91 96 97
12 77 91 92 93 89 87 83 69 62 68 71 73
4 103 102 107 106
4 105 104 106 107
4 101 100 104 105
12 37 52 53 47 50 48 44 29 22 28 31 33
12 86 108 109 103 106 104 100 85 78 84 88 90
12 29 44 45 39 42 40 34 14 21 20 24 26
12 53 56 58 61 74 75 76 72 70 67 46 47
4 110 117 114 113
12 38 59 60 54 57 55 52 37 36 35 41 43
4 112 111 113 114
4 109 108 111 112
8 5 19 20 21 17 15 12 4
12 27 28 22 25 23 19 5 3 2 9 11 6
4 118 125 122 121
4 120 119 121 122
4 116 115 119 120
4 127 126 131 130
4 129 128 130 131
4 124 123 128 129
12 102 123 124 118 121 119 115 94 95 101 105 107
4 135 134 139 138
4 137 136 138 139
4 133 132 136 137
12 117 132 133 127 130 128 123 102 103 109 112 114
4 149 142 146 145
4 144 143 145 146
4 141 140 143 144
4 156 157 153 152
4 151 150 152 153
4 148 147 150 151
4 161 160 162 163
4 155 154 160 161
4 4 1 3 5
