ply
format ascii 1.0
comment Created in Blender version 4.0.2
element vertex 484
property float x
property float y
property float z
element face 244
property list uchar uint vertex_indices
end_header
1 1 1.125
1 1 0.125
1 -1 1.125
1 -1 0.125
-1 1 0.125
-1 -1 0.125
1 -1 2.125
3 1 1.125
3 -1 1.125
3 1 2.125
3 -1 2.125
-1 0.99999994 3.125
0.99999994 1 3.125
0.99999994 1 2.125
-1.0000001 3 3.125
0.9999999 3 3.125
-1.0000001 3 4.125
0.9999999 3 4.125
-0.99999994 -1.0000001 5.125
-1.0000001 0.99999994 5.125
-1.0000001 0.99999994 4.125
0.99999994 1.0000001 4.125
-3 -1.0000002 5.125
-3 0.99999976 5.125
-3 -1.0000002 6.125
-3 0.99999976 6.125
1.0000001 -0.9999999 7.125
-0.9999999 -1.0000001 7.125
-0.9999999 -1.0000001 6.125
-1.0000001 0.9999999 6.125
-0.9999999 -1.0000001 8.125
1.0000001 -0.9999999 8.125
1.0000004 -2.9999998 7.125
-0.9999996 -3.0000002 7.125
1.0000004 -2.9999998 8.125
-0.9999996 -3.0000002 8.125
0.9999998 1.0000001 9.125
1.0000001 -0.9999998 9.125
1.0000001 -0.9999998 10.125
2.9999998 1.0000005 9.125
3.0000002 -0.99999946 9.125
2.9999998 1.0000005 10.125
3.0000002 -0.99999946 10.125
-1.0000002 0.99999976 11.125
0.99999976 1.0000002 11.125
0.99999976 1.0000002 10.125
-1.0000007 2.9999998 11.125
0.99999934 3.0000002 11.125
-1.0000007 2.9999998 12.125
0.99999934 3.0000002 12.125
-0.99999976 -1.0000002 13.125
-1.0000002 0.99999976 13.125
-1.0000002 0.99999976 12.125
0.99999976 1.0000002 12.125
-0.99999976 -1.0000002 14.125
-2.9999998 -1.0000008 13.125
-3.0000002 0.9999992 13.125
-2.9999998 -1.0000008 14.125
-3.0000002 0.9999992 14.125
1.0000004 -0.9999997 15.125
-0.9999997 -1.0000004 15.125
-1.0000004 0.9999997 14.125
1.0000004 -0.9999997 16.125
1.000001 -2.9999998 15.125
-0.9999991 -3.0000002 15.125
1.000001 -2.9999998 16.125
-0.9999991 -3.0000002 16.125
0.99999964 1.0000004 17.125
1.0000004 -0.99999964 17.125
-0.99999964 -1.0000004 16.125
1.0000004 -0.99999964 18.125
2.9999998 1.0000011 17.125
3.0000002 -0.9999989 17.125
2.9999998 1.0000011 18.125
3.0000002 -0.9999989 18.125
-1.0000004 0.9999996 19.125
0.9999996 1.0000004 19.125
0.9999996 1.0000004 18.125
0.9999996 1.0000004 20.125
-1.0000012 2.9999995 19.125
0.9999988 3.0000005 19.125
-1.0000012 2.9999995 20.125
0.9999988 3.0000005 20.125
-0.9999996 -1.0000005 21.125
-1.0000005 0.9999996 21.125
-1.0000005 0.9999996 20.125
-0.9999996 -1.0000005 22.125
-2.9999995 -1.0000013 21.125
-3.0000005 0.9999987 21.125
-2.9999995 -1.0000013 22.125
-3.0000005 0.9999987 22.125
1.0000005 -0.9999995 23.125
-0.9999995 -1.0000005 23.125
-1.0000005 0.9999995 22.125
-0.9999995 -1.0000005 24.125
1.0000005 -0.9999995 24.125
1.0000014 -2.9999995 23.125
-0.99999857 -3.0000005 23.125
1.0000014 -2.9999995 24.125
-0.99999857 -3.0000005 24.125
0.99999946 1.0000005 25.125
1.0000005 -0.99999946 25.125
1.0000005 -0.99999946 26.125
2.9999995 1.0000015 25.125
3.0000005 -0.99999845 25.125
2.9999995 1.0000015 26.125
3.0000005 -0.99999845 26.125
-1.0000006 0.9999994 27.125
0.9999994 1.0000006 27.125
0.9999994 1.0000006 26.125
0.9999994 1.0000006 28.125
-1.0000006 0.9999994 28.125
-1.0000017 2.9999995 27.125
0.9999983 3.0000005 27.125
-1.0000017 2.9999995 28.125
0.9999983 3.0000005 28.125
-0.9999994 -1.0000006 29.125
-1.0000006 0.9999994 29.125
-0.9999994 -1.0000006 30.125
-2.9999993 -1.0000018 29.125
-3.0000007 0.99999815 29.125
-2.9999993 -1.0000018 30.125
-3.0000007 0.99999815 30.125
1.0000007 -0.99999934 31.125
-0.99999934 -1.0000007 31.125
-1.0000007 0.99999934 30.125
-0.99999934 -1.0000007 32.125
1.0000007 -0.99999934 32.125
1.000002 -2.9999993 31.125
-0.99999803 -3.0000007 31.125
1.000002 -2.9999993 32.125
-0.99999803 -3.0000007 32.125
0.9999993 1.0000007 33.125
1.0000007 -0.9999993 33.125
0.9999993 1.0000007 34.125
2.9999993 1.0000021 33.125
3.0000007 -0.9999979 33.125
2.9999993 1.0000021 34.125
3.0000007 -0.9999979 34.125
-1.0000007 0.9999993 35.125
0.9999993 1.0000007 35.125
1.0000007 -0.9999993 34.125
0.9999993 1.0000007 36.125
-1.0000023 2.9999993 35.125
0.9999978 3.0000007 35.125
-1.0000023 2.9999993 36.125
0.9999978 3.0000007 36.125
-0.9999992 -1.0000008 37.125
-1.0000008 0.9999992 37.125
-1.0000008 0.9999992 36.125
-1.0000008 0.9999992 38.125
-2.9999993 -1.0000024 37.125
-3.0000007 0.9999976 37.125
-2.9999993 -1.0000024 38.125
-3.0000007 0.9999976 38.125
1.0000008 -0.99999917 39.125
-0.99999917 -1.0000008 39.125
-0.99999917 -1.0000008 38.125
-0.99999917 -1.0000008 40.125
1.0000008 -0.99999917 40.125
1.0000025 -2.9999993 39.125
-0.9999975 -3.0000007 39.125
1.0000025 -2.9999993 40.125
-0.9999975 -3.0000007 40.125
0.9999991 1.0000008 41.125
1.0000008 -0.9999991 41.125
1.0000008 -0.9999991 42.125
2.999999 1.0000026 41.125
3.000001 -0.9999974 41.125
2.999999 1.0000026 42.125
3.000001 -0.9999974 42.125
-1.000001 0.9999991 43.125
0.9999991 1.000001 43.125
0.9999991 1.000001 42.125
-1.000001 0.9999991 44.125
-1.0000027 2.999999 43.125
0.99999726 3.000001 43.125
-1.0000027 2.999999 44.125
0.99999726 3.000001 44.125
-0.99999905 -1.000001 45.125
-1.000001 0.99999905 45.125
0.99999905 1.000001 44.125
-0.99999905 -1.000001 46.125
-2.999999 -1.0000029 45.125
-3.000001 0.99999714 45.125
-2.999999 -1.0000029 46.125
-3.000001 0.99999714 46.125
1.000001 -0.999999 47.125
-0.999999 -1.000001 47.125
-1.000001 0.999999 46.125
1.000001 -0.999999 48.125
1.000003 -2.999999 47.125
-0.99999696 -3.000001 47.125
1.000003 -2.999999 48.125
-0.99999696 -3.000001 48.125
0.9999989 1.0000011 49.125
1.0000011 -0.9999989 49.125
-0.9999989 -1.0000011 48.125
1.0000011 -0.9999989 50.125
0.9999989 1.0000011 50.125
2.999999 1.0000031 49.125
3.000001 -0.99999684 49.125
2.999999 1.0000031 50.125
3.000001 -0.99999684 50.125
-1.0000011 0.9999989 51.125
0.9999989 1.0000011 51.125
-1.0000033 2.9999988 51.125
0.9999967 3.0000012 51.125
-1.0000033 2.9999988 52.125
0.9999967 3.0000012 52.125
-0.99999887 -1.0000012 53.125
-1.0000012 0.99999887 53.125
-1.0000012 0.99999887 52.125
0.99999887 1.0000012 52.125
-1.0000012 0.99999887 54.125
-0.99999887 -1.0000012 54.125
-2.9999988 -1.0000035 53.125
-3.0000012 0.9999966 53.125
-2.9999988 -1.0000035 54.125
-3.0000012 0.9999966 54.125
1.0000012 -0.9999988 55.125
-0.9999988 -1.0000012 55.125
1.0000012 -0.9999988 56.125
1.0000036 -2.9999988 55.125
-0.9999965 -3.0000012 55.125
1.0000036 -2.9999988 56.125
-0.9999965 -3.0000012 56.125
0.99999875 1.0000012 57.125
1.0000012 -0.99999875 57.125
-0.99999875 -1.0000012 56.125
1.0000012 -0.99999875 58.125
0.99999875 1.0000012 58.125
2.9999988 1.0000037 57.125
3.0000012 -0.9999963 57.125
2.9999988 1.0000037 58.125
3.0000012 -0.9999963 58.125
-1.0000013 0.99999875 59.125
0.99999875 1.0000013 59.125
0.99999875 1.0000013 60.125
-1.0000038 2.9999988 59.125
0.9999962 3.0000012 59.125
-1.0000038 2.9999988 60.125
0.9999962 3.0000012 60.125
-0.9999987 -1.0000013 61.125
-1.0000013 0.9999987 61.125
-1.0000013 0.9999987 60.125
-0.9999987 -1.0000013 62.125
-2.9999986 -1.0000039 61.125
-3.0000014 0.99999607 61.125
-2.9999986 -1.0000039 62.125
-3.0000014 0.99999607 62.125
1.0000013 -0.9999986 63.125
-0.9999986 -1.0000013 63.125
-1.0000013 0.9999986 62.125
1.0000013 -0.9999986 64.125
1.000004 -2.9999986 63.125
-0.99999595 -3.0000014 63.125
1.000004 -2.9999986 64.125
-0.99999595 -3.0000014 64.125
0.9999986 1.0000014 65.125
1.0000014 -0.9999986 65.125
-0.9999986 -1.0000014 64.125
0.9999986 1.0000014 66.125
2.9999986 1.0000042 65.125
3.0000014 -0.9999958 65.125
2.9999986 1.0000042 66.125
3.0000014 -0.9999958 66.125
-1.0000014 0.99999857 67.125
0.99999857 1.0000014 67.125
1.0000014 -0.99999857 66.125
-1.0000043 2.9999986 67.125
0.99999565 3.0000014 67.125
-1.0000043 2.9999986 68.125
0.99999565 3.0000014 68.125
-0.9999985 -1.0000014 69.125
-1.0000014 0.9999985 69.125
-1.0000014 0.9999985 68.125
0.9999985 1.0000014 68.125
-2.9999986 -1.0000044 69.125
-3.0000014 0.9999955 69.125
-2.9999986 -1.0000044 70.125
-3.0000014 0.9999955 70.125
1.0000015 -0.99999845 71.125
-0.99999845 -1.0000015 71.125
-0.99999845 -1.0000015 70.125
-1.0000015 0.99999845 70.125
-0.99999845 -1.0000015 72.125
1.0000015 -0.99999845 72.125
1.0000046 -2.9999986 71.125
-0.9999954 -3.0000014 71.125
1.0000046 -2.9999986 72.125
-0.9999954 -3.0000014 72.125
0.99999845 1.0000015 73.125
1.0000015 -0.99999845 73.125
1.0000015 -0.99999845 74.125
2.9999983 1.0000048 73.125
3.0000017 -0.9999953 73.125
2.9999983 1.0000048 74.125
3.0000017 -0.9999953 74.125
-1.0000017 0.9999984 75.125
0.9999984 1.0000017 75.125
0.9999984 1.0000017 74.125
-1.0000049 2.9999983 75.125
0.9999952 3.0000017 75.125
-1.0000049 2.9999983 76.125
0.9999952 3.0000017 76.125
-0.99999833 -1.0000017 77.125
-1.0000017 0.99999833 77.125
-1.0000017 0.99999833 76.125
0.99999833 1.0000017 76.125
-0.99999833 -1.0000017 78.125
-2.9999983 -1.000005 77.125
-3.0000017 0.999995 77.125
-2.9999983 -1.000005 78.125
-3.0000017 0.999995 78.125
1.0000017 -0.9999983 79.125
-0.9999983 -1.0000017 79.125
-1.0000017 0.9999983 78.125
1.0000017 -0.9999983 80.125
1.0000051 -2.9999983 79.125
-0.9999949 -3.0000017 79.125
1.0000051 -2.9999983 80.125
-0.9999949 -3.0000017 80.125
0.9999983 1.0000018 81.125
1.0000018 -0.9999983 81.125
-0.9999983 -1.0000018 80.125
1.0000018 -0.9999983 82.125
0.9999983 1.0000018 82.125
2.9999983 1.0000052 81.125
3.0000017 -0.99999475 81.125
2.9999983 1.0000052 82.125
3.0000017 -0.99999475 82.125
-1.0000018 0.9999982 83.125
0.9999982 1.0000018 83.125
-1.0000054 2.999998 83.125
0.99999464 3.000002 83.125
-1.0000054 2.999998 84.125
0.99999464 3.000002 84.125
-0.99999815 -1.0000018 85.125
-1.0000018 0.99999815 85.125
-1.0000018 0.99999815 84.125
0.99999815 1.0000018 84.125
-2.999998 -1.0000055 85.125
-3.000002 0.9999945 85.125
-2.999998 -1.0000055 86.125
-3.000002 0.9999945 86.125
1.0000019 -0.9999981 87.125
-0.9999981 -1.0000019 87.125
-0.9999981 -1.0000019 86.125
-1.0000019 0.9999981 86.125
-0.9999981 -1.0000019 88.125
1.0000019 -0.9999981 88.125
1.0000056 -2.999998 87.125
-0.99999434 -3.000002 87.125
1.0000056 -2.999998 88.125
-0.99999434 -3.000002 88.125
0.9999981 1.0000019 89.125
1.0000019 -0.9999981 89.125
2.999998 1.0000057 89.125
3.000002 -0.9999942 89.125
2.999998 1.0000057 90.125
3.000002 -0.9999942 90.125
-1.000002 0.99999803 91.125
0.99999803 1.000002 91.125
0.99999803 1.000002 90.125
1.000002 -0.99999803 90.125
-1.000006 2.999998 91.125
0.9999941 3.000002 91.125
-1.000006 2.999998 92.125
0.9999941 3.000002 92.125
-0.999998 -1.000002 93.125
-1.000002 0.999998 93.125
-1.000002 0.999998 92.125
0.999998 1.000002 92.125
-1.000002 0.999998 94.125
-0.999998 -1.000002 94.125
-2.999998 -1.0000061 93.125
-3.000002 0.999994 93.125
-2.999998 -1.0000061 94.125
-3.000002 0.999994 94.125
1.000002 -0.999998 95.125
-0.999998 -1.000002 95.125
-0.999998 -1.000002 96.125
1.000002 -0.999998 96.125
1.0000062 -2.9999979 95.125
-0.99999386 -3.0000021 95.125
1.0000062 -2.9999979 96.125
-0.99999386 -3.0000021 96.125
0.9999979 1.0000021 97.125
1.0000021 -0.9999979 97.125
1.0000021 -0.9999979 98.125
2.9999979 1.0000063 97.125
3.0000021 -0.9999937 97.125
2.9999979 1.0000063 98.125
3.0000021 -0.9999937 98.125
-1.0000021 0.99999785 99.125
0.99999785 1.0000021 99.125
0.99999785 1.0000021 98.125
0.99999785 1.0000021 100.125
-1.0000064 2.9999979 99.125
0.99999356 3.0000021 99.125
-1.0000064 2.9999979 100.125
0.99999356 3.0000021 100.125
-0.9999978 -1.0000021 101.125
-1.0000021 0.9999978 101.125
-1.0000021 0.9999978 100.125
-1.0000021 0.9999978 102.125
-2.9999979 -1.0000066 101.125
-3.0000021 0.99999344 101.125
-2.9999979 -1.0000066 102.125
-3.0000021 0.99999344 102.125
1.0000023 -0.9999978 103.125
-0.9999978 -1.0000023 103.125
-0.9999978 -1.0000023 102.125
-0.9999978 -1.0000023 104.125
1.0000023 -0.9999978 104.125
1.0000067 -2.9999979 103.125
-0.9999933 -3.0000021 103.125
1.0000067 -2.9999979 104.125
-0.9999933 -3.0000021 104.125
0.99999774 1.0000023 105.125
1.0000023 -0.99999774 105.125
1.0000023 -0.99999774 106.125
0.99999774 1.0000023 106.125
2.9999976 1.0000068 105.125
3.0000024 -0.9999932 105.125
2.9999976 1.0000068 106.125
3.0000024 -0.9999932 106.125
-1.0000023 0.9999977 107.125
0.9999977 1.0000023 107.125
0.9999977 1.0000023 108.125
-1.0000069 2.9999976 107.125
0.999993 3.0000024 107.125
-1.0000069 2.9999976 108.125
0.999993 3.0000024 108.125
-0.9999976 -1.0000024 109.125
-1.0000024 0.9999976 109.125
-1.0000024 0.9999976 108.125
-2.9999976 -1.000007 109.125
-3.0000024 0.9999929 109.125
-2.9999976 -1.000007 110.125
-3.0000024 0.9999929 110.125
1.0000024 -0.9999976 111.125
-0.9999976 -1.0000024 111.125
-0.9999976 -1.0000024 110.125
-1.0000024 0.9999976 110.125
1.0000024 -0.9999976 112.125
1.0000073 -2.9999976 111.125
-0.9999928 -3.0000024 111.125
1.0000073 -2.9999976 112.125
-0.9999928 -3.0000024 112.125
0.99999756 1.0000025 113.125
1.0000025 -0.99999756 113.125
-0.99999756 -1.0000025 112.125
0.99999756 1.0000025 114.125
2.9999976 1.0000074 113.125
3.0000024 -0.99999267 113.125
2.9999976 1.0000074 114.125
3.0000024 -0.99999267 114.125
-1.0000025 0.9999975 115.125
0.9999975 1.0000025 115.125
1.0000025 -0.9999975 114.125
-1.0000075 2.9999976 115.125
0.99999255 3.0000024 115.125
-1.0000075 2.9999976 116.125
0.99999255 3.0000024 116.125
-0.99999744 -1.0000025 117.125
-1.0000025 0.99999744 117.125
-1.0000025 0.99999744 116.125
0.99999744 1.0000025 116.125
-0.99999744 -1.0000025 118.125
-2.9999974 -1.0000076 117.125
-3.0000026 0.9999924 117.125
-2.9999974 -1.0000076 118.125
-3.0000026 0.9999924 118.125
1.0000026 -0.99999744 119.125
-0.99999744 -1.0000026 119.125
-1.0000026 0.99999744 118.125
-1.0000026 0.99999744 120.125
0.99999744 1.0000026 120.125
1.0000077 -2.9999974 119.125
-0.99999225 -3.0000026 119.125
1.0000077 -2.9999974 120.125
-0.99999225 -3.0000026 120.125
4 1 0 2 3
4 13 6 10 9
4 8 7 9 10
4 2 0 7 8
12 350 370 371 372 368 366 362 349 348 347 353 355
4 20 21 17 16
4 15 14 16 17
4 12 11 14 15
12 150 171 172 173 169 167 164 142 149 148 152 154
4 28 29 25 24
4 23 22 24 25
4 19 18 22 23
6 476 481 483 478 477 470
4 31 30 35 34
4 33 32 34 35
4 27 26 32 33
4 45 38 42 41
4 40 39 41 42
4 37 36 39 40
4 52 53 49 48
4 47 46 48 49
4 44 43 46 47
8 5 18 19 20 16 14 11 4
4 54 61 58 57
4 56 55 57 58
4 51 50 55 56
4 62 69 66 65
4 64 63 65 66
4 60 59 63 64
4 77 70 74 73
4 72 71 73 74
4 68 67 71 72
12 269 282 283 284 280 278 274 261 254 260 264 266
4 85 78 82 81
4 80 79 81 82
4 76 75 79 80
12 356 357 351 354 352 346 326 327 333 335 337 341
4 86 93 90 89
4 88 87 89 90
4 84 83 87 88
4 95 94 99 98
4 97 96 98 99
4 92 91 96 97
12 172 176 178 181 195 196 190 193 191 187 166 173
12 390 411 412 413 409 407 403 382 383 389 392 394
4 109 102 106 105
4 104 103 105 106
4 101 100 103 104
12 414 415 421 425 427 422 442 443 444 440 438 435
4 111 110 115 114
4 113 112 114 115
4 108 107 112 113
12 461 475 476 470 473 471 466 453 446 452 456 458
12 5 3 2 8 10 6 26 27 28 24 22 18
12 422 423 429 432 434 430 451 452 446 449 447 442
12 30 50 51 52 48 46 43 29 28 27 33 35
4 118 125 122 121
4 120 119 121 122
4 117 116 119 120
12 84 88 90 93 107 108 109 105 103 100 78 85
4 127 126 131 130
4 129 128 130 131
4 124 123 128 129
4 134 141 138 137
4 136 135 137 138
4 133 132 135 136
12 227 228 222 225 223 220 198 199 205 207 209 213
4 149 142 146 145
4 144 143 145 146
4 140 139 143 144
4 157 150 154 153
4 152 151 153 154
4 148 147 151 152
4 159 158 163 162
12 21 36 37 31 34 32 26 6 13 12 15 17
4 161 160 162 163
4 156 155 160 161
4 173 166 170 169
4 168 167 169 170
4 165 164 167 168
12 325 338 339 340 336 334 332 317 310 316 320 322
4 174 181 178 177
4 176 175 177 178
4 172 171 175 176
4 182 189 186 185
4 184 183 185 186
4 180 179 183 184
12 70 91 92 86 89 87 83 69 62 68 72 74
12 405 401 399 395 374 375 381 385 387 382 403 404
4 190 197 194 193
4 192 191 193 194
4 188 187 191 192
4 199 198 203 202
4 201 200 202 203
4 196 195 200 201
12 437 433 431 428 406 413 412 417 419 414 435 436
4 212 213 209 208
4 207 206 208 209
4 205 204 206 207
4 215 214 219 218
4 217 216 218 219
4 211 210 216 217
12 198 220 221 215 218 216 210 197 190 196 201 203
12 188 192 194 197 210 211 212 208 206 204 189 182
4 222 229 226 225
4 224 223 225 226
4 221 220 223 224
8 13 9 7 0 1 4 11 12
12 139 140 134 137 135 132 110 111 117 120 122 125
4 231 230 235 234
4 233 232 234 235
4 228 227 232 233
8 467 472 474 477 478 479 469 468
12 110 132 133 127 130 128 123 102 109 108 113 115
4 245 238 242 241
4 240 239 241 242
4 237 236 239 240
4 246 253 250 249
4 248 247 249 250
4 244 243 247 248
4 254 261 258 257
4 256 255 257 258
4 252 251 255 256
12 238 259 260 254 257 255 251 230 231 237 240 242
4 262 269 266 265
4 264 263 265 266
4 260 259 263 264
12 253 267 268 262 265 263 259 238 245 244 248 250
4 276 277 273 272
4 271 270 272 273
4 268 267 270 271
12 261 274 275 276 272 270 267 253 246 252 256 258
4 284 285 281 280
4 279 278 280 281
4 275 274 278 279
12 285 299 300 301 297 295 292 277 276 275 279 281
12 126 147 148 149 145 143 139 125 118 124 129 131
4 287 286 291 290
4 289 288 290 291
4 283 282 288 289
12 277 292 293 287 290 288 282 269 262 268 271 273
12 308 304 302 299 285 284 283 289 291 286 306 307
4 301 294 298 297
4 296 295 297 298
4 293 292 295 296
12 164 165 159 162 160 155 141 134 140 144 146 142
4 308 309 305 304
4 303 302 304 305
4 300 299 302 303
4 310 317 314 313
4 312 311 313 314
4 307 306 311 312
4 318 325 322 321
4 320 319 321 322
4 316 315 319 320
12 157 153 151 147 126 127 133 136 138 141 155 156
4 327 326 331 330
4 329 328 330 331
4 324 323 328 329
12 69 83 84 85 81 79 75 61 54 60 64 66
4 340 341 337 336
4 335 334 336 337
4 333 332 334 335
12 346 347 348 344 342 338 325 318 324 329 331 326
4 348 349 345 344
4 343 342 344 345
4 339 338 342 343
12 174 177 175 171 150 157 156 161 163 158 179 180
4 351 350 355 354
4 353 352 354 355
4 347 346 352 353
4 364 365 361 360
12 166 187 188 182 185 183 179 158 159 165 168 170
4 359 358 360 361
4 357 356 358 359
12 363 367 369 373 388 389 383 386 384 380 365 364
12 294 315 316 310 313 311 306 286 287 293 296 298
4 372 373 369 368
4 367 366 368 369
4 363 362 366 367
4 375 374 379 378
4 377 376 378 379
4 371 370 376 377
12 380 381 375 378 376 370 350 351 357 359 361 365
4 383 382 387 386
4 385 384 386 387
4 381 380 384 385
12 339 343 345 349 362 363 364 360 358 356 341 340
4 397 390 394 393
12 318 321 319 315 294 301 300 303 305 309 323 324
4 392 391 393 394
4 389 388 391 392
4 405 398 402 401
12 94 116 117 111 114 112 107 93 86 92 97 99
4 400 399 401 402
4 396 395 399 400
12 204 205 199 202 200 195 181 174 180 184 186 189
12 373 372 371 377 379 374 395 396 397 393 391 388
12 78 100 101 95 98 96 91 70 77 76 80 82
4 413 406 410 409
4 408 407 409 410
4 404 403 407 408
4 479 478 483 482
12 396 400 402 398 420 421 415 418 416 411 390 397
12 428 429 423 426 424 420 398 405 404 408 410 406
4 415 414 419 418
4 417 416 418 419
4 412 411 416 417
12 44 47 49 53 67 68 62 65 63 59 38 45
4 423 422 427 426
12 246 249 247 243 229 222 228 233 235 230 251 252
4 425 424 426 427
4 421 420 424 425
10 460 463 465 469 479 482 480 475 461 454
4 437 430 434 433
12 229 243 244 245 241 239 236 214 215 221 224 226
4 432 431 433 434
4 429 428 431 432
12 75 76 77 73 71 67 53 52 51 56 58 61
4 444 445 441 440
12 317 332 333 327 330 328 323 309 308 307 312 314
4 439 438 440 441
4 436 435 438 439
4 446 453 450 449
4 448 447 449 450
4 443 442 447 448
12 102 123 124 118 121 119 116 94 95 101 104 106
12 38 59 60 54 57 55 50 30 31 37 40 42
4 454 461 458 457
4 456 455 457 458
4 452 451 455 456
12 454 457 455 451 430 437 436 439 441 445 459 460
4 468 469 465 464
12 45 41 39 36 21 20 19 23 25 29 43 44
4 463 462 464 465
4 460 459 462 463
4 470 477 474 473
4 472 471 473 474
4 467 466 471 472
12 236 237 231 234 232 227 213 212 211 217 219 214
12 443 448 450 453 466 467 468 464 462 459 445 444
4 481 480 482 483
4 476 475 480 481
4 4 1 3 5
