ply
format ascii 1.0
comment Created in Blender version 4.0.2
element vertex 78
property float x
property float y
property float z
element face 41
property list uchar uint vertex_indices
end_header
0.08443936 -0.25962812 -0.9004644
0.66530836 -0.2845481 -0.6006979
-0.22083136 -0.16044283 -0.9003352
-0.22082931 0.16053367 -0.90046394
0.084747 0.25971305 -0.9006206
0.83110046 -0.2875264 -0.32789612
-0.013435974 -0.88286525 -0.3262312
-0.8431178 -0.26009518 -0.32697478
-0.5067235 0.7216252 -0.3280071
0.53230184 0.6961468 -0.33304173
0.7509186 -0.54483694 -0.15671018
-0.28578907 -0.88165677 -0.15955548
-0.9268206 0.0006456298 -0.15955472
-0.28612572 0.88253164 -0.1567196
0.75730014 0.5502084 -0.14426602
0.3654551 -0.61301637 0.6309316
-0.47214425 -0.55157876 0.5883633
-0.6481489 0.28847736 0.61774397
0.08970097 0.70876 0.65072006
0.71722174 0.10113673 0.5782718
0.31781805 0.6508662 0.5782719
-0.15360701 0.30761617 0.8587694
-0.14770615 0.5438239 0.78975177
-0.47007865 0.53699875 0.6309385
-0.22655018 -0.06531996 0.9359795
-0.56469274 -0.027618248 0.75563645
-0.6704859 -0.2785835 0.58836377
-0.13213204 -0.19527596 0.9359795
-0.2007676 -0.52851725 0.755638
0.074066795 -0.70557266 0.61774087
0.24509497 -0.24114352 0.85876817
0.4715721 -0.3085237 0.78974843
0.7017878 -0.13371216 0.65072274
0.8338118 0.3437521 0.29461706
0.7678171 0.55784905 0.20790002
0.58459127 0.6867734 0.2946169
0.04862397 0.8795822 0.3557037
-0.28654626 0.8830553 0.17369255
-0.5365675 0.7014999 0.3326308
-0.8330757 0.27920878 0.3204233
-0.92527884 -0.0019444926 0.17543069
-0.83380604 -0.28511786 0.32578593
-0.52883244 -0.70488656 0.32577854
-0.2877768 -0.8793901 0.17543092
0.008108346 -0.87858117 0.3204248
0.50135 -0.72707915 0.33263636
0.7512796 -0.54539365 0.17369103
0.8515567 -0.22556022 0.35570255
0.29897588 0.87643224 0.16016793
0.27834994 0.87614924 -0.18156932
-0.016632458 0.8792666 -0.327897
-0.74719006 0.5476698 0.15736732
-0.75054425 0.5445061 -0.17751922
-0.8438097 0.26003835 -0.32623047
-0.75041777 -0.5452083 0.16064194
-0.7509121 -0.5455663 -0.17648874
-0.50790215 -0.7214773 -0.32697576
0.28997278 -0.87985766 0.15736641
0.2859367 -0.882069 -0.17751496
0.5297177 -0.7049227 -0.3279999
0.92592746 0.013509732 0.16016948
0.919295 -0.0060201064 -0.18157236
0.82656825 0.29112196 -0.33304068
0.47437456 0.5440003 -0.6006677
0.17685889 0.54622495 -0.7496038
-0.06502853 0.72067416 -0.6006967
-0.3708591 0.62260526 -0.600014
-0.4637708 0.336898 -0.75034773
-0.70679 0.16052964 -0.6002124
-0.706574 -0.16044791 -0.6002111
-0.46365476 -0.33686435 -0.75024706
-0.37093782 -0.6224075 -0.60021317
0.6639671 0.28304672 -0.600668
0.5741439 -0.00059193705 -0.749602
0.27319032 0.00034107408 -0.9006209
-0.06573247 -0.72180116 -0.60021484
0.1770986 -0.5451775 -0.75034857
0.47753346 -0.5451017 -0.60001457
5 0 2 3 4 74
5 1 5 10 59 77
5 6 11 56 71 75
5 7 12 53 68 69
5 8 13 50 65 66
5 9 14 62 72 63
5 15 29 44 57 45
5 16 26 41 54 42
5 17 23 38 51 39
5 18 20 35 48 36
5 19 32 47 60 33
4 21 24 27 30
6 0 76 75 71 70 2
6 0 74 73 1 77 76
6 6 75 76 77 59 58
6 1 73 72 62 61 5
6 4 64 63 72 73 74
6 2 70 69 68 67 3
6 7 69 70 71 56 55
6 3 67 66 65 64 4
6 8 66 67 68 53 52
6 9 63 64 65 50 49
6 5 61 60 47 46 10
6 14 34 33 60 61 62
6 6 58 57 44 43 11
6 10 46 45 57 58 59
6 7 55 54 41 40 12
6 11 43 42 54 55 56
6 8 52 51 38 37 13
6 12 40 39 51 52 53
6 9 49 48 35 34 14
6 13 37 36 48 49 50
6 15 45 46 47 32 31
6 16 42 43 44 29 28
6 17 39 40 41 26 25
6 18 36 37 38 23 22
5 19 33 34 35 20
6 15 31 30 27 28 29
6 16 28 27 24 25 26
6 17 25 24 21 22 23
8 19 20 18 22 21 30 31 32
