ply
format ascii 1.0
comment Created in Blender version 4.2.2 LTS
element vertex 56
property float x
property float y
property float z
element face 30
property list uchar uint vertex_indices
end_header
-0.37025946 -1.1107785 -1.8512974
-0.37025946 -0.37025946 -1.8512974
-1.1107785 -1.1107785 -0.37025946
-0.37025946 -1.1107785 -0.37025946
-0.37025946 -0.37025946 -1.1107785
-1.8512974 -1.1107785 0.37025946
-1.8512974 -1.1107785 1.1107787
-0.37025946 -1.8512974 0.37025946
-1.1107785 -1.1107785 0.37025946
-1.1107785 -0.37025946 1.1107787
-0.37025946 -1.1107785 0.37025946
-0.37025946 -1.1107785 1.1107787
-0.37025946 -0.37025946 1.1107787
-1.1107785 -0.37025946 1.8512971
-0.37025946 -0.37025946 1.8512971
-1.1107785 1.1107787 -0.37025946
-0.37025946 0.37025946 -1.1107785
-0.37025946 0.37025946 -0.37025946
-0.37025946 1.1107787 -0.37025946
-0.37025946 1.8512971 -0.37025946
-1.8512974 1.1107787 0.37025946
-1.8512974 1.1107787 1.1107787
-1.1107785 1.1107787 0.37025946
-1.1107785 1.1107787 1.1107787
-0.37025946 1.1107787 1.1107787
-1.1107785 1.1107787 1.8512971
-0.37025946 1.8512971 1.1107787
0.37025946 -1.1107785 -1.8512974
0.37025946 -0.37025946 -1.8512974
0.37025946 -1.1107785 -0.37025946
0.37025946 -0.37025946 -1.1107785
1.1107787 -1.1107785 -0.37025946
0.37025946 -1.8512974 0.37025946
0.37025946 -1.1107785 0.37025946
0.37025946 -1.1107785 1.1107787
0.37025946 -0.37025946 1.1107787
1.1107787 -1.1107785 0.37025946
1.1107787 -0.37025946 1.1107787
0.37025946 -0.37025946 1.8512971
1.1107787 -0.37025946 1.8512971
1.8512971 -1.1107785 0.37025946
1.8512971 -1.1107785 1.1107787
0.37025946 0.37025946 -1.1107785
0.37025946 0.37025946 -0.37025946
0.37025946 1.1107787 -0.37025946
1.1107787 1.1107787 -0.37025946
0.37025946 1.8512971 -0.37025946
0.37025946 1.1107787 1.1107787
1.1107787 1.1107787 0.37025946
1.1107787 1.1107787 1.1107787
1.1107787 1.1107787 1.8512971
0.37025946 1.8512971 1.1107787
1.8512971 1.1107787 0.37025946
1.8512971 1.1107787 1.1107787
-0.37025946 -1.8038806 1.8512971
0.37025946 -1.8038806 1.8512971
16 48 45 44 47 24 18 15 22 20 21 23 25 50 49 53 52
4 8 22 15 2
4 50 39 37 49
8 14 54 55 38 39 50 25 13
6 7 54 14 12 11 10
4 9 12 14 13
4 6 21 20 5
12 29 43 17 3 2 15 18 19 46 44 45 31
4 36 48 52 40
6 0 3 17 16 4 1
4 32 55 54 7
6 38 55 32 33 34 35
4 35 37 39 38
4 46 51 47 44
4 9 13 25 23
4 5 20 22 8
6 9 23 21 6 11 12
4 18 24 26 19
4 53 41 40 52
4 0 1 28 27
4 4 30 28 1
6 28 30 42 43 29 27
4 7 10 33 32
4 17 43 42 16
4 47 51 26 24
6 41 53 49 37 35 34
4 48 36 31 45
4 51 46 19 26
16 2 3 0 27 29 31 36 40 41 34 33 10 11 6 5 8
4 4 16 42 30
