ply
format ascii 1.0
comment Created in Blender version 4.0.2
element vertex 186
property float x
property float y
property float z
element face 168
property list uchar uint vertex_indices
end_header
1.0967127 -1.5692215 0.38659695
1.238549 -0.6783085 0.32738343
0.7621737 -1.1475723 0.44657382
1.5878289 -0.2523815 0.3004554
1.6214876 0.06936182 0.32811147
1.1785464 -0.31010914 0.7027895
1.3606617 -0.5000595 0.41464114
1.4046123 0.1209905 0.55717945
0.23882963 -1.5623609 0.8619065
0.4510135 -1.2067565 0.5940344
0.7741978 -0.92046535 0.39530608
0.14241295 -1.5616906 0.9895869
-0.026299164 -1.3263488 1.048629
-0.07043785 -0.72148097 1.1700528
0.20850256 -1.1269807 0.7735166
0.28631645 -0.90026623 0.60345376
-0.039374605 -0.52134854 1.2052346
0.08933588 -0.37212607 1.0850592
0.088264994 0.18841277 0.99651045
-0.1536133 -0.13790822 1.2292318
1.0507431 -1.5682373 -0.16874039
0.9856059 -1.348284 -0.62488234
0.94740033 -1.334664 -0.8931807
1.2485436 -0.735253 0.09810285
1.3471863 -0.6919456 -0.16375506
0.94510317 -1.5665027 -0.91188574
1.6065425 -0.36493456 -0.14682212
1.5665264 -0.2572723 -0.5803975
1.6890068 0.017085504 0.12001999
1.7494354 0.12514013 -0.12141515
1.6176945 0.50164044 0.18693104
1.7300045 0.45031244 -0.17124447
1.5302649 0.24135408 -0.6734208
1.3504695 -0.55740285 -0.5180222
1.0631154 -0.64126813 -0.7092864
1.2211256 -0.26368535 -0.8925407
1.344934 0.37532425 -0.8574095
0.9820787 0.31932062 -0.9074147
1.2831552 0.15264222 -0.886474
0.8327215 -1.3912878 -0.23068541
0.42649823 -1.5621758 -0.7968606
0.6277936 -1.2733128 -0.8933716
0.86083734 -1.1524947 0.159206
0.8395037 -1.1511021 -0.092515275
0.85626 -0.93888134 0.1576029
0.82760864 -0.96439517 -0.18840563
0.8048341 -1.1602899 -0.50495577
0.7791548 -1.1622183 -0.8095468
0.78003156 -0.7938613 -0.71106994
-0.21378297 -1.5566216 -0.8066964
0.1470308 -1.1168578 -0.8672116
0.24897873 -0.78593504 -0.8995063
0.17064764 -1.0652064 -0.8728986
0.68414956 -1.5642571 -0.9159409
-0.29654682 -1.4877324 -1.0487171
0.33295336 -0.64728653 -0.9579764
-0.27886796 -1.2818699 -1.1338007
-0.19428357 -0.69429964 -1.1864206
0.6227132 0.619081 -0.7561202
0.13356064 -0.68203324 -0.89815295
0.19816823 -0.48705432 -0.96704483
0.2550953 -0.29762113 -0.9621666
-0.15611571 -0.49046424 -1.1489544
-0.32414088 -0.07386388 -1.2887831
0.14590204 0.36061668 -0.967493
1.2310197 1.7738223 1.5912242
1.3224969 0.48558754 0.5275744
1.129487 0.7750502 0.5477066
1.1467931 1.66794 0.9697975
1.585223 1.0563005 0.34734043
1.3854779 1.5819845 0.40309396
1.0685363 1.5777018 0.44143254
1.2464879 2.3029451 1.5656295
1.3523484 1.917316 0.7077286
1.4242558 1.8432074 0.15636235
1.1053888 1.9512215 0.94134676
0.69540024 1.1167606 0.33841914
0.506722 0.903245 0.4921895
0.7516949 1.6960511 0.3021377
0.31901944 2.0328584 0.5680832
0.4663595 2.1559234 0.39747673
0.023982849 1.8489133 0.42037296
0.021404926 2.282714 0.5289832
-0.22131619 2.038425 0.77098477
-0.38224512 2.2683394 0.7418134
-0.18639423 2.3162541 0.64869714
1.878115 0.80119926 -0.32449347
1.8100808 0.71932024 -0.19352946
1.7681439 0.9684645 0.11468643
1.8372139 1.0167415 -0.04446957
1.6111251 0.5885102 -0.78766644
1.7011802 1.6099616 -0.19460534
1.6882936 1.6326841 -0.4977978
1.4580169 0.5306022 -0.85866225
1.0853304 0.64891195 -0.93120146
0.90248823 1.0669026 -0.84165704
0.99668336 1.7044489 0.2534232
0.99796766 1.7402836 -0.6559271
1.8529394 0.84401834 -0.93256044
1.7510345 0.9853797 -1.0247008
1.5878315 1.3642626 -1.0135325
1.4579664 0.6544272 -1.0519252
1.2731383 0.81032896 -1.2394276
1.405288 1.0380042 -1.199432
1.1610093 0.94755054 -1.1408978
1.4371095 1.2562163 -1.1243186
1.3872565 1.4928467 -1.0101595
1.1741107 1.5517906 -0.9038979
1.569106 1.8093055 -0.0864567
1.5964586 1.7709546 -0.3725866
0.9864018 1.8493259 0.16381946
1.3043282 1.7272586 -0.7267829
0.45277062 1.0812957 0.10945034
0.41675514 1.0785917 -0.14175136
0.553606 0.9630766 -0.5472256
0.6777917 1.3868576 0.13981749
0.61487675 1.3722662 -0.24582055
0.48689273 1.6490754 0.14581655
0.6758499 1.6243367 -0.10824852
0.11257597 0.98361564 0.3122122
0.12133921 0.9993266 -0.15863115
0.36579633 0.60829115 -0.78932554
0.1982581 0.8917422 -0.5030446
0.16753465 1.7121253 0.31229174
0.7825358 1.8122185 -0.13312358
0.67546433 2.087491 0.2372802
0.5121336 1.8885354 0.06716803
0.4568226 2.1421869 0.21640962
0.24365228 1.8910406 0.22068569
1.216702 2.0742245 1.7503202
-0.7373315 -1.5540125 0.90611255
-0.99438095 -1.4241967 0.9226481
-1.1921712 -1.5498322 0.6555249
-1.1862533 -1.0827245 1.0134667
-0.618576 -0.36349356 1.2998098
0.061198674 -0.9220889 0.9082234
-0.44540644 -0.18387783 1.2748721
-1.8850056 -0.8008944 0.6178184
-2.2191057 -0.8755776 0.27048224
-2.1578245 -1.3114235 -0.005413765
-1.5297552 0.1160597 0.77982056
-1.7840685 0.017701624 0.64322287
-1.8517905 0.13659342 0.48691872
-1.183548 -1.5487067 -0.5159294
-1.5759574 -1.5458397 0.0012308576
-1.1132777 -1.4210289 -1.0393794
-0.7522315 -0.8571237 -1.2863752
-0.9797884 -0.94558656 -1.2400954
-0.7219548 -0.25511858 -1.3521383
-0.47153333 -0.09554068 -1.3176997
-0.8889352 0.07612992 -1.2527837
-0.9737898 -0.17376496 -1.3190556
-1.168927 -0.29695773 -1.2745707
-1.9810653 -1.4064841 0.0767325
-2.1129904 -0.53005105 0.11858614
-1.8253906 -1.253516 -0.62003446
-1.9409821 -0.72734594 -0.672361
-2.0092325 -0.9391152 0.40526837
-2.1737309 -1.1885962 -0.39670104
-2.3978 -1.0251601 0.0018256798
-2.3970852 -1.0388069 -0.23016566
1.3368492 2.1211684 0.85821277
-2.4290836 -0.7623164 0.106734276
-2.2735696 -0.9098091 -0.50549734
-2.092143 -0.9893357 -0.6774029
-2.439447 -0.6904182 -0.28198555
-2.0877805 -0.4594444 -0.13524684
-1.727908 -0.30099505 -0.91288006
-2.0372305 -0.50809836 -0.5012084
-1.860119 0.47521585 0.1999591
-1.9711338 0.046518132 0.27390474
-1.6989582 0.35793784 -0.7224699
-1.8728455 0.08676494 -0.64700675
-1.8315946 0.2806599 -0.62206566
-1.5643353 -0.21399936 -1.0394249
-1.029501 0.8307172 0.61799234
-0.3258309 2.0412495 0.6554181
-0.79620415 0.93637764 -0.70284915
-1.0621105 1.0940114 0.05321279
-1.044255 1.1021732 -0.21669039
-1.4812564 0.89526045 0.17739409
-1.0448701 1.0568352 -0.3744135
-1.3766418 0.7104974 -0.7311144
-1.2846223 0.87624526 -0.64063907
-1.5083584 0.88208616 -0.2770519
-1.8343728 0.52162576 -0.27325922
5 13 135 15 17 16
6 86 89 88 30 31 87
4 155 145 158 164
5 145 147 146 56 54
5 0 2 10 15 9
3 135 13 12
3 9 15 14
3 11 135 12
3 9 8 0
9 63 149 150 177 121 114 58 37 64
12 11 130 132 144 143 49 40 53 25 20 0 8
3 8 9 14
4 166 165 162 154
4 22 47 46 21
7 174 152 147 145 155 156 167
3 78 123 117
4 177 150 182 183
4 25 22 21 20
4 1 10 44 23
4 3 26 29 28
6 157 137 141 142 170 154
4 101 103 99 98
5 171 174 167 172 173
5 147 152 151 148 146
5 176 84 85 82 81
6 175 180 169 142 141 140
7 61 64 37 38 35 55 60
4 41 51 48 47
3 49 41 40
4 23 44 45 24
6 51 41 49 50 52 59
4 22 25 53 41
4 62 63 61 60
9 153 132 131 133 137 157 138 159 139
3 63 64 61
4 172 167 156 168
3 21 39 20
3 21 46 39
4 3 4 7 5
3 41 53 40
4 31 29 27 32
3 52 56 57
4 54 56 52 50
3 49 54 50
5 55 35 34 48 51
3 59 62 60
4 59 60 55 51
4 179 184 180 178
3 69 70 71
3 75 161 73
4 78 125 80 79
5 11 8 14 15 135
3 80 82 79
3 79 82 85
4 79 85 84 83
5 48 34 33 24 45
4 99 100 92 98
3 131 132 130
4 120 179 178 119
4 183 184 179 181
7 136 19 18 67 76 77 175
4 17 18 19 16
4 75 110 71 68
4 78 79 81 123
3 72 75 129
4 138 157 154 162
4 106 107 97 111
3 177 183 181
4 127 82 80 125
4 93 94 102 101
3 101 102 103
3 105 106 100
4 103 105 100 99
3 168 165 166
4 78 118 116 115
3 78 117 118
3 121 177 122
4 113 120 119 112
4 67 71 78 76
4 129 75 68 65
4 114 122 120 113
3 124 126 110
4 126 127 125 110
4 128 82 127 126
6 108 74 70 88 89 91
3 76 115 112
3 180 175 178
4 91 92 109 108
3 126 118 117
3 118 126 124
4 123 128 126 117
4 90 93 101 98
5 133 134 140 141 137
3 96 110 78
4 33 34 35 27
9 109 111 97 124 110 75 73 74 108
5 185 166 154 170 169
5 185 173 172 168 166
6 1 23 24 26 3 6
4 43 42 0 20
3 22 41 47
6 133 131 130 11 12 134
4 86 87 90 98
4 24 33 27 26
4 160 163 164 158
3 121 122 114
3 169 170 142
3 0 42 2
4 31 32 90 87
4 49 143 145 54
4 185 169 180 184
3 83 81 79
4 116 113 112 115
3 159 138 162
4 95 104 102 94
3 164 156 155
3 160 165 163
3 160 158 139
5 57 63 62 59 52
5 119 178 175 77 112
5 86 98 92 91 89
6 182 171 173 185 184 183
5 165 168 156 164 163
3 38 37 36
4 175 140 134 136
3 3 5 6
3 72 161 75
4 1 6 5 10
3 160 139 159
6 107 104 95 58 114 97
4 16 19 136 134
3 29 26 27
8 46 47 48 45 44 42 43 39
6 104 107 106 105 103 102
3 84 176 83
3 81 83 176
4 37 94 93 36
4 66 30 88 69
4 36 93 90 32
4 15 10 5 17
4 12 13 16 134
4 151 150 149 148
3 132 153 144
3 3 28 4
4 68 71 70 65
4 4 30 66 7
4 2 42 44 10
5 4 28 29 31 30
3 112 77 76
3 78 115 76
3 78 110 125
6 124 97 114 113 116 118
3 82 128 81
3 110 96 71
3 81 128 123
3 96 78 71
5 122 177 181 179 120
6 182 150 151 152 174 171
5 111 109 92 100 106
8 7 66 69 71 67 18 17 5
4 162 165 160 159
6 146 148 149 63 57 56
3 88 70 69
3 39 43 20
7 70 74 73 161 72 129 65
6 145 143 144 153 139 158
5 36 32 27 35 38
4 94 37 58 95
