ply
format ascii 1.0
comment Created in Blender version 4.2.1 LTS
element vertex 56
property float x
property float y
property float z
element face 30
property list uchar uint vertex_indices
end_header
-0.9988398 -1.0037327 -0.999999
-1.0005223 0.9992096 -0.99999976
1.0009929 -0.9958872 -0.9999998
-0.81706905 -0.80117226 1.2454536
0.9975748 1.0001113 -0.99999976
0.14498307 -0.9863272 1.7016205
0.9947858 -0.6391971 1.6950657
0.82543427 -0.8176254 1.2354119
0.9985911 -0.9903555 0.20657176
-0.99468094 -0.46638772 1.728831
-0.45028424 -0.9887303 1.7275484
-0.99695814 -0.99831605 0.15999511
-0.99856395 0.9967105 0.21930419
-0.8092525 0.7883612 1.2808447
-0.2724195 0.9935688 1.8066347
-0.99545443 0.50368834 1.7651443
0.9930739 0.25103408 1.7713275
0.4851092 0.99392474 1.8188622
0.7835798 0.7746721 1.2701385
0.99562037 0.99811417 -0.027935077
0.9991231 1.005225 1.8579048
0.9544328 1.5247451 3.1655524
1.4835953 1.5227181 4.2711725
1.4961797 1.1016657 3.1664221
1.575017 -1.5546567 4.431988
1.2954217 -1.5518011 3.1545699
1.295652 -1.2753363 2.42615
1.5625503 -1.0824165 3.142709
-1.1987405 -1.1760844 2.2463443
-0.99727035 -1.5211183 3.1484218
-1.5394346 -1.1782395 3.151008
-1.5424882 -1.5124291 4.5333323
-1.0848638 1.0841975 2.0243165
-1.5068989 1.5341696 4.4645348
-1.5128537 1.051388 3.1588893
-1.0494173 1.5326995 3.1561515
-0.77981335 -0.9551955 8.85261
-0.759476 0.6626554 8.852611
0.8240573 0.65565795 8.85261
0.87740535 -0.97559553 8.85261
1.2197886 1.1770238 7.8546295
1.4988549 1.042691 7.192455
1.4776509 1.5183531 5.9797144
1.1353124 1.5245538 7.193369
1.5629365 -1.0710263 7.2046366
1.1363212 -1.1890829 8.238229
1.571499 -1.5509703 5.8217525
1.129422 -1.5507574 7.198946
-1.5422544 -1.5129298 6.236925
-1.1304679 -1.520526 7.2059116
-1.1090333 -1.196564 8.134305
-1.5396855 -1.1499982 7.1987543
-1.5055368 1.5325766 5.888215
-1.1135484 1.0757058 8.067202
-0.97569877 1.5327766 7.195483
-1.5137687 1.0278392 7.1955757
6 0 11 9 15 12 1
6 1 12 14 17 19 4
6 4 19 16 6 8 2
6 2 8 5 10 11 0
4 1 4 2 0
4 9 11 10 3
8 3 10 5 7 26 25 29 28
8 7 6 16 18 20 23 27 26
4 5 8 6 7
8 13 15 9 3 28 30 34 32
4 14 12 15 13
4 17 18 16 19
8 18 17 14 13 32 35 21 20
4 29 31 30 28
4 20 21 22 23
8 22 21 35 33 52 54 43 42
4 24 25 26 27
4 32 34 33 35
8 24 27 23 22 42 41 44 46
8 31 29 25 24 46 47 49 48
8 33 34 30 31 48 51 55 52
4 38 37 36 39
6 40 43 54 53 37 38
4 46 44 45 47
6 45 44 41 40 38 39
6 50 49 47 45 39 36
6 53 55 51 50 36 37
4 42 43 40 41
4 51 48 49 50
4 53 54 52 55
