ply
format ascii 1.0
comment Created in Blender version 4.2.1 LTS
element vertex 20
property float x
property float y
property float z
element face 12
property list uchar uint vertex_indices
end_header
-0.57735 -0.5773501 -0.57734996
0.934172 2.6939313e-08 0.356822
0.934172 -2.6939313e-08 -0.356822
-0.934172 2.6939313e-08 0.356822
-0.934172 -2.6939313e-08 -0.356822
0 -0.35682195 0.934172
0 0.35682207 0.934172
0.356822 0.934172 -7.0528024e-08
-0.356822 0.934172 -7.0528024e-08
0 0.35682195 -0.934172
0 -0.35682207 -0.934172
0.356822 -0.934172 7.0528024e-08
-0.356822 -0.934172 7.0528024e-08
0.57735 0.5773501 0.57734996
0.57735 -0.57734996 0.5773501
-0.57735 0.5773501 0.57734996
-0.57735 -0.57734996 0.5773501
0.57735 0.57734996 -0.5773501
0.57735 -0.5773501 -0.57734996
-0.57735 0.57734996 -0.5773501
5 9 19 8 7 17
5 4 0 12 16 3
5 11 18 2 1 14
5 9 10 0 4 19
5 18 11 12 0 10
5 8 19 4 3 15
5 18 10 9 17 2
5 6 5 14 1 13
5 2 17 7 13 1
5 16 12 11 14 5
5 13 7 8 15 6
5 5 6 15 3 16
