ply
format ascii 1.0
comment Created in Blender version 4.0.2
element vertex 80
property float x
property float y
property float z
element face 42
property list uchar uint vertex_indices
end_header
0.08435499 -0.2596105 -0.90037227
0.66592073 -0.2854917 -0.60018873
-0.22083855 -0.16044806 -0.90037173
-0.2208386 0.16044812 -0.90037173
0.08435467 0.25961027 -0.90037227
0.8346306 -0.2854912 -0.32721138
-0.013603589 -0.8820015 -0.32721266
-0.8430397 -0.25961158 -0.32721096
-0.5074183 0.7215523 -0.3272121
0.5294379 0.7055545 -0.32721215
0.7502867 -0.5451127 -0.15850647
-0.28658384 -0.8820138 -0.1585061
-0.9274057 -2.7648116e-07 -0.15850526
-0.286584 0.8820138 -0.15850607
0.7502871 0.5451126 -0.15850624
0.31425294 -0.637721 0.71504736
-0.50940245 -0.49593714 0.71504736
-0.62908113 0.33121186 0.71504736
0.12060277 0.70064104 0.71504736
0.70362115 0.10180557 0.71504736
0.22082362 0.1604371 0.71504855
0.5067334 0.36816296 0.71504784
0.31425384 0.63772035 0.71504736
-0.08434916 0.25959265 0.71504855
-0.19355747 0.59569895 0.71504784
-0.50940156 0.49593744 0.71504736
-0.27295297 1.2684522e-08 0.71504855
-0.62634945 1.2588776e-08 0.71504784
-0.62908137 -0.33121237 0.71504736
-0.084349036 -0.25959277 0.71504855
-0.1935575 -0.5956989 0.71504784
0.12060319 -0.7006413 0.71504736
0.22082359 -0.16043732 0.71504855
0.50673306 -0.36816275 0.71504784
0.70362115 -0.10180484 0.71504736
0.8430797 0.25967574 0.3486774
0.7503191 0.54513603 0.18524131
0.50749123 0.7215712 0.3486771
0.013554813 0.8820596 0.34867805
-0.28659692 0.8820516 0.18524218
-0.52943265 0.70563024 0.34867746
-0.83470047 0.28546298 0.3486771
-0.92744535 -4.7056082e-07 0.18524222
-0.83470064 -0.28546336 0.34867692
-0.5294331 -0.7056298 0.34867766
-0.28659678 -0.88205165 0.18524238
0.013555096 -0.88205945 0.34867847
0.5074907 -0.7215712 0.34867746
0.75031906 -0.5451356 0.18524115
0.8430796 -0.25967556 0.34867704
0.28656515 0.88195455 0.13026255
0.28657633 0.88198674 -0.1771158
-0.013603414 0.8820015 -0.32721275
-0.7502363 0.5450765 0.13026391
-0.7502641 0.54509616 -0.17711529
-0.8430395 0.25961158 -0.32721138
-0.7502368 -0.5450759 0.13026413
-0.75026417 -0.5450959 -0.17711528
-0.50741804 -0.7215523 -0.32721233
0.28656483 -0.8819545 0.13026327
0.28657636 -0.8819867 -0.1771158
0.5294379 -0.7055544 -0.32721204
0.92734355 9.225187e-08 0.13026156
0.9273775 4.8780294e-08 -0.1771154
0.8346307 0.2854912 -0.32721114
0.47730362 0.5451025 -0.6001884
0.17711477 0.545094 -0.75026846
-0.065736815 0.72154945 -0.6001886
-0.37093043 0.6223867 -0.6001884
-0.4636864 0.3368873 -0.7502673
-0.7065517 0.16044763 -0.60018605
-0.70655155 -0.16044758 -0.60018617
-0.4636864 -0.33688727 -0.7502673
-0.37093052 -0.62238646 -0.6001885
0.66592073 0.28549153 -0.6001886
0.5731485 -7.951576e-08 -0.75026774
0.27297133 -2.651907e-07 -0.9003726
-0.065736905 -0.72154933 -0.60018873
0.17711484 -0.54509395 -0.7502686
0.47730362 -0.5451021 -0.60018873
5 0 2 3 4 76
5 1 5 10 61 79
5 6 11 58 73 77
5 7 12 55 70 71
5 8 13 52 67 68
5 9 14 64 74 65
5 15 31 46 59 47
5 16 28 43 56 44
5 17 25 40 53 41
5 18 22 37 50 38
5 19 34 49 62 35
5 20 23 26 29 32
6 0 78 77 73 72 2
6 0 76 75 1 79 78
6 6 77 78 79 61 60
6 1 75 74 64 63 5
6 4 66 65 74 75 76
6 2 72 71 70 69 3
6 7 71 72 73 58 57
6 3 69 68 67 66 4
6 8 68 69 70 55 54
6 9 65 66 67 52 51
6 5 63 62 49 48 10
6 14 36 35 62 63 64
6 6 60 59 46 45 11
6 10 48 47 59 60 61
6 7 57 56 43 42 12
6 11 45 44 56 57 58
6 8 54 53 40 39 13
6 12 42 41 53 54 55
6 9 51 50 37 36 14
6 13 39 38 50 51 52
6 15 47 48 49 34 33
6 16 44 45 46 31 30
6 17 41 42 43 28 27
6 18 38 39 40 25 24
6 19 35 36 37 22 21
6 15 33 32 29 30 31
6 19 21 20 32 33 34
6 16 30 29 26 27 28
6 17 27 26 23 24 25
6 18 24 23 20 21 22
