ply
format ascii 1.0
comment Created in Blender version 4.0.2
element vertex 320
property float x
property float y
property float z
element face 162
property list uchar uint vertex_indices
end_header
-0.041165162 -0.97822833 -0.12668787
-0.6772731 -0.5631818 -0.4299156
0.10776509 -0.97821695 -0.078297086
0.10776687 -0.97821873 0.07829668
-0.041163735 -0.97821605 0.12668593
-0.455051 -0.34501636 -0.47620687
0.15556961 -0.4006636 -0.88878775
0.8933353 -0.40064937 -0.12668212
0.39655247 -0.40066603 0.8104925
-0.5815927 -0.32985085 0.6979774
-0.45113558 -0.32860583 -0.50115377
0.288781 -0.31833497 -0.8887812
0.9345009 -0.31832552 -3.2931376e-07
0.28878322 -0.31833714 0.88878906
-0.45596272 -0.324627 0.50803447
-0.39414644 0.50711703 -0.7551117
0.62283635 0.5338576 -0.5492833
0.71486723 0.53386164 0.42259625
-0.1825869 0.5399223 0.806834
-0.7787822 0.5780561 0.08766283
-0.10776833 0.9782326 0.0782924
-0.37750745 0.9044105 0.08651027
-0.65806055 0.6880281 0.09685044
-0.24744602 0.9399829 0.17956388
-0.20756164 0.90859497 0.31297374
-0.5684824 0.757518 0.18420553
-0.40574276 0.792901 0.32379055
-0.3482533 0.7469829 0.51813006
-0.3367197 0.73234665 0.5470142
-0.688369 0.6602844 0.06641407
-0.27504227 0.32511976 0.33186972
-0.25719577 0.4298202 0.3683576
-0.21032587 0.34007603 0.4286229
-0.2907859 0.6613802 0.63826483
-0.3974524 0.5011579 0.757193
0.041172195 0.97828984 0.12670448
-0.03846655 0.9016923 0.39527696
-0.098526545 0.7353021 0.6427863
0.086381406 0.9458524 0.26586184
0.25451362 0.9038309 0.29551575
8.417311e-05 0.825388 0.5365512
0.18424268 0.7805118 0.5670767
0.31026244 0.8237059 0.4390524
0.46406367 0.7437211 0.44773865
-0.08665532 0.627983 0.757125
0.095231295 0.5851829 0.78571653
0.22645359 0.6561041 0.69693404
0.38481283 0.5852169 0.69165444
0.5060326 0.6251686 0.5706698
0.6228212 0.5338555 0.5492768
0.13321307 0.9782801 -4.6983996e-07
0.35969406 0.90380275 0.15074039
0.5692276 0.74372035 0.30299497
0.27948922 0.9457966 -9.266644e-07
0.35969365 0.9038013 -0.15073936
0.5134319 0.823672 0.15937185
0.5962093 0.7804554 -2.9595017e-07
0.51343334 0.8236793 -0.15937768
0.56923175 0.74372137 -0.30298576
0.699124 0.6251837 0.3049051
0.77672315 0.58521765 0.15224433
0.7328024 0.6560965 1.9171011e-07
0.776718 0.58521634 -0.15224084
0.6991296 0.6251935 -0.30490264
0.7148776 0.533868 -0.4226023
0.04117184 0.97828925 -0.12670489
0.25451398 0.9038303 -0.29551482
0.46407086 0.7437209 -0.44773215
0.086380646 0.9458519 -0.26586017
-0.037329815 0.90209794 -0.39409038
0.31026217 0.8237045 -0.43905145
0.18424222 0.78051114 -0.5670761
0.0012574724 0.82511616 -0.536716
-0.10072997 0.73686075 -0.6413043
0.5060277 0.6251813 -0.57067657
0.38481346 0.5852173 -0.6916547
0.22645698 0.65610594 -0.69694376
0.09522937 0.5851984 -0.785727
-0.084730625 0.6275191 -0.75745857
-0.18235698 0.5387514 -0.80753636
-0.10777056 0.97823805 -0.07829132
-0.20864338 0.90776956 -0.31578708
-0.33687106 0.7342911 -0.55000615
-0.24650002 0.940255 -0.178816
-0.37651563 0.90469426 -0.08485316
-0.34967086 0.75042605 -0.5181283
-0.40826988 0.79546475 -0.3191679
-0.56361425 0.76027167 -0.18772204
-0.6578754 0.68772084 -0.09754369
-0.28973323 0.6611972 -0.6420183
-0.20872772 0.33495665 -0.4283296
-0.2559242 0.42396736 -0.36586672
-0.27753955 0.32979104 -0.3294484
-0.68857753 0.6598172 -0.067308135
-0.7807282 0.57596076 -0.08855903
-0.81630826 0.52810395 0.10456401
-0.90141517 0.16113639 0.39850622
-0.56977767 -0.11677414 0.38315743
-0.92123294 0.26095784 0.21677342
-0.27565962 0.32652646 0.33106834
-0.7547481 0.09242505 0.57116294
-0.75733095 0.0962628 0.56352496
-0.2297804 0.29884326 0.3959218
-0.21186575 0.31293398 0.42364588
-0.47554985 -0.24397057 0.53245103
-0.61107016 -0.09536283 0.7273319
-0.76712024 0.10362596 0.61817384
-0.61142665 0.20363171 0.7553959
-0.46982995 0.2788182 0.8070805
-0.4304452 0.42486238 0.78669184
-0.15561166 0.40068018 0.8888103
-0.003925672 0.17655379 0.9683963
0.15614833 -0.08247226 0.9683882
-0.020537835 0.34573823 0.9234507
0.124302 0.43300563 0.875244
0.14703932 0.09087739 0.9682852
0.2981078 0.18424115 0.917472
0.28261358 0.3620348 0.8697896
0.41388735 0.43300927 0.78112745
0.3000287 -0.17300999 0.9233979
0.44288087 -0.082477234 0.87521744
0.45018563 0.090875104 0.8697805
0.57238877 0.17654106 0.7811223
0.55939984 0.34573352 0.734952
0.64826167 0.40065074 0.62758905
0.7971989 0.4006557 0.42260107
0.91977024 0.17654026 0.30298656
0.9692366 -0.08247314 0.15074538
0.8718436 0.34573042 0.3049003
0.8707888 0.4330101 0.15224132
0.9663302 0.09087764 0.15937263
0.9646904 0.18424183 -3.2687907e-07
0.9145452 0.3620228 1.464731e-07
0.87078774 0.43301022 -0.15224129
0.97090876 -0.17301475 -2.987084e-07
0.96923673 -0.082473025 -0.15074593
0.96632504 0.09087617 -0.15937313
0.91976684 0.17653614 -0.30299443
0.8718403 0.34573537 -0.30491024
0.79720557 0.40065995 -0.42260298
0.64826757 0.40065435 -0.6275825
0.57238746 0.17654127 -0.78112155
0.44287524 -0.08247082 -0.87522113
0.5593965 0.34573218 -0.7349512
0.41388798 0.4330082 -0.7811282
0.45018533 0.09087573 -0.86977994
0.29810834 0.18424103 -0.9174712
0.282613 0.36203378 -0.8697847
0.12430303 0.4330004 -0.87523973
0.30002788 -0.1730011 -0.9233992
0.15614837 -0.08247641 -0.968393
0.14703463 0.09087421 -0.9682915
-0.0039243717 0.17655334 -0.9683956
-0.020541383 0.34573781 -0.92344165
-0.15560517 0.40068293 -0.8888141
-0.43061173 0.4250037 -0.7865668
-0.6091368 0.20484814 -0.7562539
-0.6148344 -0.07998483 -0.732064
-0.47154695 0.2778965 -0.806461
-0.21031277 0.31386858 -0.42478853
-0.7679564 0.10418391 -0.6225162
-0.75844145 0.0958332 -0.5638156
-0.22980817 0.29882994 -0.3960059
-0.2757416 0.32612428 -0.33178014
-0.47181538 -0.23729053 -0.5264714
-0.56472003 -0.121922255 -0.3803283
-0.75625515 0.09306455 -0.5694504
-0.89696705 0.159053 -0.4036454
-0.91966915 0.26174876 -0.21581897
-0.81535167 0.5299418 -0.103904575
-0.28880724 0.31834683 0.88879216
-0.455598 0.07421001 0.8710114
-0.60223454 -0.22540171 0.72241825
-0.29997575 0.17296362 0.9233657
-0.15613317 0.082476914 0.96837515
-0.4320942 -0.07523893 0.87598825
-0.3086075 -0.19038972 0.91408664
-0.14703599 -0.09087552 0.9683242
0.0039257957 -0.1765514 0.9684
-0.58590865 -0.31506222 0.7034942
-0.38877845 -0.4438568 0.7821814
-0.29239517 -0.35807186 0.8693751
-0.12431641 -0.4330107 0.8752831
0.02054404 -0.34573764 0.92343074
0.15557188 -0.40066823 0.8887993
0.75603443 0.31833106 0.5492869
0.6955217 0.082473435 0.6916576
0.56601477 -0.17654313 0.7857555
0.7854848 0.17301811 0.5706841
0.8727364 0.082473315 0.44774213
0.6880998 -0.09087395 0.69693786
0.7804582 -0.18424311 0.56703484
0.8754576 -0.09087693 0.4390567
0.9222022 -0.17654014 0.29550076
0.52612656 -0.34573185 0.75913507
0.6149949 -0.4330107 0.635002
0.73988247 -0.36202246 0.5375545
0.7939681 -0.43301073 0.38866836
0.88454574 -0.34573013 0.2657667
0.8933337 -0.40064818 0.12668309
0.75603783 0.31833136 -0.54928976
0.8727385 0.08247378 -0.44774193
0.92220247 -0.17653947 -0.29550028
0.7854831 0.17301644 -0.5706821
0.6955223 0.08247411 -0.69165885
0.8754671 -0.09087442 -0.43905497
0.78046787 -0.18424569 -0.56704146
0.688103 -0.090871826 -0.6969473
0.5660145 -0.17654344 -0.7857554
0.8845491 -0.34572968 -0.265773
0.7939652 -0.433019 -0.38866377
0.7398864 -0.36203837 -0.53755856
0.61500156 -0.43300733 -0.63500875
0.5261195 -0.3457325 -0.75913334
0.39654562 -0.400659 -0.81048155
-0.28880757 0.31834215 -0.8887946
-0.15613833 0.08247267 -0.968383
0.003921418 -0.17655636 -0.96840674
-0.29998434 0.17296195 -0.92337453
-0.45334506 0.07575858 -0.8717655
-0.14703573 -0.09087697 -0.96832824
-0.3062517 -0.18907045 -0.91485775
-0.43653294 -0.07886285 -0.8744415
-0.6067433 -0.2211105 -0.72896403
0.020550795 -0.3457405 -0.9234287
-0.12431219 -0.43301684 -0.87528026
-0.29011345 -0.35899848 -0.8694864
-0.3949579 -0.44157663 -0.7815885
-0.5890733 -0.3174868 -0.7084545
-0.5820411 -0.34029144 -0.6993393
-1.0011768 0.28207958 -0.0007624856
-1.057003 0.17336325 -0.014703689
-0.58640385 -0.121435024 -0.32303315
-1.0613775 0.17638013 -0.0006610669
-1.0563474 0.17309257 0.015596282
-0.5948434 -0.14191742 -0.23222071
-0.640555 -0.109907374 0.00070080685
-0.5942014 -0.14053366 0.23727769
-0.5845736 -0.118173316 0.3380112
-0.51861537 -0.38842455 -0.26845622
-0.5398314 -0.3952192 -0.12089715
-0.554437 -0.4102205 -0.00031293964
-0.5395928 -0.3949201 0.12085558
-0.5208045 -0.38870633 0.25050768
-0.46002746 -0.3493219 0.47073096
-0.6711297 -0.5148531 0.5119896
-0.46406978 -0.7437197 0.44773322
-0.25451687 -0.90380365 0.2955061
-0.5092519 -0.61765265 0.57803077
-0.3973664 -0.57957447 0.69124705
-0.3102464 -0.82368916 0.43905127
-0.18424848 -0.7804672 0.5670334
-0.22644407 -0.65610933 0.6969167
-0.095228925 -0.58524525 0.78576416
-0.086356595 -0.94579166 0.2657737
0.032224342 -0.90379554 0.38866118
-0.007082898 -0.8236799 0.53755534
0.11225101 -0.74372774 0.6350119
0.07392658 -0.6252134 0.75913316
0.18101357 -0.53387654 0.81048477
0.32994714 -0.5338752 0.7620974
0.28243256 -0.74372584 0.5797119
0.20238611 -0.9037966 0.33337507
0.3863895 -0.6252036 0.65760756
0.5388918 -0.58521545 0.5797091
0.3216993 -0.82367754 0.43072605
0.48234788 -0.7804619 0.35044459
0.5928372 -0.65610605 0.43071997
0.7178651 -0.58521426 0.3333754
0.22608756 -0.94578815 0.16426112
0.3796011 -0.9037988 0.089460835
0.5090581 -0.82367873 0.17284709
0.6386116 -0.74371743 0.08946212
0.7448233 -0.6251758 0.16425353
0.82673573 -0.53385603 0.07829422
0.8267405 -0.5338594 -0.07829481
0.6386132 -0.7437196 -0.08946259
0.37960082 -0.9037985 -0.08946147
0.74481934 -0.62519747 -0.16426942
0.7178664 -0.5852238 -0.3333747
0.5090567 -0.8236762 -0.1728464
0.48234415 -0.78045535 -0.35044336
0.5928496 -0.6560969 -0.43073002
0.5388942 -0.5852262 -0.5797174
0.22608721 -0.9457891 -0.16426252
0.20238492 -0.9037996 -0.33337435
0.32169193 -0.82367814 -0.43072903
0.28243253 -0.74372524 -0.57971257
0.3863909 -0.6252037 -0.65760857
0.3299397 -0.5338658 -0.7620826
-0.6751094 -0.56154376 0.435405
-0.74636704 -0.60765934 0.1776536
-0.7463741 -0.6076497 -0.17765845
-0.72615004 -0.6000039 0.30642745
-0.5692178 -0.7437137 0.30299684
-0.76489425 -0.6267273 -1.8034985e-06
-0.59621644 -0.78045595 -7.34379e-07
-0.5134374 -0.8236761 0.15937032
-0.35969353 -0.9038015 0.15073955
-0.7261631 -0.59998524 -0.30643076
-0.56920964 -0.7437111 -0.30300257
-0.5134363 -0.8236754 -0.15937008
-0.35969406 -0.90380365 -0.15074098
-0.27946272 -0.94579387 -3.1567131e-09
-0.13320638 -0.9782263 -7.809272e-07
0.18101251 -0.5338711 -0.81047595
0.11224271 -0.74373007 -0.6350146
0.032207638 -0.9037986 -0.3886689
0.07392745 -0.6252084 -0.7591293
-0.095230736 -0.58524674 -0.785764
-0.0070832493 -0.82368076 -0.5375538
-0.184249 -0.7804662 -0.5670327
-0.2264452 -0.6561032 -0.6969142
-0.39457464 -0.58088195 -0.6912741
-0.08636685 -0.94579333 -0.26579952
-0.25451833 -0.9038105 -0.2955049
-0.3102473 -0.8236863 -0.43904796
-0.46406233 -0.74371946 -0.4477393
-0.50847733 -0.6195432 -0.57614386
-0.67033446 -0.5111246 -0.5187352
5 0 2 3 4 304
5 1 5 10 229 319
5 6 11 214 289 305
5 7 12 199 274 275
5 8 13 184 259 260
5 9 14 244 290 245
5 15 79 154 215 155
5 16 64 139 200 140
5 17 49 124 185 125
5 18 34 109 170 110
5 19 94 169 230 95
5 20 35 50 65 80
6 287 306 308 305 289 288
6 285 307 310 306 287 286
6 0 314 307 285 284 2
6 0 304 303 302 315 314
6 300 317 316 315 302 301
6 1 319 318 317 300 299
6 227 313 318 319 229 228
6 225 309 312 313 227 226
6 6 305 308 309 225 224
6 242 291 293 290 244 243
6 240 292 295 291 242 241
6 1 299 292 240 239 5
6 4 254 247 298 303 304
6 246 294 297 298 247 250
6 245 290 293 294 246 248
6 272 276 278 275 274 273
6 270 277 280 276 272 271
6 2 284 277 270 269 3
6 212 283 288 289 214 213
6 210 279 282 283 212 211
6 7 275 278 279 210 209
6 257 261 263 260 259 258
6 255 262 265 261 257 256
6 3 269 262 255 254 4
6 197 268 273 274 199 198
6 195 264 267 268 197 196
6 8 260 263 264 195 194
6 182 253 258 259 184 183
6 180 249 252 253 182 181
6 9 245 248 249 180 179
6 167 231 233 230 169 168
6 165 232 235 231 167 166
6 5 239 232 165 164 10
6 14 104 97 238 243 244
6 96 234 237 238 97 100
6 95 230 233 234 96 98
6 152 216 218 215 154 153
6 150 217 220 216 152 151
6 6 224 217 150 149 11
6 10 164 157 223 228 229
6 156 219 222 223 157 160
6 155 215 218 219 156 158
6 137 201 203 200 139 138
6 135 202 205 201 137 136
6 7 209 202 135 134 12
6 11 149 142 208 213 214
6 141 204 207 208 142 145
6 140 200 203 204 141 143
6 122 186 188 185 124 123
6 120 187 190 186 122 121
6 8 194 187 120 119 13
6 12 134 127 193 198 199
6 126 189 192 193 127 130
6 125 185 188 189 126 128
6 107 171 173 170 109 108
6 105 172 175 171 107 106
6 9 179 172 105 104 14
6 13 119 112 178 183 184
6 111 174 177 178 112 115
6 110 170 173 174 111 113
6 92 163 168 169 94 93
6 90 159 162 163 92 91
6 15 155 158 159 90 89
6 77 148 153 154 79 78
6 75 144 147 148 77 76
6 16 140 143 144 75 74
6 62 133 138 139 64 63
6 60 129 132 133 62 61
6 17 125 128 129 60 59
6 47 118 123 124 49 48
6 45 114 117 118 47 46
6 18 110 113 114 45 44
6 32 103 108 109 34 33
6 30 99 102 103 32 31
6 19 95 98 99 30 29
6 65 68 69 81 83 80
6 69 72 73 82 85 81
6 15 89 82 73 78 79
6 19 29 22 88 93 94
6 21 84 87 88 22 25
6 20 80 83 84 21 23
6 50 53 54 66 68 65
6 54 57 58 67 70 66
6 16 74 67 58 63 64
6 35 38 39 51 53 50
6 39 42 43 52 55 51
6 17 59 52 43 48 49
6 20 23 24 36 38 35
6 24 27 28 37 40 36
6 18 44 37 28 33 34
6 21 25 26 27 24 23
6 22 29 30 31 26 25
6 26 31 32 33 28 27
6 36 40 41 42 39 38
6 37 44 45 46 41 40
6 41 46 47 48 43 42
6 51 55 56 57 54 53
6 52 59 60 61 56 55
6 56 61 62 63 58 57
6 66 70 71 72 69 68
6 67 74 75 76 71 70
6 71 76 77 78 73 72
6 81 85 86 87 84 83
6 82 89 90 91 86 85
6 86 91 92 93 88 87
6 96 100 101 102 99 98
6 97 104 105 106 101 100
6 101 106 107 108 103 102
6 111 115 116 117 114 113
6 112 119 120 121 116 115
6 116 121 122 123 118 117
6 126 130 131 132 129 128
6 127 134 135 136 131 130
6 131 136 137 138 133 132
6 141 145 146 147 144 143
6 142 149 150 151 146 145
6 146 151 152 153 148 147
6 156 160 161 162 159 158
6 157 164 165 166 161 160
6 161 166 167 168 163 162
6 171 175 176 177 174 173
6 172 179 180 181 176 175
6 176 181 182 183 178 177
6 186 190 191 192 189 188
6 187 194 195 196 191 190
6 191 196 197 198 193 192
6 201 205 206 207 204 203
6 202 209 210 211 206 205
6 206 211 212 213 208 207
6 216 220 221 222 219 218
6 217 224 225 226 221 220
6 221 226 227 228 223 222
6 231 235 236 237 234 233
6 232 239 240 241 236 235
6 236 241 242 243 238 237
6 246 250 251 252 249 248
6 247 254 255 256 251 250
6 251 256 257 258 253 252
6 261 265 266 267 264 263
6 262 269 270 271 266 265
6 266 271 272 273 268 267
6 276 280 281 282 279 278
6 277 284 285 286 281 280
6 281 286 287 288 283 282
6 291 295 296 297 294 293
6 292 299 300 301 296 295
6 296 301 302 303 298 297
6 306 310 311 312 309 308
6 307 314 315 316 311 310
6 311 316 317 318 313 312
