ply
format ascii 1.0
comment Created in Blender version 4.2.1 LTS
element vertex 80
property float x
property float y
property float z
element face 42
property list uchar uint vertex_indices
end_header
0.101091 -0.3111201 -1.01824
0.75407 -0.31018707 -0.692092
-0.264656 -0.19228208 -1.01824
-0.264656 0.19228193 -1.01824
0.101091 0.3111189 -1.01824
0.956255 -0.31018603 -0.36495396
0.000495 -1.005305 -0.3649559
-0.955951 -0.31112304 -0.36495396
-0.591299 0.813021 -0.36495507
0.590509 0.813596 -0.36495507
0.855165 -0.621311 -0.16277595
-0.326644 -1.005305 -0.16277693
-1.05704 -1.2289246e-08 -0.162776
-0.326644 1.005305 -0.16277708
0.855165 0.621311 -0.16277705
0.427731 -0.69417894 0.69209206
-0.52803 -0.62130696 0.69209206
-0.75407 0.31018707 0.692092
0.061983 0.8130171 0.69209194
0.792382 0.19228207 0.69209
0.264656 0.19228208 1.01824
0.528517 0.38399005 0.855166
0.427731 0.69417906 0.69209194
-0.101091 0.3111201 1.01824
-0.201878 0.6213081 0.85516596
-0.52803 0.6213071 0.69209194
-0.327131 7.687498e-08 1.01824
-0.653285 6.456309e-08 0.855164
-0.75407 -0.31018594 0.692092
-0.101091 -0.3111189 1.01824
-0.201878 -0.62130797 0.8551661
0.061983 -0.81301695 0.69209206
0.264656 -0.19228193 1.01824
0.528517 -0.38398993 0.855166
0.792382 -0.19228195 0.69209
0.955951 0.31112304 0.36495396
0.855165 0.621311 0.20187895
0.591299 0.813021 0.36495495
-0.000495 1.005305 0.3649559
-0.326644 1.005305 0.20188093
-0.590509 0.813596 0.36495495
-0.956255 0.31018603 0.36495396
-1.05704 1.5241593e-08 0.201881
-0.956255 -0.31018597 0.36495402
-0.590509 -0.813596 0.36495507
-0.326644 -1.005305 0.20188108
-0.000495 -1.005305 0.36495608
0.591299 -0.813021 0.36495507
0.855165 -0.621311 0.20187904
0.955951 -0.31112298 0.36495402
0.326644 1.005305 0.16277693
0.326644 1.005305 -0.20188108
0.000495 1.005305 -0.36495608
-0.855165 0.621311 0.16277595
-0.855165 0.621311 -0.20187904
-0.955951 0.31112298 -0.36495402
-0.855165 -0.621311 0.16277705
-0.855165 -0.621311 -0.20187895
-0.591299 -0.813021 -0.36495495
0.326644 -1.005305 0.16277708
0.326644 -1.005305 -0.20188093
0.590509 -0.813596 -0.36495495
1.05704 1.2289246e-08 0.162776
1.05704 -1.5241593e-08 -0.201881
0.956255 0.31018597 -0.36495402
0.52803 0.62130696 -0.69209206
0.201878 0.62130797 -0.8551661
-0.061983 0.81301695 -0.69209206
-0.427731 0.69417894 -0.69209206
-0.528517 0.38398993 -0.855166
-0.792382 0.19228195 -0.69209
-0.792382 -0.19228207 -0.69209
-0.528517 -0.38399005 -0.855166
-0.427731 -0.69417906 -0.69209194
0.75407 0.31018594 -0.692092
0.653285 -6.456309e-08 -0.855164
0.327131 -7.687498e-08 -1.01824
-0.061983 -0.8130171 -0.69209194
0.201878 -0.6213081 -0.85516596
0.52803 -0.6213071 -0.69209194
5 3 4 76 0 2
6 48 10 5 63 62 49
5 49 62 35 19 34
6 39 40 25 24 18 38
5 67 68 8 13 52
6 53 40 39 13 8 54
5 46 59 47 15 31
5 10 61 79 1 5
5 73 77 6 11 58
5 56 44 16 28 43
6 49 34 33 15 47 48
5 37 50 38 18 22
6 73 72 2 0 78 77
5 40 53 41 17 25
6 79 78 0 76 75 1
6 28 27 17 41 42 43
6 63 5 1 75 74 64
6 65 74 75 76 4 66
6 78 79 61 60 6 77
6 58 57 7 71 72 73
6 66 4 3 69 68 67
6 53 54 55 12 42 41
6 70 55 54 8 68 69
6 66 67 52 51 9 65
6 62 63 64 14 36 35
6 46 45 11 6 60 59
6 56 43 42 12 7 57
5 26 29 32 20 23
6 57 58 11 45 44 56
5 64 74 65 9 14
6 51 52 13 39 38 50
6 50 37 36 14 9 51
6 45 46 31 30 16 44
6 59 60 61 10 48 47
6 37 22 21 19 35 36
6 32 29 30 31 15 33
6 33 34 19 21 20 32
6 26 27 28 16 30 29
6 26 23 24 25 17 27
6 71 70 69 3 2 72
6 23 20 21 22 18 24
5 55 70 71 7 12
