ply
format ascii 1.0
comment Created in Blender version 4.0.2
element vertex 290
property float x
property float y
property float z
element face 147
property list uchar uint vertex_indices
end_header
0.0411828 -0.12674332 -0.97849596
0.71507967 -0.4227061 -0.5340359
-0.10781506 -0.07833184 -0.9784957
-0.10781527 0.078331664 -0.9784957
0.04118245 0.12674335 -0.97849596
0.7974454 -0.42270607 -0.4007664
-0.15559421 -0.8890386 -0.4007672
-0.8936095 -0.12674421 -0.40076363
-0.39667952 0.810706 -0.400767
0.64844203 0.6277931 -0.4007639
0.7562633 -0.54945314 -0.31840217
-0.2888638 -0.8890391 -0.318403
-0.93479145 3.928335e-09 -0.3184002
-0.2888638 0.88903904 -0.31840307
0.7562636 0.5494523 -0.31840283
0.33004457 -0.76229155 0.53403676
-0.6230024 -0.5494492 0.5340293
-0.71507937 0.42270595 0.5340362
0.18104598 0.81070423 0.53403604
0.82697976 0.0783257 0.5340258
0.602908 0.06649452 0.7831138
0.47987756 0.34865135 0.78309155
0.24954836 0.55285037 0.78311414
0.74470276 0.16444737 0.6254144
0.7178602 0.33337715 0.58519423
0.5927961 0.43069154 0.6560954
0.53889215 0.57970446 0.5851953
0.3865212 0.6574366 0.625417
0.33004436 0.762292 0.5340364
0.12306416 0.59394705 0.7831143
-0.18329974 0.5641278 0.7830924
-0.44867897 0.40817213 0.78311485
0.07372319 0.7590698 0.6254169
-0.0952349 0.7857486 0.58518845
-0.22643158 0.6968719 0.6560961
-0.38480774 0.69165313 0.5851964
-0.5058193 0.5707619 0.6254164
-0.62299466 0.54945093 0.53403634
-0.5268475 0.30058116 0.783115
-0.5931602 -4.1119545e-08 0.78309274
-0.52684766 -0.30058056 0.783115
-0.6991377 0.30468148 0.625415
-0.776721 0.15223865 0.5851874
-0.73273766 -1.0304461e-07 0.65609413
-0.77671534 -0.15223639 0.58519536
-0.69913787 -0.30468118 0.62541497
-0.71507967 -0.4227063 0.5340357
-0.44867846 -0.4081725 0.7831149
-0.18329966 -0.5641277 0.7830924
0.12306425 -0.59394693 0.7831144
-0.5058192 -0.5707623 0.62541616
-0.3848081 -0.691653 0.58519626
-0.22643171 -0.6968719 0.656096
-0.09523508 -0.7857486 0.5851883
0.07372335 -0.7590694 0.6254172
0.1810456 -0.81070375 0.53403676
0.24954759 -0.5528507 0.78311414
0.47987756 -0.34865105 0.78309166
0.602908 -0.06649432 0.7831138
0.3865211 -0.65743697 0.62541664
0.5388925 -0.5797043 0.5851953
0.5927968 -0.43069184 0.6560947
0.717866 -0.3333795 0.5851859
0.74470294 -0.16444731 0.62541413
0.82697475 -0.07833141 0.53403234
0.8936096 0.12674421 0.4007638
0.9221945 0.29548454 0.17652732
0.8727302 0.4477217 -0.08247826
0.8845923 0.26607817 0.34563968
0.79394954 0.38865945 0.43301687
0.8754023 0.43905917 0.09088983
0.780362 0.5669626 0.18422061
0.73985994 0.53753614 0.36197412
0.61497676 0.6349857 0.43302667
0.7855961 0.5707636 -0.17272758
0.69550157 0.6916572 -0.08247832
0.68808883 0.69687533 0.09089019
0.56599087 0.7857532 0.17652562
0.52641106 0.7590723 0.3456415
0.39667916 0.81070614 0.40076718
0.15559453 0.8890387 0.40076703
0.0039464934 0.9683684 0.17652869
-0.15612455 0.96836853 -0.0824789
0.020293808 0.9235191 0.34564212
-0.12429884 0.8751916 0.43301845
-0.14706036 0.96823287 0.09089036
-0.29807228 0.91736805 0.18422067
-0.28260237 0.86975414 0.3619759
-0.41387197 0.78110176 0.4330188
-0.30006802 0.92352134 -0.17272809
-0.44289136 0.8751906 -0.082485914
-0.45013914 0.8697566 0.090889916
-0.5723895 0.78110373 0.17652842
-0.55925333 0.7352108 0.34564188
-0.6484419 0.62779367 0.40076315
-0.7974457 0.422706 0.40076578
-0.9197546 0.30299366 0.17652792
-0.9692191 0.15075663 -0.0824777
-0.87204444 0.30469042 0.34564543
-0.87076795 0.15223664 0.43301642
-0.966289 0.15933627 0.090891
-0.9645788 -1.9769777e-07 0.18422043
-0.9145152 2.981392e-08 0.36197472
-0.8707677 -0.15223661 0.43301684
-0.9710479 -1.9064018e-07 -0.1727261
-0.96921897 -0.15075731 -0.08247786
-0.9662888 -0.15933675 0.090890825
-0.91975206 -0.3030032 0.17652404
-0.8720481 -0.30468297 0.345642
-0.7974454 -0.42270637 0.4007662
-0.64844775 -0.6277857 0.4007665
-0.5723891 -0.78110397 0.17652884
-0.44288543 -0.87519413 -0.08247941
-0.5592525 -0.73521155 0.34564173
-0.4138724 -0.7811021 0.4330179
-0.45013928 -0.86975646 0.09089068
-0.29807305 -0.91736794 0.18422036
-0.2826037 -0.8697539 0.36197555
-0.12429886 -0.87519157 0.4330184
-0.3000682 -0.9235212 -0.17272875
-0.15611723 -0.9683691 -0.08248608
-0.14706025 -0.968233 0.09089014
0.0039456487 -0.9683684 0.17652804
0.020293202 -0.9235189 0.34564224
0.15559387 -0.88903856 0.4007672
0.39667976 -0.810706 0.4007667
0.56599796 -0.7857474 0.17652875
0.69550157 -0.6916574 -0.08247926
0.5264111 -0.75907236 0.34564105
0.6149818 -0.6349869 0.43301764
0.6880891 -0.69687533 0.090889215
0.7803618 -0.5669635 0.18421896
0.73985934 -0.5375368 0.36197382
0.7939495 -0.3886598 0.43301648
0.78559554 -0.5707643 -0.17272842
0.8727326 -0.4477157 -0.08248565
0.8754016 -0.43906045 0.09088875
0.9221945 -0.29548463 0.17652714
0.8845925 -0.26607832 0.3456389
0.8936096 -0.12674403 0.40076384
0.28886357 0.8890391 0.3184032
0.44288546 0.8751942 0.08247874
0.57239664 0.7810991 -0.1765257
0.30006766 0.9235214 0.17272845
0.15612473 0.9683684 0.082479514
0.45013928 0.86975646 -0.090890765
0.2980729 0.9173679 -0.18422115
0.14706063 0.96823275 -0.09089084
-0.0039458247 0.9683684 -0.17652875
0.5592524 0.73521125 -0.34564254
0.41387254 0.78110176 -0.43301862
0.28260326 0.86975396 -0.36197585
0.12429877 0.8751916 -0.43301857
-0.020293169 0.923519 -0.34564224
-0.15559395 0.8890386 -0.4007672
-0.75626326 0.549453 0.3184024
-0.6955014 0.69165754 0.08247847
-0.5659904 0.7857537 -0.17652531
-0.78559554 0.57076436 0.17272747
-0.8727295 0.44772285 0.08247814
-0.6880882 0.69687617 -0.09089004
-0.7803609 0.5669642 -0.18422061
-0.87540126 0.4390607 -0.0908899
-0.92219377 0.29548573 -0.17652777
-0.526411 0.75907224 -0.34564167
-0.6149817 0.634987 -0.4330179
-0.73985887 0.53753746 -0.36197424
-0.7939491 0.38866025 -0.43301687
-0.8845919 0.26607946 -0.3456393
-0.89360946 0.12674427 -0.40076372
-0.75626343 -0.5494531 0.31840235
-0.8727299 -0.44772202 0.082478344
-0.9221941 -0.29548538 -0.17652705
-0.7855954 -0.5707644 0.17272836
-0.6955012 -0.69165766 0.082478955
-0.8754019 -0.43905962 -0.09088963
-0.7803608 -0.5669642 -0.18422061
-0.6880882 -0.6968761 -0.09089006
-0.56599015 -0.7857537 -0.17652561
-0.8845918 -0.26607907 -0.3456397
-0.7939464 -0.38865584 -0.43302602
-0.73985875 -0.5375375 -0.36197454
-0.61498165 -0.6349869 -0.4330181
-0.52641076 -0.7590724 -0.34564164
-0.39667928 -0.81070626 -0.40076685
0.28886423 -0.8890389 0.31840274
0.15612419 -0.96836853 0.08247845
-0.0039457735 -0.9683684 -0.17652878
0.3000686 -0.9235211 0.17272815
0.44289154 -0.8751905 0.08248603
0.14706038 -0.9682329 -0.090890884
0.29807296 -0.91736794 -0.18422115
0.45013928 -0.86975646 -0.090890914
0.5723971 -0.7810989 -0.17652586
-0.020293232 -0.9235191 -0.34564203
0.12429565 -0.8751879 -0.4330272
0.28260338 -0.86975396 -0.36197582
0.4138725 -0.78110194 -0.43301842
0.5592526 -0.7352114 -0.34564194
0.6484479 -0.6277853 -0.40076685
0.93479145 1.890237e-07 0.31840062
0.9692192 -0.1507566 0.08247811
0.91975445 -0.30299383 -0.17652772
0.971048 1.9329843e-07 0.17272574
0.9692192 0.15075675 0.08247819
0.9662891 -0.15933587 -0.090890355
0.9645788 7.0922397e-09 -0.18422008
0.9662891 0.159336 -0.090890564
0.91975474 0.3029935 -0.17652762
0.87204826 -0.3046824 -0.34564194
0.8707677 -0.15223643 -0.433017
0.91451496 -1.5772139e-07 -0.361975
0.8707679 0.15223636 -0.43301666
0.8720488 0.30468205 -0.34564137
0.79744565 0.42270622 -0.40076584
0.6230022 0.5494494 -0.53402954
0.4640719 0.4477132 -0.7437112
0.2545261 0.29548392 -0.90378195
0.5058197 0.57076216 -0.62541604
0.38480827 0.69165325 -0.5851959
0.31019732 0.43905815 -0.82363176
0.18421921 0.56696045 -0.78036463
0.2264311 0.6968721 -0.656096
0.09523478 0.7857429 -0.5851961
0.086454995 0.2660784 -0.9457782
-0.03223992 0.38865304 -0.9037841
0.0071220445 0.53753555 -0.82363147
-0.11227558 0.6349833 -0.7437113
-0.07372354 0.75907 -0.62541664
-0.1810455 0.8107039 -0.5340369
-0.33004463 0.76229167 -0.53403664
-0.2824049 0.57970315 -0.74371195
-0.2023696 0.3333769 -0.90378225
-0.38652176 0.65743643 -0.62541664
-0.53889275 0.5797043 -0.58519495
-0.32171404 0.43069077 -0.82363164
-0.48228723 0.3504006 -0.780364
-0.5927916 0.43068707 -0.65610224
-0.71786034 0.33337757 -0.5851938
-0.22634019 0.16444555 -0.9457779
-0.37959737 0.08943561 -0.9037827
-0.5090287 0.17287816 -0.8236303
-0.63860154 0.089445576 -0.7437094
-0.74470335 0.16444662 -0.6254138
-0.82697463 0.07833177 -0.5340326
-0.8269746 -0.078331575 -0.5340326
-0.6386015 -0.08944601 -0.74370944
-0.37959728 -0.089436255 -0.9037826
-0.7447033 -0.16444695 -0.6254138
-0.71786076 -0.3333779 -0.58519316
-0.5090285 -0.17287901 -0.8236301
-0.4822872 -0.35040206 -0.78036344
-0.592797 -0.43069178 -0.65609455
-0.5388963 -0.5797094 -0.58518666
-0.22634013 -0.16444638 -0.9457777
-0.20235983 -0.33337873 -0.90378374
-0.32171407 -0.43069142 -0.8236312
-0.2824049 -0.5797039 -0.74371135
-0.38652104 -0.657437 -0.62541664
-0.33004433 -0.76229167 -0.534037
0.71507907 0.42270648 -0.5340364
0.7767156 0.15223604 -0.5851952
0.77671564 -0.15223661 -0.585195
0.6991377 0.30468172 -0.625415
0.56920993 0.3030024 -0.7437109
0.73273826 -3.0380102e-07 -0.6560936
0.5961397 -5.6328645e-07 -0.7803637
0.5134283 0.15933493 -0.8236308
0.35967603 0.15075614 -0.903782
0.69913816 -0.304682 -0.6254145
0.56920964 -0.30300257 -0.7437111
0.51342833 -0.15933537 -0.8236308
0.359676 -0.15075687 -0.9037821
0.2797737 -2.2563427e-07 -0.94577754
0.13326623 -9.454175e-08 -0.97849596
-0.18104587 -0.81070375 -0.5340369
-0.112265475 -0.63498425 -0.74371195
-0.032230288 -0.38865766 -0.9037824
-0.07372321 -0.7590694 -0.62541735
0.09523544 -0.78574264 -0.58519626
0.007122979 -0.53753483 -0.8236318
0.18422075 -0.56696 -0.7803647
0.22643182 -0.6968721 -0.65609574
0.38481218 -0.691658 -0.58518773
0.08645579 -0.26607853 -0.9457781
0.25453144 -0.29547465 -0.9037837
0.31019804 -0.4390579 -0.8236318
0.46406484 -0.44771978 -0.74371165
0.5058198 -0.57076216 -0.6254158
0.6230024 -0.54944897 -0.53402954
5 0 2 3 4 274
5 1 5 10 199 289
5 6 11 184 259 275
5 7 12 169 244 245
5 8 13 154 229 230
5 9 14 214 260 215
5 15 55 124 185 125
5 16 46 109 170 110
5 17 37 94 155 95
5 18 28 79 140 80
5 19 64 139 200 65
6 257 276 278 275 259 258
6 255 277 280 276 257 256
6 0 284 277 255 254 2
6 0 274 273 272 285 284
6 270 287 286 285 272 271
6 1 289 288 287 270 269
6 197 283 288 289 199 198
6 195 279 282 283 197 196
6 6 275 278 279 195 194
6 212 261 263 260 214 213
6 210 262 265 261 212 211
6 1 269 262 210 209 5
6 4 224 217 268 273 274
6 216 264 267 268 217 220
6 215 260 263 264 216 218
6 242 246 248 245 244 243
6 240 247 250 246 242 241
6 2 254 247 240 239 3
6 182 253 258 259 184 183
6 180 249 252 253 182 181
6 7 245 248 249 180 179
6 227 231 233 230 229 228
6 225 232 235 231 227 226
6 3 239 232 225 224 4
6 167 238 243 244 169 168
6 165 234 237 238 167 166
6 8 230 233 234 165 164
6 152 223 228 229 154 153
6 150 219 222 223 152 151
6 9 215 218 219 150 149
6 137 201 203 200 139 138
6 135 202 205 201 137 136
6 5 209 202 135 134 10
6 14 74 67 208 213 214
6 66 204 207 208 67 70
6 65 200 203 204 66 68
6 122 186 188 185 124 123
6 120 187 190 186 122 121
6 6 194 187 120 119 11
6 10 134 127 193 198 199
6 126 189 192 193 127 130
6 125 185 188 189 126 128
6 107 171 173 170 109 108
6 105 172 175 171 107 106
6 7 179 172 105 104 12
6 11 119 112 178 183 184
6 111 174 177 178 112 115
6 110 170 173 174 111 113
6 92 156 158 155 94 93
6 90 157 160 156 92 91
6 8 164 157 90 89 13
6 12 104 97 163 168 169
6 96 159 162 163 97 100
6 95 155 158 159 96 98
6 77 141 143 140 79 78
6 75 142 145 141 77 76
6 9 149 142 75 74 14
6 13 89 82 148 153 154
6 81 144 147 148 82 85
6 80 140 143 144 81 83
6 62 133 138 139 64 63
6 60 129 132 133 62 61
6 15 125 128 129 60 59
6 53 118 123 124 55 54
6 51 114 117 118 53 52
6 16 110 113 114 51 50
6 44 103 108 109 46 45
6 42 99 102 103 44 43
6 17 95 98 99 42 41
6 35 88 93 94 37 36
6 33 84 87 88 35 34
6 18 80 83 84 33 32
6 26 73 78 79 28 27
6 24 69 72 73 26 25
6 19 65 68 69 24 23
6 15 59 56 49 54 55
6 19 23 20 58 63 64
6 16 50 47 40 45 46
6 17 41 38 31 36 37
6 18 32 29 22 27 28
5 20 23 24 25 21
5 21 25 26 27 22
5 29 32 33 34 30
5 30 34 35 36 31
5 38 41 42 43 39
5 39 43 44 45 40
5 47 50 51 52 48
5 48 52 53 54 49
5 56 59 60 61 57
5 57 61 62 63 58
6 66 70 71 72 69 68
6 67 74 75 76 71 70
6 71 76 77 78 73 72
6 81 85 86 87 84 83
6 82 89 90 91 86 85
6 86 91 92 93 88 87
6 96 100 101 102 99 98
6 97 104 105 106 101 100
6 101 106 107 108 103 102
6 111 115 116 117 114 113
6 112 119 120 121 116 115
6 116 121 122 123 118 117
6 126 130 131 132 129 128
6 127 134 135 136 131 130
6 131 136 137 138 133 132
6 141 145 146 147 144 143
6 142 149 150 151 146 145
6 146 151 152 153 148 147
6 156 160 161 162 159 158
6 157 164 165 166 161 160
6 161 166 167 168 163 162
6 171 175 176 177 174 173
6 172 179 180 181 176 175
6 176 181 182 183 178 177
6 186 190 191 192 189 188
6 187 194 195 196 191 190
6 191 196 197 198 193 192
6 201 205 206 207 204 203
6 202 209 210 211 206 205
6 206 211 212 213 208 207
6 216 220 221 222 219 218
6 217 224 225 226 221 220
6 221 226 227 228 223 222
6 231 235 236 237 234 233
6 232 239 240 241 236 235
6 236 241 242 243 238 237
6 246 250 251 252 249 248
6 247 254 255 256 251 250
6 251 256 257 258 253 252
6 261 265 266 267 264 263
6 262 269 270 271 266 265
6 266 271 272 273 268 267
6 276 280 281 282 279 278
6 277 284 285 286 281 280
6 281 286 287 288 283 282
15 20 21 22 29 30 31 38 39 40 47 48 49 56 57 58
